<?xml version="1.0" encoding="utf-8" standalone="no"?>
<!DOCTYPE svg PUBLIC "-//W3C//DTD SVG 1.1//EN"
  "http://www.w3.org/Graphics/SVG/1.1/DTD/svg11.dtd">
<svg xmlns:xlink="http://www.w3.org/1999/xlink" width="460.8pt" height="345.6pt" viewBox="0 0 460.8 345.6" xmlns="http://www.w3.org/2000/svg" version="1.1">
 <metadata>
  <rdf:RDF xmlns:dc="http://purl.org/dc/elements/1.1/" xmlns:cc="http://creativecommons.org/ns#" xmlns:rdf="http://www.w3.org/1999/02/22-rdf-syntax-ns#">
   <cc:Work>
    <dc:type rdf:resource="http://purl.org/dc/dcmitype/StillImage"/>
    <dc:date>2022-09-30T11:33:30.614072</dc:date>
    <dc:format>image/svg+xml</dc:format>
    <dc:creator>
     <cc:Agent>
      <dc:title>Matplotlib v3.6.0, https://matplotlib.org/</dc:title>
     </cc:Agent>
    </dc:creator>
   </cc:Work>
  </rdf:RDF>
 </metadata>
 <defs>
  <style type="text/css">*{stroke-linejoin: round; stroke-linecap: butt}</style>
 </defs>
 <g id="figure_1">
  <g id="patch_1">
   <path d="M 0 345.6 
L 460.8 345.6 
L 460.8 0 
L 0 0 
z
" style="fill: #ffffff"/>
  </g>
  <g id="axes_1">
   <g id="patch_2">
    <path d="M 57.6 307.584 
L 414.72 307.584 
L 414.72 41.472 
L 57.6 41.472 
z
" style="fill: #ffffff"/>
   </g>
   <g id="matplotlib.axis_1">
    <g id="xtick_1">
     <g id="line2d_1">
      <path d="M 73.832727 307.584 
L 73.832727 41.472 
" clip-path="url(#p5980450b71)" style="fill: none; stroke: #b0b0b0; stroke-width: 0.8; stroke-linecap: square"/>
     </g>
     <g id="line2d_2">
      <defs>
       <path id="m7463d73ac3" d="M 0 0 
L 0 3.5 
" style="stroke: #000000; stroke-width: 0.8"/>
      </defs>
      <g>
       <use xlink:href="#m7463d73ac3" x="73.832727" y="307.584" style="stroke: #000000; stroke-width: 0.8"/>
      </g>
     </g>
     <g id="text_1">
      <!-- 0 -->
      <g transform="translate(70.651477 322.182437) scale(0.1 -0.1)">
       <defs>
        <path id="DejaVuSans-30" d="M 2034 4250 
Q 1547 4250 1301 3770 
Q 1056 3291 1056 2328 
Q 1056 1369 1301 889 
Q 1547 409 2034 409 
Q 2525 409 2770 889 
Q 3016 1369 3016 2328 
Q 3016 3291 2770 3770 
Q 2525 4250 2034 4250 
z
M 2034 4750 
Q 2819 4750 3233 4129 
Q 3647 3509 3647 2328 
Q 3647 1150 3233 529 
Q 2819 -91 2034 -91 
Q 1250 -91 836 529 
Q 422 1150 422 2328 
Q 422 3509 836 4129 
Q 1250 4750 2034 4750 
z
" transform="scale(0.015625)"/>
       </defs>
       <use xlink:href="#DejaVuSans-30"/>
      </g>
     </g>
    </g>
    <g id="xtick_2">
     <g id="line2d_3">
      <path d="M 137.365906 307.584 
L 137.365906 41.472 
" clip-path="url(#p5980450b71)" style="fill: none; stroke: #b0b0b0; stroke-width: 0.8; stroke-linecap: square"/>
     </g>
     <g id="line2d_4">
      <g>
       <use xlink:href="#m7463d73ac3" x="137.365906" y="307.584" style="stroke: #000000; stroke-width: 0.8"/>
      </g>
     </g>
     <g id="text_2">
      <!-- 100 -->
      <g transform="translate(127.822156 322.182437) scale(0.1 -0.1)">
       <defs>
        <path id="DejaVuSans-31" d="M 794 531 
L 1825 531 
L 1825 4091 
L 703 3866 
L 703 4441 
L 1819 4666 
L 2450 4666 
L 2450 531 
L 3481 531 
L 3481 0 
L 794 0 
L 794 531 
z
" transform="scale(0.015625)"/>
       </defs>
       <use xlink:href="#DejaVuSans-31"/>
       <use xlink:href="#DejaVuSans-30" x="63.623047"/>
       <use xlink:href="#DejaVuSans-30" x="127.246094"/>
      </g>
     </g>
    </g>
    <g id="xtick_3">
     <g id="line2d_5">
      <path d="M 200.899086 307.584 
L 200.899086 41.472 
" clip-path="url(#p5980450b71)" style="fill: none; stroke: #b0b0b0; stroke-width: 0.8; stroke-linecap: square"/>
     </g>
     <g id="line2d_6">
      <g>
       <use xlink:href="#m7463d73ac3" x="200.899086" y="307.584" style="stroke: #000000; stroke-width: 0.8"/>
      </g>
     </g>
     <g id="text_3">
      <!-- 200 -->
      <g transform="translate(191.355336 322.182437) scale(0.1 -0.1)">
       <defs>
        <path id="DejaVuSans-32" d="M 1228 531 
L 3431 531 
L 3431 0 
L 469 0 
L 469 531 
Q 828 903 1448 1529 
Q 2069 2156 2228 2338 
Q 2531 2678 2651 2914 
Q 2772 3150 2772 3378 
Q 2772 3750 2511 3984 
Q 2250 4219 1831 4219 
Q 1534 4219 1204 4116 
Q 875 4013 500 3803 
L 500 4441 
Q 881 4594 1212 4672 
Q 1544 4750 1819 4750 
Q 2544 4750 2975 4387 
Q 3406 4025 3406 3419 
Q 3406 3131 3298 2873 
Q 3191 2616 2906 2266 
Q 2828 2175 2409 1742 
Q 1991 1309 1228 531 
z
" transform="scale(0.015625)"/>
       </defs>
       <use xlink:href="#DejaVuSans-32"/>
       <use xlink:href="#DejaVuSans-30" x="63.623047"/>
       <use xlink:href="#DejaVuSans-30" x="127.246094"/>
      </g>
     </g>
    </g>
    <g id="xtick_4">
     <g id="line2d_7">
      <path d="M 264.432265 307.584 
L 264.432265 41.472 
" clip-path="url(#p5980450b71)" style="fill: none; stroke: #b0b0b0; stroke-width: 0.8; stroke-linecap: square"/>
     </g>
     <g id="line2d_8">
      <g>
       <use xlink:href="#m7463d73ac3" x="264.432265" y="307.584" style="stroke: #000000; stroke-width: 0.8"/>
      </g>
     </g>
     <g id="text_4">
      <!-- 300 -->
      <g transform="translate(254.888515 322.182437) scale(0.1 -0.1)">
       <defs>
        <path id="DejaVuSans-33" d="M 2597 2516 
Q 3050 2419 3304 2112 
Q 3559 1806 3559 1356 
Q 3559 666 3084 287 
Q 2609 -91 1734 -91 
Q 1441 -91 1130 -33 
Q 819 25 488 141 
L 488 750 
Q 750 597 1062 519 
Q 1375 441 1716 441 
Q 2309 441 2620 675 
Q 2931 909 2931 1356 
Q 2931 1769 2642 2001 
Q 2353 2234 1838 2234 
L 1294 2234 
L 1294 2753 
L 1863 2753 
Q 2328 2753 2575 2939 
Q 2822 3125 2822 3475 
Q 2822 3834 2567 4026 
Q 2313 4219 1838 4219 
Q 1578 4219 1281 4162 
Q 984 4106 628 3988 
L 628 4550 
Q 988 4650 1302 4700 
Q 1616 4750 1894 4750 
Q 2613 4750 3031 4423 
Q 3450 4097 3450 3541 
Q 3450 3153 3228 2886 
Q 3006 2619 2597 2516 
z
" transform="scale(0.015625)"/>
       </defs>
       <use xlink:href="#DejaVuSans-33"/>
       <use xlink:href="#DejaVuSans-30" x="63.623047"/>
       <use xlink:href="#DejaVuSans-30" x="127.246094"/>
      </g>
     </g>
    </g>
    <g id="xtick_5">
     <g id="line2d_9">
      <path d="M 327.965444 307.584 
L 327.965444 41.472 
" clip-path="url(#p5980450b71)" style="fill: none; stroke: #b0b0b0; stroke-width: 0.8; stroke-linecap: square"/>
     </g>
     <g id="line2d_10">
      <g>
       <use xlink:href="#m7463d73ac3" x="327.965444" y="307.584" style="stroke: #000000; stroke-width: 0.8"/>
      </g>
     </g>
     <g id="text_5">
      <!-- 400 -->
      <g transform="translate(318.421694 322.182437) scale(0.1 -0.1)">
       <defs>
        <path id="DejaVuSans-34" d="M 2419 4116 
L 825 1625 
L 2419 1625 
L 2419 4116 
z
M 2253 4666 
L 3047 4666 
L 3047 1625 
L 3713 1625 
L 3713 1100 
L 3047 1100 
L 3047 0 
L 2419 0 
L 2419 1100 
L 313 1100 
L 313 1709 
L 2253 4666 
z
" transform="scale(0.015625)"/>
       </defs>
       <use xlink:href="#DejaVuSans-34"/>
       <use xlink:href="#DejaVuSans-30" x="63.623047"/>
       <use xlink:href="#DejaVuSans-30" x="127.246094"/>
      </g>
     </g>
    </g>
    <g id="xtick_6">
     <g id="line2d_11">
      <path d="M 391.498623 307.584 
L 391.498623 41.472 
" clip-path="url(#p5980450b71)" style="fill: none; stroke: #b0b0b0; stroke-width: 0.8; stroke-linecap: square"/>
     </g>
     <g id="line2d_12">
      <g>
       <use xlink:href="#m7463d73ac3" x="391.498623" y="307.584" style="stroke: #000000; stroke-width: 0.8"/>
      </g>
     </g>
     <g id="text_6">
      <!-- 500 -->
      <g transform="translate(381.954873 322.182437) scale(0.1 -0.1)">
       <defs>
        <path id="DejaVuSans-35" d="M 691 4666 
L 3169 4666 
L 3169 4134 
L 1269 4134 
L 1269 2991 
Q 1406 3038 1543 3061 
Q 1681 3084 1819 3084 
Q 2600 3084 3056 2656 
Q 3513 2228 3513 1497 
Q 3513 744 3044 326 
Q 2575 -91 1722 -91 
Q 1428 -91 1123 -41 
Q 819 9 494 109 
L 494 744 
Q 775 591 1075 516 
Q 1375 441 1709 441 
Q 2250 441 2565 725 
Q 2881 1009 2881 1497 
Q 2881 1984 2565 2268 
Q 2250 2553 1709 2553 
Q 1456 2553 1204 2497 
Q 953 2441 691 2322 
L 691 4666 
z
" transform="scale(0.015625)"/>
       </defs>
       <use xlink:href="#DejaVuSans-35"/>
       <use xlink:href="#DejaVuSans-30" x="63.623047"/>
       <use xlink:href="#DejaVuSans-30" x="127.246094"/>
      </g>
     </g>
    </g>
    <g id="text_7">
     <!-- samples -->
     <g transform="translate(215.376406 335.860562) scale(0.1 -0.1)">
      <defs>
       <path id="DejaVuSans-73" d="M 2834 3397 
L 2834 2853 
Q 2591 2978 2328 3040 
Q 2066 3103 1784 3103 
Q 1356 3103 1142 2972 
Q 928 2841 928 2578 
Q 928 2378 1081 2264 
Q 1234 2150 1697 2047 
L 1894 2003 
Q 2506 1872 2764 1633 
Q 3022 1394 3022 966 
Q 3022 478 2636 193 
Q 2250 -91 1575 -91 
Q 1294 -91 989 -36 
Q 684 19 347 128 
L 347 722 
Q 666 556 975 473 
Q 1284 391 1588 391 
Q 1994 391 2212 530 
Q 2431 669 2431 922 
Q 2431 1156 2273 1281 
Q 2116 1406 1581 1522 
L 1381 1569 
Q 847 1681 609 1914 
Q 372 2147 372 2553 
Q 372 3047 722 3315 
Q 1072 3584 1716 3584 
Q 2034 3584 2315 3537 
Q 2597 3491 2834 3397 
z
" transform="scale(0.015625)"/>
       <path id="DejaVuSans-61" d="M 2194 1759 
Q 1497 1759 1228 1600 
Q 959 1441 959 1056 
Q 959 750 1161 570 
Q 1363 391 1709 391 
Q 2188 391 2477 730 
Q 2766 1069 2766 1631 
L 2766 1759 
L 2194 1759 
z
M 3341 1997 
L 3341 0 
L 2766 0 
L 2766 531 
Q 2569 213 2275 61 
Q 1981 -91 1556 -91 
Q 1019 -91 701 211 
Q 384 513 384 1019 
Q 384 1609 779 1909 
Q 1175 2209 1959 2209 
L 2766 2209 
L 2766 2266 
Q 2766 2663 2505 2880 
Q 2244 3097 1772 3097 
Q 1472 3097 1187 3025 
Q 903 2953 641 2809 
L 641 3341 
Q 956 3463 1253 3523 
Q 1550 3584 1831 3584 
Q 2591 3584 2966 3190 
Q 3341 2797 3341 1997 
z
" transform="scale(0.015625)"/>
       <path id="DejaVuSans-6d" d="M 3328 2828 
Q 3544 3216 3844 3400 
Q 4144 3584 4550 3584 
Q 5097 3584 5394 3201 
Q 5691 2819 5691 2113 
L 5691 0 
L 5113 0 
L 5113 2094 
Q 5113 2597 4934 2840 
Q 4756 3084 4391 3084 
Q 3944 3084 3684 2787 
Q 3425 2491 3425 1978 
L 3425 0 
L 2847 0 
L 2847 2094 
Q 2847 2600 2669 2842 
Q 2491 3084 2119 3084 
Q 1678 3084 1418 2786 
Q 1159 2488 1159 1978 
L 1159 0 
L 581 0 
L 581 3500 
L 1159 3500 
L 1159 2956 
Q 1356 3278 1631 3431 
Q 1906 3584 2284 3584 
Q 2666 3584 2933 3390 
Q 3200 3197 3328 2828 
z
" transform="scale(0.015625)"/>
       <path id="DejaVuSans-70" d="M 1159 525 
L 1159 -1331 
L 581 -1331 
L 581 3500 
L 1159 3500 
L 1159 2969 
Q 1341 3281 1617 3432 
Q 1894 3584 2278 3584 
Q 2916 3584 3314 3078 
Q 3713 2572 3713 1747 
Q 3713 922 3314 415 
Q 2916 -91 2278 -91 
Q 1894 -91 1617 61 
Q 1341 213 1159 525 
z
M 3116 1747 
Q 3116 2381 2855 2742 
Q 2594 3103 2138 3103 
Q 1681 3103 1420 2742 
Q 1159 2381 1159 1747 
Q 1159 1113 1420 752 
Q 1681 391 2138 391 
Q 2594 391 2855 752 
Q 3116 1113 3116 1747 
z
" transform="scale(0.015625)"/>
       <path id="DejaVuSans-6c" d="M 603 4863 
L 1178 4863 
L 1178 0 
L 603 0 
L 603 4863 
z
" transform="scale(0.015625)"/>
       <path id="DejaVuSans-65" d="M 3597 1894 
L 3597 1613 
L 953 1613 
Q 991 1019 1311 708 
Q 1631 397 2203 397 
Q 2534 397 2845 478 
Q 3156 559 3463 722 
L 3463 178 
Q 3153 47 2828 -22 
Q 2503 -91 2169 -91 
Q 1331 -91 842 396 
Q 353 884 353 1716 
Q 353 2575 817 3079 
Q 1281 3584 2069 3584 
Q 2775 3584 3186 3129 
Q 3597 2675 3597 1894 
z
M 3022 2063 
Q 3016 2534 2758 2815 
Q 2500 3097 2075 3097 
Q 1594 3097 1305 2825 
Q 1016 2553 972 2059 
L 3022 2063 
z
" transform="scale(0.015625)"/>
      </defs>
      <use xlink:href="#DejaVuSans-73"/>
      <use xlink:href="#DejaVuSans-61" x="52.099609"/>
      <use xlink:href="#DejaVuSans-6d" x="113.378906"/>
      <use xlink:href="#DejaVuSans-70" x="210.791016"/>
      <use xlink:href="#DejaVuSans-6c" x="274.267578"/>
      <use xlink:href="#DejaVuSans-65" x="302.050781"/>
      <use xlink:href="#DejaVuSans-73" x="363.574219"/>
     </g>
    </g>
   </g>
   <g id="matplotlib.axis_2">
    <g id="ytick_1">
     <g id="line2d_13">
      <path d="M 57.6 292.93941 
L 414.72 292.93941 
" clip-path="url(#p5980450b71)" style="fill: none; stroke: #b0b0b0; stroke-width: 0.8; stroke-linecap: square"/>
     </g>
     <g id="line2d_14">
      <defs>
       <path id="m611c976af0" d="M 0 0 
L -3.5 0 
" style="stroke: #000000; stroke-width: 0.8"/>
      </defs>
      <g>
       <use xlink:href="#m611c976af0" x="57.6" y="292.93941" style="stroke: #000000; stroke-width: 0.8"/>
      </g>
     </g>
     <g id="text_8">
      <!-- −6 -->
      <g transform="translate(35.857813 296.738629) scale(0.1 -0.1)">
       <defs>
        <path id="DejaVuSans-2212" d="M 678 2272 
L 4684 2272 
L 4684 1741 
L 678 1741 
L 678 2272 
z
" transform="scale(0.015625)"/>
        <path id="DejaVuSans-36" d="M 2113 2584 
Q 1688 2584 1439 2293 
Q 1191 2003 1191 1497 
Q 1191 994 1439 701 
Q 1688 409 2113 409 
Q 2538 409 2786 701 
Q 3034 994 3034 1497 
Q 3034 2003 2786 2293 
Q 2538 2584 2113 2584 
z
M 3366 4563 
L 3366 3988 
Q 3128 4100 2886 4159 
Q 2644 4219 2406 4219 
Q 1781 4219 1451 3797 
Q 1122 3375 1075 2522 
Q 1259 2794 1537 2939 
Q 1816 3084 2150 3084 
Q 2853 3084 3261 2657 
Q 3669 2231 3669 1497 
Q 3669 778 3244 343 
Q 2819 -91 2113 -91 
Q 1303 -91 875 529 
Q 447 1150 447 2328 
Q 447 3434 972 4092 
Q 1497 4750 2381 4750 
Q 2619 4750 2861 4703 
Q 3103 4656 3366 4563 
z
" transform="scale(0.015625)"/>
       </defs>
       <use xlink:href="#DejaVuSans-2212"/>
       <use xlink:href="#DejaVuSans-36" x="83.789062"/>
      </g>
     </g>
    </g>
    <g id="ytick_2">
     <g id="line2d_15">
      <path d="M 57.6 253.730334 
L 414.72 253.730334 
" clip-path="url(#p5980450b71)" style="fill: none; stroke: #b0b0b0; stroke-width: 0.8; stroke-linecap: square"/>
     </g>
     <g id="line2d_16">
      <g>
       <use xlink:href="#m611c976af0" x="57.6" y="253.730334" style="stroke: #000000; stroke-width: 0.8"/>
      </g>
     </g>
     <g id="text_9">
      <!-- −4 -->
      <g transform="translate(35.857813 257.529553) scale(0.1 -0.1)">
       <use xlink:href="#DejaVuSans-2212"/>
       <use xlink:href="#DejaVuSans-34" x="83.789062"/>
      </g>
     </g>
    </g>
    <g id="ytick_3">
     <g id="line2d_17">
      <path d="M 57.6 214.521258 
L 414.72 214.521258 
" clip-path="url(#p5980450b71)" style="fill: none; stroke: #b0b0b0; stroke-width: 0.8; stroke-linecap: square"/>
     </g>
     <g id="line2d_18">
      <g>
       <use xlink:href="#m611c976af0" x="57.6" y="214.521258" style="stroke: #000000; stroke-width: 0.8"/>
      </g>
     </g>
     <g id="text_10">
      <!-- −2 -->
      <g transform="translate(35.857813 218.320476) scale(0.1 -0.1)">
       <use xlink:href="#DejaVuSans-2212"/>
       <use xlink:href="#DejaVuSans-32" x="83.789062"/>
      </g>
     </g>
    </g>
    <g id="ytick_4">
     <g id="line2d_19">
      <path d="M 57.6 175.312182 
L 414.72 175.312182 
" clip-path="url(#p5980450b71)" style="fill: none; stroke: #b0b0b0; stroke-width: 0.8; stroke-linecap: square"/>
     </g>
     <g id="line2d_20">
      <g>
       <use xlink:href="#m611c976af0" x="57.6" y="175.312182" style="stroke: #000000; stroke-width: 0.8"/>
      </g>
     </g>
     <g id="text_11">
      <!-- 0 -->
      <g transform="translate(44.2375 179.1114) scale(0.1 -0.1)">
       <use xlink:href="#DejaVuSans-30"/>
      </g>
     </g>
    </g>
    <g id="ytick_5">
     <g id="line2d_21">
      <path d="M 57.6 136.103105 
L 414.72 136.103105 
" clip-path="url(#p5980450b71)" style="fill: none; stroke: #b0b0b0; stroke-width: 0.8; stroke-linecap: square"/>
     </g>
     <g id="line2d_22">
      <g>
       <use xlink:href="#m611c976af0" x="57.6" y="136.103105" style="stroke: #000000; stroke-width: 0.8"/>
      </g>
     </g>
     <g id="text_12">
      <!-- 2 -->
      <g transform="translate(44.2375 139.902324) scale(0.1 -0.1)">
       <use xlink:href="#DejaVuSans-32"/>
      </g>
     </g>
    </g>
    <g id="ytick_6">
     <g id="line2d_23">
      <path d="M 57.6 96.894029 
L 414.72 96.894029 
" clip-path="url(#p5980450b71)" style="fill: none; stroke: #b0b0b0; stroke-width: 0.8; stroke-linecap: square"/>
     </g>
     <g id="line2d_24">
      <g>
       <use xlink:href="#m611c976af0" x="57.6" y="96.894029" style="stroke: #000000; stroke-width: 0.8"/>
      </g>
     </g>
     <g id="text_13">
      <!-- 4 -->
      <g transform="translate(44.2375 100.693248) scale(0.1 -0.1)">
       <use xlink:href="#DejaVuSans-34"/>
      </g>
     </g>
    </g>
    <g id="ytick_7">
     <g id="line2d_25">
      <path d="M 57.6 57.684953 
L 414.72 57.684953 
" clip-path="url(#p5980450b71)" style="fill: none; stroke: #b0b0b0; stroke-width: 0.8; stroke-linecap: square"/>
     </g>
     <g id="line2d_26">
      <g>
       <use xlink:href="#m611c976af0" x="57.6" y="57.684953" style="stroke: #000000; stroke-width: 0.8"/>
      </g>
     </g>
     <g id="text_14">
      <!-- 6 -->
      <g transform="translate(44.2375 61.484172) scale(0.1 -0.1)">
       <use xlink:href="#DejaVuSans-36"/>
      </g>
     </g>
    </g>
    <g id="text_15">
     <!-- N/A -->
     <g transform="translate(29.778125 183.373312) rotate(-90) scale(0.1 -0.1)">
      <defs>
       <path id="DejaVuSans-4e" d="M 628 4666 
L 1478 4666 
L 3547 763 
L 3547 4666 
L 4159 4666 
L 4159 0 
L 3309 0 
L 1241 3903 
L 1241 0 
L 628 0 
L 628 4666 
z
" transform="scale(0.015625)"/>
       <path id="DejaVuSans-2f" d="M 1625 4666 
L 2156 4666 
L 531 -594 
L 0 -594 
L 1625 4666 
z
" transform="scale(0.015625)"/>
       <path id="DejaVuSans-41" d="M 2188 4044 
L 1331 1722 
L 3047 1722 
L 2188 4044 
z
M 1831 4666 
L 2547 4666 
L 4325 0 
L 3669 0 
L 3244 1197 
L 1141 1197 
L 716 0 
L 50 0 
L 1831 4666 
z
" transform="scale(0.015625)"/>
      </defs>
      <use xlink:href="#DejaVuSans-4e"/>
      <use xlink:href="#DejaVuSans-2f" x="74.804688"/>
      <use xlink:href="#DejaVuSans-41" x="108.496094"/>
     </g>
    </g>
   </g>
   <g id="line2d_27">
    <path d="M 73.832727 78.348136 
L 74.468059 77.76 
L 75.103391 73.172538 
L 75.738723 70.819994 
L 76.374054 69.506489 
L 77.009386 67.34999 
L 77.644718 68.898749 
L 78.915382 60.115916 
L 79.550713 62.664506 
L 80.186045 61.194165 
L 80.821377 68.310613 
L 81.456709 70.427903 
L 82.092041 69.604512 
L 82.727372 73.172538 
L 83.362704 79.955708 
L 83.998036 83.366898 
L 84.633368 85.954697 
L 85.2687 92.581031 
L 85.904031 101.069796 
L 87.174695 111.460201 
L 87.810027 119.694107 
L 88.445358 125.144169 
L 89.08069 125.849932 
L 89.716022 130.790276 
L 90.351354 141.259099 
L 90.986686 140.024013 
L 91.622017 147.062042 
L 92.257349 156.629057 
L 92.892681 159.393297 
L 93.528013 157.452447 
L 94.163345 161.804655 
L 94.798676 160.334314 
L 95.434008 171.685342 
L 96.06934 170.567883 
L 96.704672 173.430146 
L 97.340004 171.508901 
L 97.975335 171.822574 
L 98.610667 176.723708 
L 99.245999 177.468681 
L 99.881331 174.31235 
L 100.516663 180.585802 
L 101.151994 176.312013 
L 101.787326 181.664052 
L 102.422658 179.546762 
L 103.05799 181.036707 
L 103.693321 183.095183 
L 104.328653 185.898632 
L 104.963985 187.133718 
L 106.234649 195.563669 
L 106.86998 198.07305 
L 111.317303 237.948681 
L 111.952635 241.751961 
L 112.587967 249.809426 
L 113.223298 256.318133 
L 113.85863 260.591922 
L 115.764626 276.530412 
L 116.399957 278.745724 
L 117.035289 280.490528 
L 117.670621 283.568441 
L 118.305953 285.156408 
L 118.941284 285.744545 
L 119.576616 288.508784 
L 120.211948 285.901381 
L 120.84728 287.489348 
L 121.482612 285.470081 
L 122.117943 280.823806 
L 122.753275 283.431209 
L 123.388607 279.039793 
L 124.023939 273.021199 
L 125.294602 269.217919 
L 125.929934 271.923345 
L 126.565266 265.140175 
L 127.200598 264.277575 
L 127.83593 258.866723 
L 128.471261 258.513841 
L 129.106593 251.279767 
L 129.741925 249.65259 
L 130.377257 248.868408 
L 131.012589 246.162982 
L 131.64792 245.378801 
L 132.283252 243.045861 
L 132.918584 244.496596 
L 133.553916 239.164162 
L 134.189247 247.378464 
L 134.824579 246.162982 
L 135.459911 240.791339 
L 136.095243 243.496765 
L 136.730575 241.634334 
L 137.365906 243.594788 
L 138.001238 242.732188 
L 138.63657 246.378632 
L 139.271902 246.202191 
L 139.907234 247.398068 
L 140.542565 244.33976 
L 141.177897 243.183092 
L 141.813229 240.516875 
L 142.448561 236.948849 
L 143.083893 238.497608 
L 143.719224 233.027942 
L 144.354556 229.322684 
L 144.989888 224.245109 
L 145.62522 224.911663 
L 146.895883 211.717809 
L 148.166547 197.46531 
L 148.801879 187.859086 
L 150.072542 178.11563 
L 150.707874 172.077433 
L 151.343206 167.764434 
L 151.978538 155.335157 
L 152.613869 151.041763 
L 153.249201 148.728428 
L 153.884533 139.867177 
L 154.519865 129.437562 
L 155.155197 129.751235 
L 155.790528 125.908746 
L 156.42586 119.36083 
L 157.061192 116.949472 
L 157.696524 113.714723 
L 158.331856 109.578165 
L 158.967187 106.735507 
L 159.602519 107.656921 
L 160.237851 106.363021 
L 160.873183 103.716408 
L 161.508514 103.794827 
L 162.143846 106.18658 
L 162.779178 106.755112 
L 163.41451 108.245057 
L 164.049842 109.16647 
L 164.685173 104.049686 
L 165.320505 109.107656 
L 165.955837 105.912117 
L 166.591169 106.068953 
L 167.226501 103.657595 
L 167.861832 107.69613 
L 168.497164 105.618049 
L 169.132496 106.029744 
L 169.767828 102.285277 
L 170.40316 104.363358 
L 171.038491 97.560583 
L 171.673823 94.619903 
L 172.309155 93.561258 
L 172.944487 89.816791 
L 173.579819 88.032778 
L 174.21515 82.465089 
L 174.850482 83.07283 
L 175.485814 77.230677 
L 176.121146 74.56446 
L 176.756477 71.074853 
L 177.391809 73.09412 
L 178.027141 67.761686 
L 178.662473 67.722476 
L 179.297805 67.251968 
L 180.568468 61.135352 
L 181.2038 62.586088 
L 181.839132 65.683605 
L 182.474464 65.409141 
L 183.745127 71.898243 
L 184.380459 70.878807 
L 185.651123 80.759494 
L 186.286454 90.757809 
L 186.921786 91.189109 
L 187.557118 98.187929 
L 188.19245 99.383806 
L 189.463113 118.204162 
L 190.098445 119.380434 
L 190.733777 127.751572 
L 191.369109 130.711857 
L 192.00444 137.122541 
L 192.639772 140.945426 
L 193.275104 146.885601 
L 193.910436 154.021653 
L 194.545768 154.825439 
L 195.181099 154.727417 
L 195.816431 162.118327 
L 196.451763 164.451267 
L 197.087095 169.626865 
L 197.722427 171.254042 
L 198.357758 170.548279 
L 198.99309 176.312013 
L 199.628422 171.273647 
L 200.263754 174.782859 
L 200.899086 176.547267 
L 201.534417 171.685342 
L 202.805081 178.252862 
L 203.440413 180.27213 
L 204.075745 180.115293 
L 204.711076 180.213316 
L 205.346408 183.85976 
L 205.98174 185.781005 
L 206.617072 189.407844 
L 207.252403 188.682476 
L 207.887735 194.995138 
L 208.523067 196.053783 
L 209.158399 203.542716 
L 210.429062 208.385037 
L 211.064394 219.71646 
L 211.699726 220.265387 
L 212.335058 231.518392 
L 212.97039 235.380486 
L 213.605721 240.399248 
L 214.241053 247.437277 
L 214.876385 250.201517 
L 215.511717 254.651747 
L 216.147049 260.199831 
L 216.78238 268.512156 
L 217.417712 272.1586 
L 218.053044 274.628771 
L 218.688376 282.254937 
L 219.323708 280.764992 
L 219.959039 281.431546 
L 220.594371 286.097426 
L 221.229703 287.391326 
L 221.865035 285.901381 
L 222.500366 283.117536 
L 223.135698 287.901044 
L 224.406362 281.549173 
L 225.041694 281.882451 
L 225.677025 276.530412 
L 226.312357 278.628097 
L 226.947689 269.806055 
L 228.218353 266.19882 
L 228.853684 265.493057 
L 229.489016 260.317459 
L 230.124348 256.612201 
L 230.75968 254.828188 
L 232.030343 247.025582 
L 232.665675 247.31965 
L 233.301007 246.45705 
L 233.936339 244.967105 
L 234.571671 246.339423 
L 235.207002 241.889193 
L 235.842334 242.65377 
L 236.477666 243.986878 
L 237.112998 243.594788 
L 237.748329 245.496428 
L 238.383661 242.046029 
L 239.018993 240.869757 
L 239.654325 243.339929 
L 240.289657 243.614392 
L 241.56032 246.02575 
L 242.195652 242.889024 
L 243.466316 242.987047 
L 244.101647 240.399248 
L 244.736979 238.281958 
L 245.372311 236.556759 
L 246.007643 232.126133 
L 246.642975 226.656467 
L 247.278306 225.401776 
L 247.913638 220.57906 
L 248.54897 212.443177 
L 249.184302 206.659838 
L 250.454965 192.485757 
L 251.090297 187.70225 
L 251.725629 179.821225 
L 252.996292 165.941212 
L 253.631624 163.863131 
L 254.266956 152.982613 
L 254.902288 149.610632 
L 255.53762 143.690062 
L 256.172951 134.201465 
L 256.808283 134.142652 
L 257.443615 123.771851 
L 258.078947 120.635125 
L 258.714279 119.400039 
L 259.34961 110.205511 
L 259.984942 112.616869 
L 260.620274 112.479637 
L 261.255606 106.323812 
L 261.890938 107.284434 
L 262.526269 105.049517 
L 263.161601 105.500421 
L 263.796933 101.481491 
L 264.432265 105.245562 
L 265.067597 106.970762 
L 265.702928 103.579177 
L 266.33826 106.166976 
L 266.973592 106.872739 
L 267.608924 107.990198 
L 268.244255 105.676862 
L 268.879587 109.891838 
L 269.514919 107.441271 
L 270.150251 108.421498 
L 270.785583 106.225789 
L 271.420914 102.265673 
L 272.056246 99.148551 
L 272.691578 99.540642 
L 273.32691 100.677705 
L 273.962242 96.521543 
L 274.597573 93.698489 
L 275.232905 89.836395 
L 275.868237 82.229835 
L 276.503569 84.072661 
L 277.138901 79.818476 
L 277.774232 73.878301 
L 278.409564 72.858865 
L 279.044896 68.271404 
L 279.680228 69.486885 
L 280.31556 67.879313 
L 280.950891 65.173887 
L 281.586223 63.468292 
L 282.221555 62.115579 
L 282.856887 63.272246 
L 283.492218 64.664169 
L 284.12755 62.311624 
L 284.762882 66.428577 
L 285.398214 68.624285 
L 286.033546 74.309601 
L 286.668877 77.211073 
L 287.304209 81.524071 
L 287.939541 87.856337 
L 288.574873 91.483177 
L 289.210205 96.933238 
L 289.845536 99.540642 
L 290.480868 103.226295 
L 291.1162 112.57766 
L 291.751532 113.930373 
L 292.386864 124.183546 
L 293.022195 131.535248 
L 293.657527 135.47576 
L 294.292859 143.297971 
L 294.928191 146.611138 
L 295.563523 151.355436 
L 296.198854 150.139955 
L 296.834186 155.923293 
L 297.469518 162.784882 
L 298.10485 166.627371 
L 298.740181 166.568558 
L 299.375513 170.607092 
L 300.010845 169.705284 
L 300.646177 171.273647 
L 301.281509 173.685005 
L 301.91684 173.508564 
L 302.552172 174.351559 
L 303.187504 175.763086 
L 303.822836 176.076759 
L 304.458168 177.056985 
L 305.093499 178.390094 
L 305.728831 175.429809 
L 306.364163 182.38942 
L 306.999495 181.154334 
L 307.634827 180.742639 
L 308.270158 185.3301 
L 308.90549 188.231572 
L 309.540822 191.819203 
L 310.176154 197.955423 
L 310.811486 202.34684 
L 311.446817 204.091643 
L 312.082149 206.895092 
L 312.717481 215.873971 
L 313.352813 217.207079 
L 313.988144 225.637031 
L 314.623476 231.851669 
L 315.258808 235.537323 
L 315.89414 246.613887 
L 317.164803 255.298697 
L 317.800135 259.670509 
L 318.435467 262.473958 
L 319.706131 273.864194 
L 320.341462 278.490865 
L 320.976794 278.72612 
L 321.612126 280.941433 
L 322.247458 288.018671 
L 322.88279 285.607313 
L 323.518121 288.547994 
L 324.153453 284.999572 
L 324.788785 283.235164 
L 325.424117 285.215222 
L 326.059448 286.724771 
L 327.330112 281.196292 
L 327.965444 277.04013 
L 328.600776 275.844253 
L 329.236107 268.414133 
L 329.871439 267.571138 
L 330.506771 265.022548 
L 331.142103 260.474295 
L 331.777435 257.376778 
L 332.412766 255.671183 
L 333.048098 253.142198 
L 333.68343 255.631974 
L 334.318762 249.672194 
L 334.954094 249.025245 
L 335.589425 245.123942 
L 336.224757 244.026088 
L 336.860089 245.339592 
L 337.495421 244.947501 
L 338.130753 244.104506 
L 338.766084 243.457556 
L 339.401416 246.300214 
L 340.036748 242.477329 
L 340.67208 243.143883 
L 341.307411 247.633323 
L 341.942743 244.751455 
L 342.578075 242.810606 
L 343.213407 242.22247 
L 343.848739 242.398911 
L 344.48407 244.163319 
L 345.119402 243.771229 
L 345.754734 244.222133 
L 346.390066 240.556084 
L 347.025398 240.477666 
L 347.660729 231.126301 
L 348.296061 232.67506 
L 348.931393 228.577712 
L 349.566725 219.755669 
L 350.202057 215.795553 
L 350.837388 208.149783 
L 351.47272 205.228707 
L 352.743384 191.956434 
L 353.378716 189.956771 
L 354.014047 177.429472 
L 354.649379 171.234438 
L 355.284711 166.23528 
L 356.555374 152.002386 
L 357.826038 141.00424 
L 358.46137 137.769491 
L 359.096702 126.614509 
L 359.732033 127.849595 
L 360.367365 120.419475 
L 361.002697 120.674334 
L 361.638029 113.479468 
L 362.273361 113.126587 
L 362.908692 106.421835 
L 363.544024 106.970762 
L 364.179356 103.481154 
L 364.814688 102.893018 
L 365.45002 104.28494 
L 366.085351 107.127598 
L 366.720683 106.225789 
L 367.356015 106.40223 
L 367.991347 110.068279 
L 368.626679 107.715734 
L 369.26201 107.578502 
L 369.897342 108.362684 
L 370.532674 108.441102 
L 371.168006 110.264324 
L 371.803337 102.108836 
L 372.438669 103.559572 
L 373.074001 99.756292 
L 373.709333 103.010645 
L 374.344665 103.42234 
L 374.979996 102.775391 
L 375.615328 96.933238 
L 376.25066 95.208039 
L 376.885992 87.973964 
L 378.791987 85.366561 
L 380.062651 76.407287 
L 380.697983 66.605018 
L 381.333314 68.879144 
L 381.968646 67.526431 
L 382.603978 68.545867 
L 383.23931 65.664 
L 383.874642 64.703378 
L 384.509973 64.507332 
L 385.145305 65.369932 
L 385.780637 66.487391 
L 386.415969 65.899254 
L 387.0513 68.055754 
L 387.686632 67.271572 
L 389.592628 82.778762 
L 390.227959 84.876447 
L 390.863291 88.679728 
L 391.498623 98.36437 
L 392.133955 102.638159 
L 392.769287 109.16647 
L 393.404618 111.93071 
L 394.03995 116.851449 
L 395.310614 132.358639 
L 396.581277 144.493848 
L 397.216609 147.316901 
L 397.851941 153.002217 
L 398.487273 155.962502 
L 398.487273 155.962502 
" clip-path="url(#p5980450b71)" style="fill: none; stroke: #1f77b4; stroke-width: 1.5; stroke-linecap: square"/>
   </g>
   <g id="line2d_28">
    <path d="M 73.832727 53.764045 
L 75.103391 76.50531 
L 75.738723 79.642036 
L 77.009386 71.016039 
L 77.644718 72.976493 
L 78.28005 77.093446 
L 78.915382 64.154451 
L 79.550713 67.879313 
L 80.186045 73.172538 
L 80.821377 76.8974 
L 81.456709 77.093446 
L 82.092041 73.760674 
L 82.727372 69.25163 
L 83.362704 65.918859 
L 83.998036 80.426217 
L 84.633368 86.895715 
L 85.904031 107.872571 
L 86.539363 115.322295 
L 87.174695 118.851112 
L 87.810027 119.635293 
L 88.445358 119.243203 
L 89.08069 136.887287 
L 89.716022 138.651695 
L 90.351354 141.592376 
L 92.257349 153.159053 
L 92.892681 155.923293 
L 93.528013 157.432843 
L 94.163345 173.773225 
L 96.06934 174.967142 
L 97.340004 174.971063 
L 98.610667 175.324768 
L 99.245999 164.529686 
L 99.881331 168.078107 
L 100.516663 173.096869 
L 101.151994 176.668816 
L 101.787326 176.747234 
L 102.422658 173.36153 
L 103.05799 168.548616 
L 103.693321 165.137426 
L 104.328653 184.624337 
L 104.963985 189.760726 
L 106.234649 204.718989 
L 106.86998 208.443851 
L 107.505312 208.639896 
L 108.775976 204.718989 
L 109.411308 225.695844 
L 110.046639 230.98907 
L 111.317303 246.280609 
L 111.952635 250.201517 
L 112.587967 250.397562 
L 113.85863 246.868746 
L 114.493962 275.687417 
L 115.129294 276.079507 
L 115.764626 276.667643 
L 116.399957 277.059734 
L 117.035289 277.25578 
L 117.670621 277.25578 
L 118.941284 277.64787 
L 119.576616 271.962554 
L 120.84728 286.665958 
L 121.482612 286.273867 
L 122.117943 281.568778 
L 122.753275 281.176687 
L 124.023939 295.291955 
L 124.659271 251.181744 
L 125.929934 265.885147 
L 126.565266 265.493057 
L 127.200598 260.787968 
L 127.83593 260.395877 
L 129.106593 274.511144 
L 129.741925 236.870431 
L 130.377257 241.379475 
L 131.64792 253.926379 
L 132.283252 256.278924 
L 132.918584 255.102652 
L 133.553916 251.965925 
L 134.189247 249.613381 
L 134.824579 230.793024 
L 136.095243 250.985699 
L 136.730575 251.76988 
L 138.001238 238.438794 
L 138.63657 238.63484 
L 139.271902 241.771566 
L 139.907234 230.596979 
L 141.177897 244.908292 
L 141.813229 244.516201 
L 142.448561 240.007157 
L 143.083893 239.615066 
L 144.354556 253.730334 
L 144.989888 227.460253 
L 145.62522 230.400934 
L 146.260552 228.44048 
L 146.895883 216.481712 
L 147.531215 199.229718 
L 148.166547 186.898464 
L 148.801879 184.585128 
L 149.43721 187.172927 
L 150.072542 181.017102 
L 150.707874 183.722528 
L 151.343206 181.585634 
L 151.978538 169.489634 
L 152.613869 152.178827 
L 153.249201 140.024013 
L 153.884533 137.867514 
L 154.519865 140.612149 
L 155.155197 124.144337 
L 155.790528 131.790107 
L 156.42586 137.279378 
L 157.061192 132.182198 
L 158.331856 106.696298 
L 158.967187 102.3833 
L 159.602519 102.971436 
L 160.237851 100.422846 
L 160.873183 107.088389 
L 161.508514 112.185569 
L 162.143846 109.636979 
L 162.779178 102.579345 
L 163.41451 99.83471 
L 164.049842 104.735844 
L 164.685173 111.401387 
L 165.320505 94.345439 
L 166.591169 108.656752 
L 167.226501 108.264661 
L 167.861832 103.559572 
L 168.497164 103.167481 
L 169.767828 117.67484 
L 170.40316 74.544856 
L 171.673823 97.28612 
L 172.309155 100.422846 
L 173.579819 91.796849 
L 174.21515 93.757303 
L 174.850482 97.874256 
L 175.485814 53.764045 
L 176.756477 76.50531 
L 177.391809 79.44599 
L 178.662473 71.016039 
L 179.297805 72.780447 
L 179.933136 76.8974 
L 180.568468 64.350496 
L 181.2038 68.075358 
L 181.839132 73.172538 
L 182.474464 76.8974 
L 183.109795 77.093446 
L 183.745127 73.760674 
L 184.380459 69.055585 
L 185.015791 65.722814 
L 185.651123 89.052214 
L 186.286454 94.345439 
L 187.557118 109.440934 
L 188.19245 113.361841 
L 188.827782 113.557887 
L 190.098445 110.02907 
L 190.733777 131.594062 
L 192.00444 147.865828 
L 192.639772 148.846055 
L 193.275104 145.709329 
L 193.910436 146.689556 
L 195.181099 162.392791 
L 195.816431 174.00848 
L 198.357758 175.043599 
L 200.263754 175.181027 
L 200.899086 159.079624 
L 202.169749 179.291903 
L 202.805081 180.193712 
L 204.075745 167.176298 
L 204.711076 167.411553 
L 205.346408 170.607092 
L 205.98174 184.977219 
L 206.617072 189.937167 
L 207.887735 204.718989 
L 208.523067 208.443851 
L 209.158399 208.639896 
L 210.429062 204.522943 
L 211.064394 224.715618 
L 211.699726 226.480026 
L 212.335058 229.616752 
L 214.876385 243.928065 
L 215.511717 245.692473 
L 216.147049 266.865374 
L 216.78238 268.629783 
L 217.417712 271.570464 
L 219.323708 282.352959 
L 219.959039 284.901549 
L 220.594371 286.469912 
L 221.229703 271.962554 
L 222.500366 286.665958 
L 223.135698 286.273867 
L 223.77103 281.568778 
L 224.406362 281.176687 
L 225.677025 295.291955 
L 226.312357 245.496428 
L 227.583021 268.237692 
L 228.218353 271.178373 
L 229.489016 262.748421 
L 230.124348 264.708875 
L 230.75968 268.629783 
L 231.395012 237.458567 
L 232.665675 251.965925 
L 233.301007 251.573835 
L 233.936339 246.868746 
L 234.571671 246.476655 
L 235.842334 260.787968 
L 236.477666 230.008843 
L 237.112998 234.517887 
L 238.383661 246.868746 
L 239.018993 249.417335 
L 239.654325 248.241063 
L 240.289657 245.104337 
L 240.924988 242.751793 
L 241.56032 230.400934 
L 242.830984 245.104337 
L 243.466316 244.712246 
L 244.101647 240.007157 
L 244.736979 239.615066 
L 246.007643 253.730334 
L 246.642975 218.050075 
L 247.278306 222.167028 
L 247.913638 222.951209 
L 248.54897 214.521258 
L 249.184302 200.994126 
L 249.819634 192.309316 
L 250.454965 192.779825 
L 251.090297 196.877173 
L 251.725629 181.252357 
L 252.360961 183.977387 
L 252.996292 181.879702 
L 253.631624 169.803306 
L 254.266956 152.570917 
L 254.902288 140.416104 
L 255.53762 138.259605 
L 256.172951 140.808194 
L 256.808283 124.340382 
L 257.443615 131.986152 
L 258.078947 137.475423 
L 258.714279 132.378243 
L 259.984942 106.696298 
L 260.620274 102.3833 
L 261.255606 103.167481 
L 261.890938 88.268032 
L 263.161601 111.009297 
L 263.796933 114.146023 
L 264.432265 109.440934 
L 265.067597 105.716071 
L 265.702928 107.48048 
L 266.33826 111.597433 
L 266.973592 100.422846 
L 268.244255 115.12625 
L 268.879587 114.734159 
L 269.514919 110.225115 
L 270.150251 109.636979 
L 271.420914 123.752246 
L 272.056246 91.992895 
L 272.691578 92.973122 
L 275.868237 103.755618 
L 276.503569 104.539799 
L 277.138901 53.568 
L 278.409564 76.309264 
L 279.044896 79.44599 
L 279.680228 74.740901 
L 280.31556 71.016039 
L 280.950891 72.780447 
L 281.586223 76.8974 
L 282.221555 64.350496 
L 282.856887 67.879313 
L 283.492218 73.172538 
L 284.12755 76.701355 
L 284.762882 76.8974 
L 285.398214 73.760674 
L 286.033546 69.055585 
L 286.668877 65.722814 
L 287.304209 82.778762 
L 287.939541 88.071987 
L 289.210205 102.971436 
L 289.845536 106.892344 
L 290.480868 106.892344 
L 291.751532 103.363527 
L 292.386864 136.691241 
L 293.022195 138.45565 
L 293.657527 141.592376 
L 295.563523 152.766963 
L 296.198854 155.511598 
L 296.834186 156.923125 
L 297.469518 174.126107 
L 300.010845 174.827949 
L 301.91684 175.179459 
L 302.552172 164.470872 
L 303.187504 168.097712 
L 303.822836 173.155682 
L 304.458168 176.704104 
L 305.093499 176.709985 
L 305.728831 173.292914 
L 306.364163 168.548616 
L 306.999495 165.215844 
L 307.634827 183.761737 
L 308.270158 185.310496 
L 308.90549 188.153154 
L 310.811486 199.229718 
L 311.446817 201.974353 
L 312.082149 203.542716 
L 313.352813 216.481712 
L 314.623476 237.458567 
L 315.258808 245.104337 
L 315.89414 248.633154 
L 316.529472 249.22129 
L 317.164803 248.633154 
L 317.800135 266.669329 
L 318.435467 268.433737 
L 319.706131 275.09928 
L 320.976794 282.352959 
L 321.612126 285.097595 
L 322.247458 286.862003 
L 322.88279 272.1586 
L 324.153453 286.469912 
L 324.788785 286.077822 
L 325.424117 281.568778 
L 326.059448 281.176687 
L 327.330112 295.488 
L 327.965444 274.511144 
L 328.600776 282.156914 
L 329.236107 287.646185 
L 329.871439 282.549005 
L 331.142103 257.063105 
L 331.777435 252.750107 
L 332.412766 253.534288 
L 333.048098 236.870431 
L 333.68343 241.379475 
L 334.954094 253.926379 
L 335.589425 256.278924 
L 336.224757 255.102652 
L 336.860089 251.965925 
L 337.495421 249.613381 
L 338.130753 236.870431 
L 338.766084 243.535974 
L 339.401416 248.437109 
L 340.036748 245.888519 
L 340.67208 238.63484 
L 341.307411 235.890204 
L 341.942743 240.987384 
L 342.578075 247.652927 
L 343.213407 230.204888 
L 344.48407 245.104337 
L 345.119402 244.908292 
L 345.754734 240.203203 
L 346.390066 239.615066 
L 347.660729 253.534288 
L 348.296061 219.226347 
L 348.931393 226.872117 
L 349.566725 232.361387 
L 350.202057 227.264207 
L 351.47272 201.582263 
L 352.108052 197.269264 
L 352.743384 198.053446 
L 353.378716 182.095352 
L 354.014047 188.270781 
L 354.649379 191.054626 
L 355.284711 182.409024 
L 356.555374 149.630237 
L 357.190706 142.572603 
L 357.826038 141.788421 
L 358.46137 130.80988 
L 359.096702 138.45565 
L 359.732033 143.944921 
L 360.367365 138.847741 
L 361.638029 113.361841 
L 362.273361 109.048843 
L 362.908692 109.636979 
L 363.544024 94.541485 
L 364.814688 114.538113 
L 365.45002 115.51834 
L 366.720683 102.187254 
L 367.356015 102.3833 
L 367.991347 105.520026 
L 368.626679 94.149394 
L 369.897342 108.852797 
L 370.532674 108.460707 
L 371.168006 103.951663 
L 371.803337 103.363527 
L 373.074001 117.478794 
L 373.709333 92.18894 
L 374.344665 93.365212 
L 375.615328 97.482165 
L 376.885992 102.187254 
L 377.521324 103.951663 
L 378.156655 104.93189 
L 378.791987 60.037498 
L 380.062651 82.974807 
L 380.697983 85.915488 
L 381.333314 81.210399 
L 381.968646 77.485536 
L 382.603978 79.249945 
L 383.23931 83.366898 
L 383.874642 64.546541 
L 384.509973 68.271404 
L 385.145305 73.368583 
L 385.780637 76.8974 
L 386.415969 76.8974 
L 387.0513 73.368583 
L 387.686632 68.663494 
L 388.321964 65.330723 
L 388.957296 82.386671 
L 389.592628 87.483851 
L 390.863291 102.579345 
L 391.498623 106.500253 
L 392.133955 106.892344 
L 393.404618 102.971436 
L 394.03995 129.633608 
L 394.675282 131.594062 
L 395.945946 138.847741 
L 397.216609 146.297465 
L 397.851941 149.238146 
L 398.487273 150.806509 
L 398.487273 150.806509 
" clip-path="url(#p5980450b71)" style="fill: none; stroke: #ff7f0e; stroke-width: 1.5; stroke-linecap: square"/>
   </g>
   <g id="patch_3">
    <path d="M 57.6 307.584 
L 57.6 41.472 
" style="fill: none; stroke: #000000; stroke-width: 0.8; stroke-linejoin: miter; stroke-linecap: square"/>
   </g>
   <g id="patch_4">
    <path d="M 414.72 307.584 
L 414.72 41.472 
" style="fill: none; stroke: #000000; stroke-width: 0.8; stroke-linejoin: miter; stroke-linecap: square"/>
   </g>
   <g id="patch_5">
    <path d="M 57.6 307.584 
L 414.72 307.584 
" style="fill: none; stroke: #000000; stroke-width: 0.8; stroke-linejoin: miter; stroke-linecap: square"/>
   </g>
   <g id="patch_6">
    <path d="M 57.6 41.472 
L 414.72 41.472 
" style="fill: none; stroke: #000000; stroke-width: 0.8; stroke-linejoin: miter; stroke-linecap: square"/>
   </g>
   <g id="text_16">
    <!-- N = 512, L = 8, M = 4, TAE = 180.81, MTAE = 0.35 -->
    <g transform="translate(82.879687 35.472) scale(0.12 -0.12)">
     <defs>
      <path id="DejaVuSans-20" transform="scale(0.015625)"/>
      <path id="DejaVuSans-3d" d="M 678 2906 
L 4684 2906 
L 4684 2381 
L 678 2381 
L 678 2906 
z
M 678 1631 
L 4684 1631 
L 4684 1100 
L 678 1100 
L 678 1631 
z
" transform="scale(0.015625)"/>
      <path id="DejaVuSans-2c" d="M 750 794 
L 1409 794 
L 1409 256 
L 897 -744 
L 494 -744 
L 750 256 
L 750 794 
z
" transform="scale(0.015625)"/>
      <path id="DejaVuSans-4c" d="M 628 4666 
L 1259 4666 
L 1259 531 
L 3531 531 
L 3531 0 
L 628 0 
L 628 4666 
z
" transform="scale(0.015625)"/>
      <path id="DejaVuSans-38" d="M 2034 2216 
Q 1584 2216 1326 1975 
Q 1069 1734 1069 1313 
Q 1069 891 1326 650 
Q 1584 409 2034 409 
Q 2484 409 2743 651 
Q 3003 894 3003 1313 
Q 3003 1734 2745 1975 
Q 2488 2216 2034 2216 
z
M 1403 2484 
Q 997 2584 770 2862 
Q 544 3141 544 3541 
Q 544 4100 942 4425 
Q 1341 4750 2034 4750 
Q 2731 4750 3128 4425 
Q 3525 4100 3525 3541 
Q 3525 3141 3298 2862 
Q 3072 2584 2669 2484 
Q 3125 2378 3379 2068 
Q 3634 1759 3634 1313 
Q 3634 634 3220 271 
Q 2806 -91 2034 -91 
Q 1263 -91 848 271 
Q 434 634 434 1313 
Q 434 1759 690 2068 
Q 947 2378 1403 2484 
z
M 1172 3481 
Q 1172 3119 1398 2916 
Q 1625 2713 2034 2713 
Q 2441 2713 2670 2916 
Q 2900 3119 2900 3481 
Q 2900 3844 2670 4047 
Q 2441 4250 2034 4250 
Q 1625 4250 1398 4047 
Q 1172 3844 1172 3481 
z
" transform="scale(0.015625)"/>
      <path id="DejaVuSans-4d" d="M 628 4666 
L 1569 4666 
L 2759 1491 
L 3956 4666 
L 4897 4666 
L 4897 0 
L 4281 0 
L 4281 4097 
L 3078 897 
L 2444 897 
L 1241 4097 
L 1241 0 
L 628 0 
L 628 4666 
z
" transform="scale(0.015625)"/>
      <path id="DejaVuSans-54" d="M -19 4666 
L 3928 4666 
L 3928 4134 
L 2272 4134 
L 2272 0 
L 1638 0 
L 1638 4134 
L -19 4134 
L -19 4666 
z
" transform="scale(0.015625)"/>
      <path id="DejaVuSans-45" d="M 628 4666 
L 3578 4666 
L 3578 4134 
L 1259 4134 
L 1259 2753 
L 3481 2753 
L 3481 2222 
L 1259 2222 
L 1259 531 
L 3634 531 
L 3634 0 
L 628 0 
L 628 4666 
z
" transform="scale(0.015625)"/>
      <path id="DejaVuSans-2e" d="M 684 794 
L 1344 794 
L 1344 0 
L 684 0 
L 684 794 
z
" transform="scale(0.015625)"/>
     </defs>
     <use xlink:href="#DejaVuSans-4e"/>
     <use xlink:href="#DejaVuSans-20" x="74.804688"/>
     <use xlink:href="#DejaVuSans-3d" x="106.591797"/>
     <use xlink:href="#DejaVuSans-20" x="190.380859"/>
     <use xlink:href="#DejaVuSans-35" x="222.167969"/>
     <use xlink:href="#DejaVuSans-31" x="285.791016"/>
     <use xlink:href="#DejaVuSans-32" x="349.414062"/>
     <use xlink:href="#DejaVuSans-2c" x="413.037109"/>
     <use xlink:href="#DejaVuSans-20" x="444.824219"/>
     <use xlink:href="#DejaVuSans-4c" x="476.611328"/>
     <use xlink:href="#DejaVuSans-20" x="532.324219"/>
     <use xlink:href="#DejaVuSans-3d" x="564.111328"/>
     <use xlink:href="#DejaVuSans-20" x="647.900391"/>
     <use xlink:href="#DejaVuSans-38" x="679.6875"/>
     <use xlink:href="#DejaVuSans-2c" x="743.310547"/>
     <use xlink:href="#DejaVuSans-20" x="775.097656"/>
     <use xlink:href="#DejaVuSans-4d" x="806.884766"/>
     <use xlink:href="#DejaVuSans-20" x="893.164062"/>
     <use xlink:href="#DejaVuSans-3d" x="924.951172"/>
     <use xlink:href="#DejaVuSans-20" x="1008.740234"/>
     <use xlink:href="#DejaVuSans-34" x="1040.527344"/>
     <use xlink:href="#DejaVuSans-2c" x="1104.150391"/>
     <use xlink:href="#DejaVuSans-20" x="1135.9375"/>
     <use xlink:href="#DejaVuSans-54" x="1167.724609"/>
     <use xlink:href="#DejaVuSans-41" x="1221.058594"/>
     <use xlink:href="#DejaVuSans-45" x="1289.466797"/>
     <use xlink:href="#DejaVuSans-20" x="1352.650391"/>
     <use xlink:href="#DejaVuSans-3d" x="1384.4375"/>
     <use xlink:href="#DejaVuSans-20" x="1468.226562"/>
     <use xlink:href="#DejaVuSans-31" x="1500.013672"/>
     <use xlink:href="#DejaVuSans-38" x="1563.636719"/>
     <use xlink:href="#DejaVuSans-30" x="1627.259766"/>
     <use xlink:href="#DejaVuSans-2e" x="1690.882812"/>
     <use xlink:href="#DejaVuSans-38" x="1722.669922"/>
     <use xlink:href="#DejaVuSans-31" x="1786.292969"/>
     <use xlink:href="#DejaVuSans-2c" x="1849.916016"/>
     <use xlink:href="#DejaVuSans-20" x="1881.703125"/>
     <use xlink:href="#DejaVuSans-4d" x="1913.490234"/>
     <use xlink:href="#DejaVuSans-54" x="1999.769531"/>
     <use xlink:href="#DejaVuSans-41" x="2053.103516"/>
     <use xlink:href="#DejaVuSans-45" x="2121.511719"/>
     <use xlink:href="#DejaVuSans-20" x="2184.695312"/>
     <use xlink:href="#DejaVuSans-3d" x="2216.482422"/>
     <use xlink:href="#DejaVuSans-20" x="2300.271484"/>
     <use xlink:href="#DejaVuSans-30" x="2332.058594"/>
     <use xlink:href="#DejaVuSans-2e" x="2395.681641"/>
     <use xlink:href="#DejaVuSans-33" x="2427.46875"/>
     <use xlink:href="#DejaVuSans-35" x="2491.091797"/>
    </g>
   </g>
   <g id="legend_1">
    <g id="patch_7">
     <path d="M 269.795 302.584 
L 407.72 302.584 
Q 409.72 302.584 409.72 300.584 
L 409.72 272.22775 
Q 409.72 270.22775 407.72 270.22775 
L 269.795 270.22775 
Q 267.795 270.22775 267.795 272.22775 
L 267.795 300.584 
Q 267.795 302.584 269.795 302.584 
z
" style="fill: #ffffff; opacity: 0.8; stroke: #cccccc; stroke-linejoin: miter"/>
    </g>
    <g id="line2d_29">
     <path d="M 271.795 278.326187 
L 281.795 278.326187 
L 291.795 278.326187 
" style="fill: none; stroke: #1f77b4; stroke-width: 1.5; stroke-linecap: square"/>
    </g>
    <g id="text_17">
     <!-- signal -->
     <g transform="translate(299.795 281.826187) scale(0.1 -0.1)">
      <defs>
       <path id="DejaVuSans-69" d="M 603 3500 
L 1178 3500 
L 1178 0 
L 603 0 
L 603 3500 
z
M 603 4863 
L 1178 4863 
L 1178 4134 
L 603 4134 
L 603 4863 
z
" transform="scale(0.015625)"/>
       <path id="DejaVuSans-67" d="M 2906 1791 
Q 2906 2416 2648 2759 
Q 2391 3103 1925 3103 
Q 1463 3103 1205 2759 
Q 947 2416 947 1791 
Q 947 1169 1205 825 
Q 1463 481 1925 481 
Q 2391 481 2648 825 
Q 2906 1169 2906 1791 
z
M 3481 434 
Q 3481 -459 3084 -895 
Q 2688 -1331 1869 -1331 
Q 1566 -1331 1297 -1286 
Q 1028 -1241 775 -1147 
L 775 -588 
Q 1028 -725 1275 -790 
Q 1522 -856 1778 -856 
Q 2344 -856 2625 -561 
Q 2906 -266 2906 331 
L 2906 616 
Q 2728 306 2450 153 
Q 2172 0 1784 0 
Q 1141 0 747 490 
Q 353 981 353 1791 
Q 353 2603 747 3093 
Q 1141 3584 1784 3584 
Q 2172 3584 2450 3431 
Q 2728 3278 2906 2969 
L 2906 3500 
L 3481 3500 
L 3481 434 
z
" transform="scale(0.015625)"/>
       <path id="DejaVuSans-6e" d="M 3513 2113 
L 3513 0 
L 2938 0 
L 2938 2094 
Q 2938 2591 2744 2837 
Q 2550 3084 2163 3084 
Q 1697 3084 1428 2787 
Q 1159 2491 1159 1978 
L 1159 0 
L 581 0 
L 581 3500 
L 1159 3500 
L 1159 2956 
Q 1366 3272 1645 3428 
Q 1925 3584 2291 3584 
Q 2894 3584 3203 3211 
Q 3513 2838 3513 2113 
z
" transform="scale(0.015625)"/>
      </defs>
      <use xlink:href="#DejaVuSans-73"/>
      <use xlink:href="#DejaVuSans-69" x="52.099609"/>
      <use xlink:href="#DejaVuSans-67" x="79.882812"/>
      <use xlink:href="#DejaVuSans-6e" x="143.359375"/>
      <use xlink:href="#DejaVuSans-61" x="206.738281"/>
      <use xlink:href="#DejaVuSans-6c" x="268.017578"/>
     </g>
    </g>
    <g id="line2d_30">
     <path d="M 271.795 293.004312 
L 281.795 293.004312 
L 291.795 293.004312 
" style="fill: none; stroke: #ff7f0e; stroke-width: 1.5; stroke-linecap: square"/>
    </g>
    <g id="text_18">
     <!-- decompressed signal -->
     <g transform="translate(299.795 296.504312) scale(0.1 -0.1)">
      <defs>
       <path id="DejaVuSans-64" d="M 2906 2969 
L 2906 4863 
L 3481 4863 
L 3481 0 
L 2906 0 
L 2906 525 
Q 2725 213 2448 61 
Q 2172 -91 1784 -91 
Q 1150 -91 751 415 
Q 353 922 353 1747 
Q 353 2572 751 3078 
Q 1150 3584 1784 3584 
Q 2172 3584 2448 3432 
Q 2725 3281 2906 2969 
z
M 947 1747 
Q 947 1113 1208 752 
Q 1469 391 1925 391 
Q 2381 391 2643 752 
Q 2906 1113 2906 1747 
Q 2906 2381 2643 2742 
Q 2381 3103 1925 3103 
Q 1469 3103 1208 2742 
Q 947 2381 947 1747 
z
" transform="scale(0.015625)"/>
       <path id="DejaVuSans-63" d="M 3122 3366 
L 3122 2828 
Q 2878 2963 2633 3030 
Q 2388 3097 2138 3097 
Q 1578 3097 1268 2742 
Q 959 2388 959 1747 
Q 959 1106 1268 751 
Q 1578 397 2138 397 
Q 2388 397 2633 464 
Q 2878 531 3122 666 
L 3122 134 
Q 2881 22 2623 -34 
Q 2366 -91 2075 -91 
Q 1284 -91 818 406 
Q 353 903 353 1747 
Q 353 2603 823 3093 
Q 1294 3584 2113 3584 
Q 2378 3584 2631 3529 
Q 2884 3475 3122 3366 
z
" transform="scale(0.015625)"/>
       <path id="DejaVuSans-6f" d="M 1959 3097 
Q 1497 3097 1228 2736 
Q 959 2375 959 1747 
Q 959 1119 1226 758 
Q 1494 397 1959 397 
Q 2419 397 2687 759 
Q 2956 1122 2956 1747 
Q 2956 2369 2687 2733 
Q 2419 3097 1959 3097 
z
M 1959 3584 
Q 2709 3584 3137 3096 
Q 3566 2609 3566 1747 
Q 3566 888 3137 398 
Q 2709 -91 1959 -91 
Q 1206 -91 779 398 
Q 353 888 353 1747 
Q 353 2609 779 3096 
Q 1206 3584 1959 3584 
z
" transform="scale(0.015625)"/>
       <path id="DejaVuSans-72" d="M 2631 2963 
Q 2534 3019 2420 3045 
Q 2306 3072 2169 3072 
Q 1681 3072 1420 2755 
Q 1159 2438 1159 1844 
L 1159 0 
L 581 0 
L 581 3500 
L 1159 3500 
L 1159 2956 
Q 1341 3275 1631 3429 
Q 1922 3584 2338 3584 
Q 2397 3584 2469 3576 
Q 2541 3569 2628 3553 
L 2631 2963 
z
" transform="scale(0.015625)"/>
      </defs>
      <use xlink:href="#DejaVuSans-64"/>
      <use xlink:href="#DejaVuSans-65" x="63.476562"/>
      <use xlink:href="#DejaVuSans-63" x="125"/>
      <use xlink:href="#DejaVuSans-6f" x="179.980469"/>
      <use xlink:href="#DejaVuSans-6d" x="241.162109"/>
      <use xlink:href="#DejaVuSans-70" x="338.574219"/>
      <use xlink:href="#DejaVuSans-72" x="402.050781"/>
      <use xlink:href="#DejaVuSans-65" x="440.914062"/>
      <use xlink:href="#DejaVuSans-73" x="502.4375"/>
      <use xlink:href="#DejaVuSans-73" x="554.537109"/>
      <use xlink:href="#DejaVuSans-65" x="606.636719"/>
      <use xlink:href="#DejaVuSans-64" x="668.160156"/>
      <use xlink:href="#DejaVuSans-20" x="731.636719"/>
      <use xlink:href="#DejaVuSans-73" x="763.423828"/>
      <use xlink:href="#DejaVuSans-69" x="815.523438"/>
      <use xlink:href="#DejaVuSans-67" x="843.306641"/>
      <use xlink:href="#DejaVuSans-6e" x="906.783203"/>
      <use xlink:href="#DejaVuSans-61" x="970.162109"/>
      <use xlink:href="#DejaVuSans-6c" x="1031.441406"/>
     </g>
    </g>
   </g>
  </g>
 </g>
 <defs>
  <clipPath id="p5980450b71">
   <rect x="57.6" y="41.472" width="357.12" height="266.112"/>
  </clipPath>
 </defs>
</svg>
