<?xml version="1.0" encoding="utf-8" standalone="no"?>
<!DOCTYPE svg PUBLIC "-//W3C//DTD SVG 1.1//EN"
  "http://www.w3.org/Graphics/SVG/1.1/DTD/svg11.dtd">
<svg xmlns:xlink="http://www.w3.org/1999/xlink" width="460.8pt" height="345.6pt" viewBox="0 0 460.8 345.6" xmlns="http://www.w3.org/2000/svg" version="1.1">
 <metadata>
  <rdf:RDF xmlns:dc="http://purl.org/dc/elements/1.1/" xmlns:cc="http://creativecommons.org/ns#" xmlns:rdf="http://www.w3.org/1999/02/22-rdf-syntax-ns#">
   <cc:Work>
    <dc:type rdf:resource="http://purl.org/dc/dcmitype/StillImage"/>
    <dc:date>2022-10-01T01:19:44.429628</dc:date>
    <dc:format>image/svg+xml</dc:format>
    <dc:creator>
     <cc:Agent>
      <dc:title>Matplotlib v3.6.0, https://matplotlib.org/</dc:title>
     </cc:Agent>
    </dc:creator>
   </cc:Work>
  </rdf:RDF>
 </metadata>
 <defs>
  <style type="text/css">*{stroke-linejoin: round; stroke-linecap: butt}</style>
 </defs>
 <g id="figure_1">
  <g id="patch_1">
   <path d="M 0 345.6 
L 460.8 345.6 
L 460.8 0 
L 0 0 
z
" style="fill: #ffffff"/>
  </g>
  <g id="axes_1">
   <g id="patch_2">
    <path d="M 57.6 307.584 
L 414.72 307.584 
L 414.72 41.472 
L 57.6 41.472 
z
" style="fill: #ffffff"/>
   </g>
   <g id="matplotlib.axis_1">
    <g id="xtick_1">
     <g id="line2d_1">
      <path d="M 73.832727 307.584 
L 73.832727 41.472 
" clip-path="url(#p6c9c782d27)" style="fill: none; stroke: #b0b0b0; stroke-width: 0.8; stroke-linecap: square"/>
     </g>
     <g id="line2d_2">
      <defs>
       <path id="me03c205dcc" d="M 0 0 
L 0 3.5 
" style="stroke: #000000; stroke-width: 0.8"/>
      </defs>
      <g>
       <use xlink:href="#me03c205dcc" x="73.832727" y="307.584" style="stroke: #000000; stroke-width: 0.8"/>
      </g>
     </g>
     <g id="text_1">
      <!-- 0 -->
      <g transform="translate(70.651477 322.182437) scale(0.1 -0.1)">
       <defs>
        <path id="DejaVuSans-30" d="M 2034 4250 
Q 1547 4250 1301 3770 
Q 1056 3291 1056 2328 
Q 1056 1369 1301 889 
Q 1547 409 2034 409 
Q 2525 409 2770 889 
Q 3016 1369 3016 2328 
Q 3016 3291 2770 3770 
Q 2525 4250 2034 4250 
z
M 2034 4750 
Q 2819 4750 3233 4129 
Q 3647 3509 3647 2328 
Q 3647 1150 3233 529 
Q 2819 -91 2034 -91 
Q 1250 -91 836 529 
Q 422 1150 422 2328 
Q 422 3509 836 4129 
Q 1250 4750 2034 4750 
z
" transform="scale(0.015625)"/>
       </defs>
       <use xlink:href="#DejaVuSans-30"/>
      </g>
     </g>
    </g>
    <g id="xtick_2">
     <g id="line2d_3">
      <path d="M 137.490481 307.584 
L 137.490481 41.472 
" clip-path="url(#p6c9c782d27)" style="fill: none; stroke: #b0b0b0; stroke-width: 0.8; stroke-linecap: square"/>
     </g>
     <g id="line2d_4">
      <g>
       <use xlink:href="#me03c205dcc" x="137.490481" y="307.584" style="stroke: #000000; stroke-width: 0.8"/>
      </g>
     </g>
     <g id="text_2">
      <!-- 50 -->
      <g transform="translate(131.127981 322.182437) scale(0.1 -0.1)">
       <defs>
        <path id="DejaVuSans-35" d="M 691 4666 
L 3169 4666 
L 3169 4134 
L 1269 4134 
L 1269 2991 
Q 1406 3038 1543 3061 
Q 1681 3084 1819 3084 
Q 2600 3084 3056 2656 
Q 3513 2228 3513 1497 
Q 3513 744 3044 326 
Q 2575 -91 1722 -91 
Q 1428 -91 1123 -41 
Q 819 9 494 109 
L 494 744 
Q 775 591 1075 516 
Q 1375 441 1709 441 
Q 2250 441 2565 725 
Q 2881 1009 2881 1497 
Q 2881 1984 2565 2268 
Q 2250 2553 1709 2553 
Q 1456 2553 1204 2497 
Q 953 2441 691 2322 
L 691 4666 
z
" transform="scale(0.015625)"/>
       </defs>
       <use xlink:href="#DejaVuSans-35"/>
       <use xlink:href="#DejaVuSans-30" x="63.623047"/>
      </g>
     </g>
    </g>
    <g id="xtick_3">
     <g id="line2d_5">
      <path d="M 201.148235 307.584 
L 201.148235 41.472 
" clip-path="url(#p6c9c782d27)" style="fill: none; stroke: #b0b0b0; stroke-width: 0.8; stroke-linecap: square"/>
     </g>
     <g id="line2d_6">
      <g>
       <use xlink:href="#me03c205dcc" x="201.148235" y="307.584" style="stroke: #000000; stroke-width: 0.8"/>
      </g>
     </g>
     <g id="text_3">
      <!-- 100 -->
      <g transform="translate(191.604485 322.182437) scale(0.1 -0.1)">
       <defs>
        <path id="DejaVuSans-31" d="M 794 531 
L 1825 531 
L 1825 4091 
L 703 3866 
L 703 4441 
L 1819 4666 
L 2450 4666 
L 2450 531 
L 3481 531 
L 3481 0 
L 794 0 
L 794 531 
z
" transform="scale(0.015625)"/>
       </defs>
       <use xlink:href="#DejaVuSans-31"/>
       <use xlink:href="#DejaVuSans-30" x="63.623047"/>
       <use xlink:href="#DejaVuSans-30" x="127.246094"/>
      </g>
     </g>
    </g>
    <g id="xtick_4">
     <g id="line2d_7">
      <path d="M 264.805989 307.584 
L 264.805989 41.472 
" clip-path="url(#p6c9c782d27)" style="fill: none; stroke: #b0b0b0; stroke-width: 0.8; stroke-linecap: square"/>
     </g>
     <g id="line2d_8">
      <g>
       <use xlink:href="#me03c205dcc" x="264.805989" y="307.584" style="stroke: #000000; stroke-width: 0.8"/>
      </g>
     </g>
     <g id="text_4">
      <!-- 150 -->
      <g transform="translate(255.262239 322.182437) scale(0.1 -0.1)">
       <use xlink:href="#DejaVuSans-31"/>
       <use xlink:href="#DejaVuSans-35" x="63.623047"/>
       <use xlink:href="#DejaVuSans-30" x="127.246094"/>
      </g>
     </g>
    </g>
    <g id="xtick_5">
     <g id="line2d_9">
      <path d="M 328.463743 307.584 
L 328.463743 41.472 
" clip-path="url(#p6c9c782d27)" style="fill: none; stroke: #b0b0b0; stroke-width: 0.8; stroke-linecap: square"/>
     </g>
     <g id="line2d_10">
      <g>
       <use xlink:href="#me03c205dcc" x="328.463743" y="307.584" style="stroke: #000000; stroke-width: 0.8"/>
      </g>
     </g>
     <g id="text_5">
      <!-- 200 -->
      <g transform="translate(318.919993 322.182437) scale(0.1 -0.1)">
       <defs>
        <path id="DejaVuSans-32" d="M 1228 531 
L 3431 531 
L 3431 0 
L 469 0 
L 469 531 
Q 828 903 1448 1529 
Q 2069 2156 2228 2338 
Q 2531 2678 2651 2914 
Q 2772 3150 2772 3378 
Q 2772 3750 2511 3984 
Q 2250 4219 1831 4219 
Q 1534 4219 1204 4116 
Q 875 4013 500 3803 
L 500 4441 
Q 881 4594 1212 4672 
Q 1544 4750 1819 4750 
Q 2544 4750 2975 4387 
Q 3406 4025 3406 3419 
Q 3406 3131 3298 2873 
Q 3191 2616 2906 2266 
Q 2828 2175 2409 1742 
Q 1991 1309 1228 531 
z
" transform="scale(0.015625)"/>
       </defs>
       <use xlink:href="#DejaVuSans-32"/>
       <use xlink:href="#DejaVuSans-30" x="63.623047"/>
       <use xlink:href="#DejaVuSans-30" x="127.246094"/>
      </g>
     </g>
    </g>
    <g id="xtick_6">
     <g id="line2d_11">
      <path d="M 392.121497 307.584 
L 392.121497 41.472 
" clip-path="url(#p6c9c782d27)" style="fill: none; stroke: #b0b0b0; stroke-width: 0.8; stroke-linecap: square"/>
     </g>
     <g id="line2d_12">
      <g>
       <use xlink:href="#me03c205dcc" x="392.121497" y="307.584" style="stroke: #000000; stroke-width: 0.8"/>
      </g>
     </g>
     <g id="text_6">
      <!-- 250 -->
      <g transform="translate(382.577747 322.182437) scale(0.1 -0.1)">
       <use xlink:href="#DejaVuSans-32"/>
       <use xlink:href="#DejaVuSans-35" x="63.623047"/>
       <use xlink:href="#DejaVuSans-30" x="127.246094"/>
      </g>
     </g>
    </g>
    <g id="text_7">
     <!-- samples -->
     <g transform="translate(215.376406 335.860562) scale(0.1 -0.1)">
      <defs>
       <path id="DejaVuSans-73" d="M 2834 3397 
L 2834 2853 
Q 2591 2978 2328 3040 
Q 2066 3103 1784 3103 
Q 1356 3103 1142 2972 
Q 928 2841 928 2578 
Q 928 2378 1081 2264 
Q 1234 2150 1697 2047 
L 1894 2003 
Q 2506 1872 2764 1633 
Q 3022 1394 3022 966 
Q 3022 478 2636 193 
Q 2250 -91 1575 -91 
Q 1294 -91 989 -36 
Q 684 19 347 128 
L 347 722 
Q 666 556 975 473 
Q 1284 391 1588 391 
Q 1994 391 2212 530 
Q 2431 669 2431 922 
Q 2431 1156 2273 1281 
Q 2116 1406 1581 1522 
L 1381 1569 
Q 847 1681 609 1914 
Q 372 2147 372 2553 
Q 372 3047 722 3315 
Q 1072 3584 1716 3584 
Q 2034 3584 2315 3537 
Q 2597 3491 2834 3397 
z
" transform="scale(0.015625)"/>
       <path id="DejaVuSans-61" d="M 2194 1759 
Q 1497 1759 1228 1600 
Q 959 1441 959 1056 
Q 959 750 1161 570 
Q 1363 391 1709 391 
Q 2188 391 2477 730 
Q 2766 1069 2766 1631 
L 2766 1759 
L 2194 1759 
z
M 3341 1997 
L 3341 0 
L 2766 0 
L 2766 531 
Q 2569 213 2275 61 
Q 1981 -91 1556 -91 
Q 1019 -91 701 211 
Q 384 513 384 1019 
Q 384 1609 779 1909 
Q 1175 2209 1959 2209 
L 2766 2209 
L 2766 2266 
Q 2766 2663 2505 2880 
Q 2244 3097 1772 3097 
Q 1472 3097 1187 3025 
Q 903 2953 641 2809 
L 641 3341 
Q 956 3463 1253 3523 
Q 1550 3584 1831 3584 
Q 2591 3584 2966 3190 
Q 3341 2797 3341 1997 
z
" transform="scale(0.015625)"/>
       <path id="DejaVuSans-6d" d="M 3328 2828 
Q 3544 3216 3844 3400 
Q 4144 3584 4550 3584 
Q 5097 3584 5394 3201 
Q 5691 2819 5691 2113 
L 5691 0 
L 5113 0 
L 5113 2094 
Q 5113 2597 4934 2840 
Q 4756 3084 4391 3084 
Q 3944 3084 3684 2787 
Q 3425 2491 3425 1978 
L 3425 0 
L 2847 0 
L 2847 2094 
Q 2847 2600 2669 2842 
Q 2491 3084 2119 3084 
Q 1678 3084 1418 2786 
Q 1159 2488 1159 1978 
L 1159 0 
L 581 0 
L 581 3500 
L 1159 3500 
L 1159 2956 
Q 1356 3278 1631 3431 
Q 1906 3584 2284 3584 
Q 2666 3584 2933 3390 
Q 3200 3197 3328 2828 
z
" transform="scale(0.015625)"/>
       <path id="DejaVuSans-70" d="M 1159 525 
L 1159 -1331 
L 581 -1331 
L 581 3500 
L 1159 3500 
L 1159 2969 
Q 1341 3281 1617 3432 
Q 1894 3584 2278 3584 
Q 2916 3584 3314 3078 
Q 3713 2572 3713 1747 
Q 3713 922 3314 415 
Q 2916 -91 2278 -91 
Q 1894 -91 1617 61 
Q 1341 213 1159 525 
z
M 3116 1747 
Q 3116 2381 2855 2742 
Q 2594 3103 2138 3103 
Q 1681 3103 1420 2742 
Q 1159 2381 1159 1747 
Q 1159 1113 1420 752 
Q 1681 391 2138 391 
Q 2594 391 2855 752 
Q 3116 1113 3116 1747 
z
" transform="scale(0.015625)"/>
       <path id="DejaVuSans-6c" d="M 603 4863 
L 1178 4863 
L 1178 0 
L 603 0 
L 603 4863 
z
" transform="scale(0.015625)"/>
       <path id="DejaVuSans-65" d="M 3597 1894 
L 3597 1613 
L 953 1613 
Q 991 1019 1311 708 
Q 1631 397 2203 397 
Q 2534 397 2845 478 
Q 3156 559 3463 722 
L 3463 178 
Q 3153 47 2828 -22 
Q 2503 -91 2169 -91 
Q 1331 -91 842 396 
Q 353 884 353 1716 
Q 353 2575 817 3079 
Q 1281 3584 2069 3584 
Q 2775 3584 3186 3129 
Q 3597 2675 3597 1894 
z
M 3022 2063 
Q 3016 2534 2758 2815 
Q 2500 3097 2075 3097 
Q 1594 3097 1305 2825 
Q 1016 2553 972 2059 
L 3022 2063 
z
" transform="scale(0.015625)"/>
      </defs>
      <use xlink:href="#DejaVuSans-73"/>
      <use xlink:href="#DejaVuSans-61" x="52.099609"/>
      <use xlink:href="#DejaVuSans-6d" x="113.378906"/>
      <use xlink:href="#DejaVuSans-70" x="210.791016"/>
      <use xlink:href="#DejaVuSans-6c" x="274.267578"/>
      <use xlink:href="#DejaVuSans-65" x="302.050781"/>
      <use xlink:href="#DejaVuSans-73" x="363.574219"/>
     </g>
    </g>
   </g>
   <g id="matplotlib.axis_2">
    <g id="ytick_1">
     <g id="line2d_13">
      <path d="M 57.6 298.313459 
L 414.72 298.313459 
" clip-path="url(#p6c9c782d27)" style="fill: none; stroke: #b0b0b0; stroke-width: 0.8; stroke-linecap: square"/>
     </g>
     <g id="line2d_14">
      <defs>
       <path id="m2de5e1d576" d="M 0 0 
L -3.5 0 
" style="stroke: #000000; stroke-width: 0.8"/>
      </defs>
      <g>
       <use xlink:href="#m2de5e1d576" x="57.6" y="298.313459" style="stroke: #000000; stroke-width: 0.8"/>
      </g>
     </g>
     <g id="text_8">
      <!-- −6 -->
      <g transform="translate(35.857813 302.112678) scale(0.1 -0.1)">
       <defs>
        <path id="DejaVuSans-2212" d="M 678 2272 
L 4684 2272 
L 4684 1741 
L 678 1741 
L 678 2272 
z
" transform="scale(0.015625)"/>
        <path id="DejaVuSans-36" d="M 2113 2584 
Q 1688 2584 1439 2293 
Q 1191 2003 1191 1497 
Q 1191 994 1439 701 
Q 1688 409 2113 409 
Q 2538 409 2786 701 
Q 3034 994 3034 1497 
Q 3034 2003 2786 2293 
Q 2538 2584 2113 2584 
z
M 3366 4563 
L 3366 3988 
Q 3128 4100 2886 4159 
Q 2644 4219 2406 4219 
Q 1781 4219 1451 3797 
Q 1122 3375 1075 2522 
Q 1259 2794 1537 2939 
Q 1816 3084 2150 3084 
Q 2853 3084 3261 2657 
Q 3669 2231 3669 1497 
Q 3669 778 3244 343 
Q 2819 -91 2113 -91 
Q 1303 -91 875 529 
Q 447 1150 447 2328 
Q 447 3434 972 4092 
Q 1497 4750 2381 4750 
Q 2619 4750 2861 4703 
Q 3103 4656 3366 4563 
z
" transform="scale(0.015625)"/>
       </defs>
       <use xlink:href="#DejaVuSans-2212"/>
       <use xlink:href="#DejaVuSans-36" x="83.789062"/>
      </g>
     </g>
    </g>
    <g id="ytick_2">
     <g id="line2d_15">
      <path d="M 57.6 257.338057 
L 414.72 257.338057 
" clip-path="url(#p6c9c782d27)" style="fill: none; stroke: #b0b0b0; stroke-width: 0.8; stroke-linecap: square"/>
     </g>
     <g id="line2d_16">
      <g>
       <use xlink:href="#m2de5e1d576" x="57.6" y="257.338057" style="stroke: #000000; stroke-width: 0.8"/>
      </g>
     </g>
     <g id="text_9">
      <!-- −4 -->
      <g transform="translate(35.857813 261.137276) scale(0.1 -0.1)">
       <defs>
        <path id="DejaVuSans-34" d="M 2419 4116 
L 825 1625 
L 2419 1625 
L 2419 4116 
z
M 2253 4666 
L 3047 4666 
L 3047 1625 
L 3713 1625 
L 3713 1100 
L 3047 1100 
L 3047 0 
L 2419 0 
L 2419 1100 
L 313 1100 
L 313 1709 
L 2253 4666 
z
" transform="scale(0.015625)"/>
       </defs>
       <use xlink:href="#DejaVuSans-2212"/>
       <use xlink:href="#DejaVuSans-34" x="83.789062"/>
      </g>
     </g>
    </g>
    <g id="ytick_3">
     <g id="line2d_17">
      <path d="M 57.6 216.362656 
L 414.72 216.362656 
" clip-path="url(#p6c9c782d27)" style="fill: none; stroke: #b0b0b0; stroke-width: 0.8; stroke-linecap: square"/>
     </g>
     <g id="line2d_18">
      <g>
       <use xlink:href="#m2de5e1d576" x="57.6" y="216.362656" style="stroke: #000000; stroke-width: 0.8"/>
      </g>
     </g>
     <g id="text_10">
      <!-- −2 -->
      <g transform="translate(35.857813 220.161874) scale(0.1 -0.1)">
       <use xlink:href="#DejaVuSans-2212"/>
       <use xlink:href="#DejaVuSans-32" x="83.789062"/>
      </g>
     </g>
    </g>
    <g id="ytick_4">
     <g id="line2d_19">
      <path d="M 57.6 175.387254 
L 414.72 175.387254 
" clip-path="url(#p6c9c782d27)" style="fill: none; stroke: #b0b0b0; stroke-width: 0.8; stroke-linecap: square"/>
     </g>
     <g id="line2d_20">
      <g>
       <use xlink:href="#m2de5e1d576" x="57.6" y="175.387254" style="stroke: #000000; stroke-width: 0.8"/>
      </g>
     </g>
     <g id="text_11">
      <!-- 0 -->
      <g transform="translate(44.2375 179.186473) scale(0.1 -0.1)">
       <use xlink:href="#DejaVuSans-30"/>
      </g>
     </g>
    </g>
    <g id="ytick_5">
     <g id="line2d_21">
      <path d="M 57.6 134.411853 
L 414.72 134.411853 
" clip-path="url(#p6c9c782d27)" style="fill: none; stroke: #b0b0b0; stroke-width: 0.8; stroke-linecap: square"/>
     </g>
     <g id="line2d_22">
      <g>
       <use xlink:href="#m2de5e1d576" x="57.6" y="134.411853" style="stroke: #000000; stroke-width: 0.8"/>
      </g>
     </g>
     <g id="text_12">
      <!-- 2 -->
      <g transform="translate(44.2375 138.211071) scale(0.1 -0.1)">
       <use xlink:href="#DejaVuSans-32"/>
      </g>
     </g>
    </g>
    <g id="ytick_6">
     <g id="line2d_23">
      <path d="M 57.6 93.436451 
L 414.72 93.436451 
" clip-path="url(#p6c9c782d27)" style="fill: none; stroke: #b0b0b0; stroke-width: 0.8; stroke-linecap: square"/>
     </g>
     <g id="line2d_24">
      <g>
       <use xlink:href="#m2de5e1d576" x="57.6" y="93.436451" style="stroke: #000000; stroke-width: 0.8"/>
      </g>
     </g>
     <g id="text_13">
      <!-- 4 -->
      <g transform="translate(44.2375 97.23567) scale(0.1 -0.1)">
       <use xlink:href="#DejaVuSans-34"/>
      </g>
     </g>
    </g>
    <g id="ytick_7">
     <g id="line2d_25">
      <path d="M 57.6 52.46105 
L 414.72 52.46105 
" clip-path="url(#p6c9c782d27)" style="fill: none; stroke: #b0b0b0; stroke-width: 0.8; stroke-linecap: square"/>
     </g>
     <g id="line2d_26">
      <g>
       <use xlink:href="#m2de5e1d576" x="57.6" y="52.46105" style="stroke: #000000; stroke-width: 0.8"/>
      </g>
     </g>
     <g id="text_14">
      <!-- 6 -->
      <g transform="translate(44.2375 56.260268) scale(0.1 -0.1)">
       <use xlink:href="#DejaVuSans-36"/>
      </g>
     </g>
    </g>
    <g id="text_15">
     <!-- N/A -->
     <g transform="translate(29.778125 183.373312) rotate(-90) scale(0.1 -0.1)">
      <defs>
       <path id="DejaVuSans-4e" d="M 628 4666 
L 1478 4666 
L 3547 763 
L 3547 4666 
L 4159 4666 
L 4159 0 
L 3309 0 
L 1241 3903 
L 1241 0 
L 628 0 
L 628 4666 
z
" transform="scale(0.015625)"/>
       <path id="DejaVuSans-2f" d="M 1625 4666 
L 2156 4666 
L 531 -594 
L 0 -594 
L 1625 4666 
z
" transform="scale(0.015625)"/>
       <path id="DejaVuSans-41" d="M 2188 4044 
L 1331 1722 
L 3047 1722 
L 2188 4044 
z
M 1831 4666 
L 2547 4666 
L 4325 0 
L 3669 0 
L 3244 1197 
L 1141 1197 
L 716 0 
L 50 0 
L 1831 4666 
z
" transform="scale(0.015625)"/>
      </defs>
      <use xlink:href="#DejaVuSans-4e"/>
      <use xlink:href="#DejaVuSans-2f" x="74.804688"/>
      <use xlink:href="#DejaVuSans-41" x="108.496094"/>
     </g>
    </g>
   </g>
   <g id="line2d_27">
    <path d="M 73.832727 77.056329 
L 75.105882 69.003229 
L 76.379037 61.933333 
L 77.652193 58.097216 
L 78.925348 57.776174 
L 80.198503 60.656335 
L 81.471658 65.236565 
L 82.744813 74.618088 
L 84.017968 81.803125 
L 86.564278 101.461074 
L 87.837433 115.494124 
L 90.383743 136.828787 
L 91.656898 152.387966 
L 92.930053 155.776427 
L 94.203209 162.714587 
L 95.476364 168.093633 
L 96.749519 171.280904 
L 98.022674 174.988154 
L 99.295829 173.621624 
L 100.568984 177.87651 
L 101.842139 180.295902 
L 103.115294 179.539087 
L 104.388449 189.486685 
L 105.661604 192.397168 
L 108.207914 208.60171 
L 109.48107 220.578615 
L 110.754225 236.137385 
L 112.02738 249.153016 
L 113.300535 258.794733 
L 114.57369 267.214973 
L 115.846845 277.469067 
L 117.12 284.17797 
L 118.393155 289.056501 
L 119.66631 295.343562 
L 120.939465 290.964725 
L 122.21262 290.066545 
L 123.485775 286.074926 
L 124.75893 278.140244 
L 126.032086 267.758921 
L 127.305241 266.080979 
L 128.578396 256.806606 
L 131.124706 248.485322 
L 132.397861 246.469742 
L 133.671016 247.692448 
L 134.944171 247.521171 
L 136.217326 247.155465 
L 137.490481 247.640614 
L 138.763636 247.708633 
L 140.036791 251.829119 
L 141.309947 242.739956 
L 142.583102 242.396582 
L 143.856257 233.876157 
L 145.129412 226.184255 
L 146.402567 221.267206 
L 147.675722 201.666008 
L 148.948877 189.095985 
L 150.222032 177.644179 
L 151.495187 164.038297 
L 152.768342 148.274855 
L 154.041497 136.237307 
L 155.314652 130.370859 
L 156.587807 119.379002 
L 157.860963 112.751026 
L 159.134118 103.450225 
L 160.407273 105.078587 
L 161.680428 102.629897 
L 162.953583 103.887227 
L 164.226738 101.717375 
L 165.499893 102.937008 
L 166.773048 107.98866 
L 168.046203 98.058271 
L 169.319358 109.217103 
L 170.592513 100.977974 
L 173.138824 87.85007 
L 174.411979 78.689609 
L 175.685134 72.499045 
L 176.958289 68.951805 
L 178.231444 64.249877 
L 179.504599 60.817778 
L 180.777754 53.568 
L 182.050909 57.516185 
L 183.324064 63.618651 
L 184.597219 70.541855 
L 185.870374 78.130909 
L 187.143529 86.930787 
L 188.416684 101.251075 
L 189.68984 111.466652 
L 192.23615 139.468217 
L 193.509305 146.183676 
L 194.78246 156.313819 
L 196.055615 163.036654 
L 197.32877 167.068018 
L 198.601925 171.867877 
L 199.87508 171.590883 
L 201.148235 174.167621 
L 202.42139 178.854798 
L 203.694545 178.73351 
L 204.967701 182.552213 
L 206.240856 185.861181 
L 207.514011 193.797297 
L 208.787166 198.708814 
L 212.606631 234.690543 
L 213.879786 247.605375 
L 215.152941 255.824426 
L 216.426096 267.447508 
L 217.699251 277.48136 
L 218.972406 283.004844 
L 220.245561 287.485914 
L 221.518717 291.256675 
L 222.791872 291.602098 
L 224.065027 290.710883 
L 225.338182 284.778669 
L 226.611337 279.621505 
L 227.884492 271.337918 
L 229.157647 264.547474 
L 230.430802 258.452178 
L 231.703957 251.361795 
L 232.977112 253.092801 
L 234.250267 245.625239 
L 235.523422 246.119812 
L 236.796578 243.542869 
L 238.069733 248.890159 
L 239.342888 250.578345 
L 240.616043 248.841193 
L 241.889198 247.632009 
L 243.162353 246.159148 
L 244.435508 240.685859 
L 245.708663 238.71781 
L 246.981818 227.897436 
L 248.254973 220.748458 
L 249.528128 204.292122 
L 250.801283 191.720459 
L 252.074439 180.333395 
L 253.347594 163.013707 
L 254.620749 150.860403 
L 255.893904 135.864021 
L 257.167059 124.166363 
L 258.440214 119.7402 
L 260.986524 103.730701 
L 262.259679 104.449615 
L 263.532834 101.996827 
L 264.805989 101.997237 
L 266.079144 100.452874 
L 267.352299 105.541404 
L 268.625455 102.984129 
L 269.89861 104.279772 
L 271.171765 103.179582 
L 272.44492 99.470284 
L 273.718075 94.693781 
L 274.99123 86.740866 
L 276.264385 80.958212 
L 277.53754 72.463397 
L 278.810695 68.708206 
L 280.08385 62.842168 
L 281.357005 61.200078 
L 282.63016 58.06587 
L 283.903316 60.271781 
L 285.176471 64.059137 
L 286.449626 70.379798 
L 287.722781 76.011457 
L 288.995936 90.042049 
L 290.269091 101.251075 
L 291.542246 110.888899 
L 292.815401 124.296255 
L 294.088556 136.180351 
L 295.361711 146.96774 
L 296.634866 149.951979 
L 297.908021 159.23598 
L 299.181176 164.838752 
L 300.454332 169.305685 
L 301.727487 173.181548 
L 303.000642 173.187285 
L 304.273797 175.735135 
L 306.820107 180.329502 
L 308.093262 183.622695 
L 309.366417 191.867561 
L 310.639572 199.142948 
L 311.912727 208.344794 
L 314.459037 233.043537 
L 315.732193 242.33389 
L 317.005348 258.158999 
L 318.278503 269.438708 
L 319.551658 279.576022 
L 320.824813 283.847913 
L 322.097968 290.261997 
L 323.371123 295.488 
L 324.644278 291.73117 
L 325.917433 286.965731 
L 327.190588 286.291071 
L 328.463743 279.365819 
L 329.736898 271.773486 
L 331.010053 265.440123 
L 332.283209 256.657456 
L 333.556364 255.435569 
L 334.829519 250.974782 
L 336.102674 248.442502 
L 337.375829 247.373454 
L 338.648984 245.859413 
L 339.922139 246.963495 
L 341.195294 245.804916 
L 342.468449 249.119621 
L 343.741604 248.801857 
L 345.014759 247.008568 
L 346.287914 243.6996 
L 347.56107 235.653465 
L 348.834225 229.095762 
L 350.10738 217.020926 
L 351.380535 210.323086 
L 352.65369 197.697541 
L 353.926845 180.061318 
L 356.473155 150.617419 
L 357.74631 135.865045 
L 359.019465 125.648648 
L 360.29262 120.750449 
L 361.565775 112.908986 
L 362.83893 106.977797 
L 364.112086 102.639321 
L 365.385241 102.364581 
L 366.658396 106.019792 
L 367.931551 105.411307 
L 369.204706 104.661662 
L 370.477861 105.204791 
L 371.751016 104.752628 
L 373.024171 101.871237 
L 374.297326 101.547942 
L 375.570481 97.81119 
L 376.843636 86.236663 
L 378.116791 85.210844 
L 379.389947 75.029071 
L 380.663102 70.582421 
L 381.936257 61.522555 
L 383.209412 62.389799 
L 384.482567 58.706315 
L 385.755722 58.555731 
L 387.028877 61.540174 
L 388.302032 66.349047 
L 389.575187 79.491907 
L 390.848342 88.103912 
L 392.121497 101.368264 
L 393.394652 112.825192 
L 394.667807 121.11472 
L 395.940963 136.250214 
L 397.214118 148.653058 
L 398.487273 154.967573 
L 398.487273 154.967573 
" clip-path="url(#p6c9c782d27)" style="fill: none; stroke: #0000ff; stroke-width: 1.5; stroke-linecap: square"/>
   </g>
   <g id="line2d_28">
    <defs>
     <path id="mec13cd8182" d="M -3 0 
L 3 0 
M 0 3 
L 0 -3 
" style="stroke: #ff0000"/>
    </defs>
    <g clip-path="url(#p6c9c782d27)">
     <use xlink:href="#mec13cd8182" x="73.832727" y="54.714697" style="fill: #ff0000; stroke: #ff0000"/>
     <use xlink:href="#mec13cd8182" x="75.105882" y="71.924365" style="fill: #ff0000; stroke: #ff0000"/>
     <use xlink:href="#mec13cd8182" x="76.379037" y="85.651125" style="fill: #ff0000; stroke: #ff0000"/>
     <use xlink:href="#mec13cd8182" x="77.652193" y="81.963339" style="fill: #ff0000; stroke: #ff0000"/>
     <use xlink:href="#mec13cd8182" x="78.925348" y="68.646333" style="fill: #ff0000; stroke: #ff0000"/>
     <use xlink:href="#mec13cd8182" x="80.198503" y="62.7049" style="fill: #ff0000; stroke: #ff0000"/>
     <use xlink:href="#mec13cd8182" x="81.471658" y="67.007317" style="fill: #ff0000; stroke: #ff0000"/>
     <use xlink:href="#mec13cd8182" x="82.744813" y="72.538996" style="fill: #ff0000; stroke: #ff0000"/>
     <use xlink:href="#mec13cd8182" x="84.017968" y="75.407274" style="fill: #ff0000; stroke: #ff0000"/>
     <use xlink:href="#mec13cd8182" x="85.291123" y="82.168216" style="fill: #ff0000; stroke: #ff0000"/>
     <use xlink:href="#mec13cd8182" x="86.564278" y="96.91936" style="fill: #ff0000; stroke: #ff0000"/>
     <use xlink:href="#mec13cd8182" x="87.837433" y="113.924152" style="fill: #ff0000; stroke: #ff0000"/>
     <use xlink:href="#mec13cd8182" x="89.110588" y="126.216772" style="fill: #ff0000; stroke: #ff0000"/>
     <use xlink:href="#mec13cd8182" x="90.383743" y="135.231361" style="fill: #ff0000; stroke: #ff0000"/>
     <use xlink:href="#mec13cd8182" x="91.656898" y="144.86058" style="fill: #ff0000; stroke: #ff0000"/>
     <use xlink:href="#mec13cd8182" x="92.930053" y="153.05566" style="fill: #ff0000; stroke: #ff0000"/>
     <use xlink:href="#mec13cd8182" x="94.203209" y="165.471207" style="fill: #ff0000; stroke: #ff0000"/>
     <use xlink:href="#mec13cd8182" x="95.476364" y="173.072144" style="fill: #ff0000; stroke: #ff0000"/>
     <use xlink:href="#mec13cd8182" x="96.749519" y="180.447716" style="fill: #ff0000; stroke: #ff0000"/>
     <use xlink:href="#mec13cd8182" x="98.022674" y="180.898446" style="fill: #ff0000; stroke: #ff0000"/>
     <use xlink:href="#mec13cd8182" x="99.295829" y="175.989593" style="fill: #ff0000; stroke: #ff0000"/>
     <use xlink:href="#mec13cd8182" x="100.568984" y="173.031169" style="fill: #ff0000; stroke: #ff0000"/>
     <use xlink:href="#mec13cd8182" x="101.842139" y="176.378859" style="fill: #ff0000; stroke: #ff0000"/>
     <use xlink:href="#mec13cd8182" x="103.115294" y="183.664285" style="fill: #ff0000; stroke: #ff0000"/>
     <use xlink:href="#mec13cd8182" x="104.388449" y="190.425227" style="fill: #ff0000; stroke: #ff0000"/>
     <use xlink:href="#mec13cd8182" x="105.661604" y="196.694463" style="fill: #ff0000; stroke: #ff0000"/>
     <use xlink:href="#mec13cd8182" x="106.934759" y="206.528559" style="fill: #ff0000; stroke: #ff0000"/>
     <use xlink:href="#mec13cd8182" x="108.207914" y="221.279704" style="fill: #ff0000; stroke: #ff0000"/>
     <use xlink:href="#mec13cd8182" x="109.48107" y="236.235725" style="fill: #ff0000; stroke: #ff0000"/>
     <use xlink:href="#mec13cd8182" x="110.754225" y="244.225929" style="fill: #ff0000; stroke: #ff0000"/>
     <use xlink:href="#mec13cd8182" x="112.02738" y="243.611298" style="fill: #ff0000; stroke: #ff0000"/>
     <use xlink:href="#mec13cd8182" x="113.300535" y="239.923512" style="fill: #ff0000; stroke: #ff0000"/>
     <use xlink:href="#mec13cd8182" x="114.57369" y="281.718421" style="fill: #ff0000; stroke: #ff0000"/>
     <use xlink:href="#mec13cd8182" x="115.846845" y="282.742806" style="fill: #ff0000; stroke: #ff0000"/>
     <use xlink:href="#mec13cd8182" x="117.12" y="283.972068" style="fill: #ff0000; stroke: #ff0000"/>
     <use xlink:href="#mec13cd8182" x="118.393155" y="284.791576" style="fill: #ff0000; stroke: #ff0000"/>
     <use xlink:href="#mec13cd8182" x="119.66631" y="284.996453" style="fill: #ff0000; stroke: #ff0000"/>
     <use xlink:href="#mec13cd8182" x="120.939465" y="284.586699" style="fill: #ff0000; stroke: #ff0000"/>
     <use xlink:href="#mec13cd8182" x="122.21262" y="283.15256" style="fill: #ff0000; stroke: #ff0000"/>
     <use xlink:href="#mec13cd8182" x="123.485775" y="280.284282" style="fill: #ff0000; stroke: #ff0000"/>
     <use xlink:href="#mec13cd8182" x="124.75893" y="276.391619" style="fill: #ff0000; stroke: #ff0000"/>
     <use xlink:href="#mec13cd8182" x="126.032086" y="271.269694" style="fill: #ff0000; stroke: #ff0000"/>
     <use xlink:href="#mec13cd8182" x="127.305241" y="265.738015" style="fill: #ff0000; stroke: #ff0000"/>
     <use xlink:href="#mec13cd8182" x="128.578396" y="260.001458" style="fill: #ff0000; stroke: #ff0000"/>
     <use xlink:href="#mec13cd8182" x="129.851551" y="254.264902" style="fill: #ff0000; stroke: #ff0000"/>
     <use xlink:href="#mec13cd8182" x="131.124706" y="249.552731" style="fill: #ff0000; stroke: #ff0000"/>
     <use xlink:href="#mec13cd8182" x="132.397861" y="246.479576" style="fill: #ff0000; stroke: #ff0000"/>
     <use xlink:href="#mec13cd8182" x="133.671016" y="244.84056" style="fill: #ff0000; stroke: #ff0000"/>
     <use xlink:href="#mec13cd8182" x="134.944171" y="235.006463" style="fill: #ff0000; stroke: #ff0000"/>
     <use xlink:href="#mec13cd8182" x="136.217326" y="246.88933" style="fill: #ff0000; stroke: #ff0000"/>
     <use xlink:href="#mec13cd8182" x="137.490481" y="256.518549" style="fill: #ff0000; stroke: #ff0000"/>
     <use xlink:href="#mec13cd8182" x="138.763636" y="255.494164" style="fill: #ff0000; stroke: #ff0000"/>
     <use xlink:href="#mec13cd8182" x="140.036791" y="249.142977" style="fill: #ff0000; stroke: #ff0000"/>
     <use xlink:href="#mec13cd8182" x="141.309947" y="246.069822" style="fill: #ff0000; stroke: #ff0000"/>
     <use xlink:href="#mec13cd8182" x="142.583102" y="244.225929" style="fill: #ff0000; stroke: #ff0000"/>
     <use xlink:href="#mec13cd8182" x="143.856257" y="236.235725" style="fill: #ff0000; stroke: #ff0000"/>
     <use xlink:href="#mec13cd8182" x="145.129412" y="222.304089" style="fill: #ff0000; stroke: #ff0000"/>
     <use xlink:href="#mec13cd8182" x="146.402567" y="210.011468" style="fill: #ff0000; stroke: #ff0000"/>
     <use xlink:href="#mec13cd8182" x="147.675722" y="199.972495" style="fill: #ff0000; stroke: #ff0000"/>
     <use xlink:href="#mec13cd8182" x="148.948877" y="186.348174" style="fill: #ff0000; stroke: #ff0000"/>
     <use xlink:href="#mec13cd8182" x="150.222032" y="168.339485" style="fill: #ff0000; stroke: #ff0000"/>
     <use xlink:href="#mec13cd8182" x="151.495187" y="156.067352" style="fill: #ff0000; stroke: #ff0000"/>
     <use xlink:href="#mec13cd8182" x="152.768342" y="157.009787" style="fill: #ff0000; stroke: #ff0000"/>
     <use xlink:href="#mec13cd8182" x="154.041497" y="163.873166" style="fill: #ff0000; stroke: #ff0000"/>
     <use xlink:href="#mec13cd8182" x="155.314652" y="102.860793" style="fill: #ff0000; stroke: #ff0000"/>
     <use xlink:href="#mec13cd8182" x="156.587807" y="113.719275" style="fill: #ff0000; stroke: #ff0000"/>
     <use xlink:href="#mec13cd8182" x="157.860963" y="121.914355" style="fill: #ff0000; stroke: #ff0000"/>
     <use xlink:href="#mec13cd8182" x="159.134118" y="119.250954" style="fill: #ff0000; stroke: #ff0000"/>
     <use xlink:href="#mec13cd8182" x="160.407273" y="112.080259" style="fill: #ff0000; stroke: #ff0000"/>
     <use xlink:href="#mec13cd8182" x="161.680428" y="109.621735" style="fill: #ff0000; stroke: #ff0000"/>
     <use xlink:href="#mec13cd8182" x="162.953583" y="110.236366" style="fill: #ff0000; stroke: #ff0000"/>
     <use xlink:href="#mec13cd8182" x="164.226738" y="106.958334" style="fill: #ff0000; stroke: #ff0000"/>
     <use xlink:href="#mec13cd8182" x="165.499893" y="100.197392" style="fill: #ff0000; stroke: #ff0000"/>
     <use xlink:href="#mec13cd8182" x="166.773048" y="96.91936" style="fill: #ff0000; stroke: #ff0000"/>
     <use xlink:href="#mec13cd8182" x="168.046203" y="97.533991" style="fill: #ff0000; stroke: #ff0000"/>
     <use xlink:href="#mec13cd8182" x="169.319358" y="95.075467" style="fill: #ff0000; stroke: #ff0000"/>
     <use xlink:href="#mec13cd8182" x="170.592513" y="87.904772" style="fill: #ff0000; stroke: #ff0000"/>
     <use xlink:href="#mec13cd8182" x="171.865668" y="85.241371" style="fill: #ff0000; stroke: #ff0000"/>
     <use xlink:href="#mec13cd8182" x="173.138824" y="93.231574" style="fill: #ff0000; stroke: #ff0000"/>
     <use xlink:href="#mec13cd8182" x="174.411979" y="103.885178" style="fill: #ff0000; stroke: #ff0000"/>
     <use xlink:href="#mec13cd8182" x="175.685134" y="58.402483" style="fill: #ff0000; stroke: #ff0000"/>
     <use xlink:href="#mec13cd8182" x="176.958289" y="69.670718" style="fill: #ff0000; stroke: #ff0000"/>
     <use xlink:href="#mec13cd8182" x="178.231444" y="81.143831" style="fill: #ff0000; stroke: #ff0000"/>
     <use xlink:href="#mec13cd8182" x="179.504599" y="82.373093" style="fill: #ff0000; stroke: #ff0000"/>
     <use xlink:href="#mec13cd8182" x="180.777754" y="73.358504" style="fill: #ff0000; stroke: #ff0000"/>
     <use xlink:href="#mec13cd8182" x="182.050909" y="64.139039" style="fill: #ff0000; stroke: #ff0000"/>
     <use xlink:href="#mec13cd8182" x="183.324064" y="62.909777" style="fill: #ff0000; stroke: #ff0000"/>
     <use xlink:href="#mec13cd8182" x="184.597219" y="69.465841" style="fill: #ff0000; stroke: #ff0000"/>
     <use xlink:href="#mec13cd8182" x="185.870374" y="78.48043" style="fill: #ff0000; stroke: #ff0000"/>
     <use xlink:href="#mec13cd8182" x="187.143529" y="86.265756" style="fill: #ff0000; stroke: #ff0000"/>
     <use xlink:href="#mec13cd8182" x="188.416684" y="95.280344" style="fill: #ff0000; stroke: #ff0000"/>
     <use xlink:href="#mec13cd8182" x="189.68984" y="109.007104" style="fill: #ff0000; stroke: #ff0000"/>
     <use xlink:href="#mec13cd8182" x="190.962995" y="125.602141" style="fill: #ff0000; stroke: #ff0000"/>
     <use xlink:href="#mec13cd8182" x="192.23615" y="139.533778" style="fill: #ff0000; stroke: #ff0000"/>
     <use xlink:href="#mec13cd8182" x="193.509305" y="146.90935" style="fill: #ff0000; stroke: #ff0000"/>
     <use xlink:href="#mec13cd8182" x="194.78246" y="149.162997" style="fill: #ff0000; stroke: #ff0000"/>
     <use xlink:href="#mec13cd8182" x="196.055615" y="154.080045" style="fill: #ff0000; stroke: #ff0000"/>
     <use xlink:href="#mec13cd8182" x="197.32877" y="163.873166" style="fill: #ff0000; stroke: #ff0000"/>
     <use xlink:href="#mec13cd8182" x="198.601925" y="174.870964" style="fill: #ff0000; stroke: #ff0000"/>
     <use xlink:href="#mec13cd8182" x="199.87508" y="179.013577" style="fill: #ff0000; stroke: #ff0000"/>
     <use xlink:href="#mec13cd8182" x="201.148235" y="176.772223" style="fill: #ff0000; stroke: #ff0000"/>
     <use xlink:href="#mec13cd8182" x="202.42139" y="174.616917" style="fill: #ff0000; stroke: #ff0000"/>
     <use xlink:href="#mec13cd8182" x="203.694545" y="176.569395" style="fill: #ff0000; stroke: #ff0000"/>
     <use xlink:href="#mec13cd8182" x="204.967701" y="180.550155" style="fill: #ff0000; stroke: #ff0000"/>
     <use xlink:href="#mec13cd8182" x="206.240856" y="183.275019" style="fill: #ff0000; stroke: #ff0000"/>
     <use xlink:href="#mec13cd8182" x="207.514011" y="186.225248" style="fill: #ff0000; stroke: #ff0000"/>
     <use xlink:href="#mec13cd8182" x="208.787166" y="194.604717" style="fill: #ff0000; stroke: #ff0000"/>
     <use xlink:href="#mec13cd8182" x="210.060321" y="210.216345" style="fill: #ff0000; stroke: #ff0000"/>
     <use xlink:href="#mec13cd8182" x="211.333476" y="227.835768" style="fill: #ff0000; stroke: #ff0000"/>
     <use xlink:href="#mec13cd8182" x="212.606631" y="239.513758" style="fill: #ff0000; stroke: #ff0000"/>
     <use xlink:href="#mec13cd8182" x="213.879786" y="242.586913" style="fill: #ff0000; stroke: #ff0000"/>
     <use xlink:href="#mec13cd8182" x="215.152941" y="241.152774" style="fill: #ff0000; stroke: #ff0000"/>
     <use xlink:href="#mec13cd8182" x="216.426096" y="281.513544" style="fill: #ff0000; stroke: #ff0000"/>
     <use xlink:href="#mec13cd8182" x="217.699251" y="282.537929" style="fill: #ff0000; stroke: #ff0000"/>
     <use xlink:href="#mec13cd8182" x="218.972406" y="283.972068" style="fill: #ff0000; stroke: #ff0000"/>
     <use xlink:href="#mec13cd8182" x="220.245561" y="284.791576" style="fill: #ff0000; stroke: #ff0000"/>
     <use xlink:href="#mec13cd8182" x="221.518717" y="285.20133" style="fill: #ff0000; stroke: #ff0000"/>
     <use xlink:href="#mec13cd8182" x="222.791872" y="284.791576" style="fill: #ff0000; stroke: #ff0000"/>
     <use xlink:href="#mec13cd8182" x="224.065027" y="283.357437" style="fill: #ff0000; stroke: #ff0000"/>
     <use xlink:href="#mec13cd8182" x="225.338182" y="280.489159" style="fill: #ff0000; stroke: #ff0000"/>
     <use xlink:href="#mec13cd8182" x="226.611337" y="276.186742" style="fill: #ff0000; stroke: #ff0000"/>
     <use xlink:href="#mec13cd8182" x="227.884492" y="271.064817" style="fill: #ff0000; stroke: #ff0000"/>
     <use xlink:href="#mec13cd8182" x="229.157647" y="265.738015" style="fill: #ff0000; stroke: #ff0000"/>
     <use xlink:href="#mec13cd8182" x="230.430802" y="260.001458" style="fill: #ff0000; stroke: #ff0000"/>
     <use xlink:href="#mec13cd8182" x="231.703957" y="254.469779" style="fill: #ff0000; stroke: #ff0000"/>
     <use xlink:href="#mec13cd8182" x="232.977112" y="249.757608" style="fill: #ff0000; stroke: #ff0000"/>
     <use xlink:href="#mec13cd8182" x="234.250267" y="246.479576" style="fill: #ff0000; stroke: #ff0000"/>
     <use xlink:href="#mec13cd8182" x="235.523422" y="244.84056" style="fill: #ff0000; stroke: #ff0000"/>
     <use xlink:href="#mec13cd8182" x="236.796578" y="238.69425" style="fill: #ff0000; stroke: #ff0000"/>
     <use xlink:href="#mec13cd8182" x="238.069733" y="244.635683" style="fill: #ff0000; stroke: #ff0000"/>
     <use xlink:href="#mec13cd8182" x="239.342888" y="252.216132" style="fill: #ff0000; stroke: #ff0000"/>
     <use xlink:href="#mec13cd8182" x="240.616043" y="255.903918" style="fill: #ff0000; stroke: #ff0000"/>
     <use xlink:href="#mec13cd8182" x="241.889198" y="253.855148" style="fill: #ff0000; stroke: #ff0000"/>
     <use xlink:href="#mec13cd8182" x="243.162353" y="247.299084" style="fill: #ff0000; stroke: #ff0000"/>
     <use xlink:href="#mec13cd8182" x="244.435508" y="239.923512" style="fill: #ff0000; stroke: #ff0000"/>
     <use xlink:href="#mec13cd8182" x="245.708663" y="233.16257" style="fill: #ff0000; stroke: #ff0000"/>
     <use xlink:href="#mec13cd8182" x="246.981818" y="225.377244" style="fill: #ff0000; stroke: #ff0000"/>
     <use xlink:href="#mec13cd8182" x="248.254973" y="214.109009" style="fill: #ff0000; stroke: #ff0000"/>
     <use xlink:href="#mec13cd8182" x="249.528128" y="198.538356" style="fill: #ff0000; stroke: #ff0000"/>
     <use xlink:href="#mec13cd8182" x="250.801283" y="181.513077" style="fill: #ff0000; stroke: #ff0000"/>
     <use xlink:href="#mec13cd8182" x="252.074439" y="167.888756" style="fill: #ff0000; stroke: #ff0000"/>
     <use xlink:href="#mec13cd8182" x="253.347594" y="160.71806" style="fill: #ff0000; stroke: #ff0000"/>
     <use xlink:href="#mec13cd8182" x="254.620749" y="159.345384" style="fill: #ff0000; stroke: #ff0000"/>
     <use xlink:href="#mec13cd8182" x="255.893904" y="160.246843" style="fill: #ff0000; stroke: #ff0000"/>
     <use xlink:href="#mec13cd8182" x="257.167059" y="119.250954" style="fill: #ff0000; stroke: #ff0000"/>
     <use xlink:href="#mec13cd8182" x="258.440214" y="127.241157" style="fill: #ff0000; stroke: #ff0000"/>
     <use xlink:href="#mec13cd8182" x="259.713369" y="130.109435" style="fill: #ff0000; stroke: #ff0000"/>
     <use xlink:href="#mec13cd8182" x="260.986524" y="120.480216" style="fill: #ff0000; stroke: #ff0000"/>
     <use xlink:href="#mec13cd8182" x="262.259679" y="106.343703" style="fill: #ff0000; stroke: #ff0000"/>
     <use xlink:href="#mec13cd8182" x="263.532834" y="99.582761" style="fill: #ff0000; stroke: #ff0000"/>
     <use xlink:href="#mec13cd8182" x="264.805989" y="100.402269" style="fill: #ff0000; stroke: #ff0000"/>
     <use xlink:href="#mec13cd8182" x="266.079144" y="102.655916" style="fill: #ff0000; stroke: #ff0000"/>
     <use xlink:href="#mec13cd8182" x="267.352299" y="105.729072" style="fill: #ff0000; stroke: #ff0000"/>
     <use xlink:href="#mec13cd8182" x="268.625455" y="112.899767" style="fill: #ff0000; stroke: #ff0000"/>
     <use xlink:href="#mec13cd8182" x="269.89861" y="120.88997" style="fill: #ff0000; stroke: #ff0000"/>
     <use xlink:href="#mec13cd8182" x="271.171765" y="119.046077" style="fill: #ff0000; stroke: #ff0000"/>
     <use xlink:href="#mec13cd8182" x="272.44492" y="104.909564" style="fill: #ff0000; stroke: #ff0000"/>
     <use xlink:href="#mec13cd8182" x="273.718075" y="90.158419" style="fill: #ff0000; stroke: #ff0000"/>
     <use xlink:href="#mec13cd8182" x="274.99123" y="85.446248" style="fill: #ff0000; stroke: #ff0000"/>
     <use xlink:href="#mec13cd8182" x="276.264385" y="88.314526" style="fill: #ff0000; stroke: #ff0000"/>
     <use xlink:href="#mec13cd8182" x="277.53754" y="54.714697" style="fill: #ff0000; stroke: #ff0000"/>
     <use xlink:href="#mec13cd8182" x="278.810695" y="71.924365" style="fill: #ff0000; stroke: #ff0000"/>
     <use xlink:href="#mec13cd8182" x="280.08385" y="85.651125" style="fill: #ff0000; stroke: #ff0000"/>
     <use xlink:href="#mec13cd8182" x="281.357005" y="81.963339" style="fill: #ff0000; stroke: #ff0000"/>
     <use xlink:href="#mec13cd8182" x="282.63016" y="68.646333" style="fill: #ff0000; stroke: #ff0000"/>
     <use xlink:href="#mec13cd8182" x="283.903316" y="62.7049" style="fill: #ff0000; stroke: #ff0000"/>
     <use xlink:href="#mec13cd8182" x="285.176471" y="66.80244" style="fill: #ff0000; stroke: #ff0000"/>
     <use xlink:href="#mec13cd8182" x="286.449626" y="72.334119" style="fill: #ff0000; stroke: #ff0000"/>
     <use xlink:href="#mec13cd8182" x="287.722781" y="75.202397" style="fill: #ff0000; stroke: #ff0000"/>
     <use xlink:href="#mec13cd8182" x="288.995936" y="81.963339" style="fill: #ff0000; stroke: #ff0000"/>
     <use xlink:href="#mec13cd8182" x="290.269091" y="96.509606" style="fill: #ff0000; stroke: #ff0000"/>
     <use xlink:href="#mec13cd8182" x="291.542246" y="113.514398" style="fill: #ff0000; stroke: #ff0000"/>
     <use xlink:href="#mec13cd8182" x="292.815401" y="126.011895" style="fill: #ff0000; stroke: #ff0000"/>
     <use xlink:href="#mec13cd8182" x="294.088556" y="134.821607" style="fill: #ff0000; stroke: #ff0000"/>
     <use xlink:href="#mec13cd8182" x="295.361711" y="144.450826" style="fill: #ff0000; stroke: #ff0000"/>
     <use xlink:href="#mec13cd8182" x="296.634866" y="152.441029" style="fill: #ff0000; stroke: #ff0000"/>
     <use xlink:href="#mec13cd8182" x="297.908021" y="160.656597" style="fill: #ff0000; stroke: #ff0000"/>
     <use xlink:href="#mec13cd8182" x="299.181176" y="168.073145" style="fill: #ff0000; stroke: #ff0000"/>
     <use xlink:href="#mec13cd8182" x="300.454332" y="175.320055" style="fill: #ff0000; stroke: #ff0000"/>
     <use xlink:href="#mec13cd8182" x="301.727487" y="175.819545" style="fill: #ff0000; stroke: #ff0000"/>
     <use xlink:href="#mec13cd8182" x="303.000642" y="171.023374" style="fill: #ff0000; stroke: #ff0000"/>
     <use xlink:href="#mec13cd8182" x="304.273797" y="168.011682" style="fill: #ff0000; stroke: #ff0000"/>
     <use xlink:href="#mec13cd8182" x="305.546952" y="171.269226" style="fill: #ff0000; stroke: #ff0000"/>
     <use xlink:href="#mec13cd8182" x="306.820107" y="178.521872" style="fill: #ff0000; stroke: #ff0000"/>
     <use xlink:href="#mec13cd8182" x="308.093262" y="185.323789" style="fill: #ff0000; stroke: #ff0000"/>
     <use xlink:href="#mec13cd8182" x="309.366417" y="191.531562" style="fill: #ff0000; stroke: #ff0000"/>
     <use xlink:href="#mec13cd8182" x="310.639572" y="201.201757" style="fill: #ff0000; stroke: #ff0000"/>
     <use xlink:href="#mec13cd8182" x="311.912727" y="215.952902" style="fill: #ff0000; stroke: #ff0000"/>
     <use xlink:href="#mec13cd8182" x="313.185882" y="231.1138" style="fill: #ff0000; stroke: #ff0000"/>
     <use xlink:href="#mec13cd8182" x="314.459037" y="239.104004" style="fill: #ff0000; stroke: #ff0000"/>
     <use xlink:href="#mec13cd8182" x="315.732193" y="238.284496" style="fill: #ff0000; stroke: #ff0000"/>
     <use xlink:href="#mec13cd8182" x="317.005348" y="234.391832" style="fill: #ff0000; stroke: #ff0000"/>
     <use xlink:href="#mec13cd8182" x="318.278503" y="281.513544" style="fill: #ff0000; stroke: #ff0000"/>
     <use xlink:href="#mec13cd8182" x="319.551658" y="282.333052" style="fill: #ff0000; stroke: #ff0000"/>
     <use xlink:href="#mec13cd8182" x="320.824813" y="283.767191" style="fill: #ff0000; stroke: #ff0000"/>
     <use xlink:href="#mec13cd8182" x="322.097968" y="284.791576" style="fill: #ff0000; stroke: #ff0000"/>
     <use xlink:href="#mec13cd8182" x="323.371123" y="285.406207" style="fill: #ff0000; stroke: #ff0000"/>
     <use xlink:href="#mec13cd8182" x="324.644278" y="284.996453" style="fill: #ff0000; stroke: #ff0000"/>
     <use xlink:href="#mec13cd8182" x="325.917433" y="283.357437" style="fill: #ff0000; stroke: #ff0000"/>
     <use xlink:href="#mec13cd8182" x="327.190588" y="280.489159" style="fill: #ff0000; stroke: #ff0000"/>
     <use xlink:href="#mec13cd8182" x="328.463743" y="276.391619" style="fill: #ff0000; stroke: #ff0000"/>
     <use xlink:href="#mec13cd8182" x="329.736898" y="271.269694" style="fill: #ff0000; stroke: #ff0000"/>
     <use xlink:href="#mec13cd8182" x="331.010053" y="265.738015" style="fill: #ff0000; stroke: #ff0000"/>
     <use xlink:href="#mec13cd8182" x="332.283209" y="260.001458" style="fill: #ff0000; stroke: #ff0000"/>
     <use xlink:href="#mec13cd8182" x="333.556364" y="254.469779" style="fill: #ff0000; stroke: #ff0000"/>
     <use xlink:href="#mec13cd8182" x="334.829519" y="249.757608" style="fill: #ff0000; stroke: #ff0000"/>
     <use xlink:href="#mec13cd8182" x="336.102674" y="246.274699" style="fill: #ff0000; stroke: #ff0000"/>
     <use xlink:href="#mec13cd8182" x="337.375829" y="244.430806" style="fill: #ff0000; stroke: #ff0000"/>
     <use xlink:href="#mec13cd8182" x="338.648984" y="238.489373" style="fill: #ff0000; stroke: #ff0000"/>
     <use xlink:href="#mec13cd8182" x="339.922139" y="244.635683" style="fill: #ff0000; stroke: #ff0000"/>
     <use xlink:href="#mec13cd8182" x="341.195294" y="252.011255" style="fill: #ff0000; stroke: #ff0000"/>
     <use xlink:href="#mec13cd8182" x="342.468449" y="255.903918" style="fill: #ff0000; stroke: #ff0000"/>
     <use xlink:href="#mec13cd8182" x="343.741604" y="253.855148" style="fill: #ff0000; stroke: #ff0000"/>
     <use xlink:href="#mec13cd8182" x="345.014759" y="247.503961" style="fill: #ff0000; stroke: #ff0000"/>
     <use xlink:href="#mec13cd8182" x="346.287914" y="240.128389" style="fill: #ff0000; stroke: #ff0000"/>
     <use xlink:href="#mec13cd8182" x="347.56107" y="233.16257" style="fill: #ff0000; stroke: #ff0000"/>
     <use xlink:href="#mec13cd8182" x="348.834225" y="225.172367" style="fill: #ff0000; stroke: #ff0000"/>
     <use xlink:href="#mec13cd8182" x="350.10738" y="214.109009" style="fill: #ff0000; stroke: #ff0000"/>
     <use xlink:href="#mec13cd8182" x="351.380535" y="198.743233" style="fill: #ff0000; stroke: #ff0000"/>
     <use xlink:href="#mec13cd8182" x="352.65369" y="181.799905" style="fill: #ff0000; stroke: #ff0000"/>
     <use xlink:href="#mec13cd8182" x="353.926845" y="167.909243" style="fill: #ff0000; stroke: #ff0000"/>
     <use xlink:href="#mec13cd8182" x="355.2" y="160.492696" style="fill: #ff0000; stroke: #ff0000"/>
     <use xlink:href="#mec13cd8182" x="356.473155" y="159.160995" style="fill: #ff0000; stroke: #ff0000"/>
     <use xlink:href="#mec13cd8182" x="357.74631" y="160.205868" style="fill: #ff0000; stroke: #ff0000"/>
     <use xlink:href="#mec13cd8182" x="359.019465" y="114.74366" style="fill: #ff0000; stroke: #ff0000"/>
     <use xlink:href="#mec13cd8182" x="360.29262" y="122.528986" style="fill: #ff0000; stroke: #ff0000"/>
     <use xlink:href="#mec13cd8182" x="361.565775" y="125.397264" style="fill: #ff0000; stroke: #ff0000"/>
     <use xlink:href="#mec13cd8182" x="362.83893" y="115.768045" style="fill: #ff0000; stroke: #ff0000"/>
     <use xlink:href="#mec13cd8182" x="364.112086" y="101.631531" style="fill: #ff0000; stroke: #ff0000"/>
     <use xlink:href="#mec13cd8182" x="365.385241" y="94.87059" style="fill: #ff0000; stroke: #ff0000"/>
     <use xlink:href="#mec13cd8182" x="366.658396" y="95.485221" style="fill: #ff0000; stroke: #ff0000"/>
     <use xlink:href="#mec13cd8182" x="367.931551" y="97.738868" style="fill: #ff0000; stroke: #ff0000"/>
     <use xlink:href="#mec13cd8182" x="369.204706" y="100.812023" style="fill: #ff0000; stroke: #ff0000"/>
     <use xlink:href="#mec13cd8182" x="370.477861" y="108.187596" style="fill: #ff0000; stroke: #ff0000"/>
     <use xlink:href="#mec13cd8182" x="371.751016" y="116.177799" style="fill: #ff0000; stroke: #ff0000"/>
     <use xlink:href="#mec13cd8182" x="373.024171" y="114.333906" style="fill: #ff0000; stroke: #ff0000"/>
     <use xlink:href="#mec13cd8182" x="374.297326" y="100.402269" style="fill: #ff0000; stroke: #ff0000"/>
     <use xlink:href="#mec13cd8182" x="375.570481" y="85.446248" style="fill: #ff0000; stroke: #ff0000"/>
     <use xlink:href="#mec13cd8182" x="376.843636" y="80.938954" style="fill: #ff0000; stroke: #ff0000"/>
     <use xlink:href="#mec13cd8182" x="378.116791" y="83.602355" style="fill: #ff0000; stroke: #ff0000"/>
     <use xlink:href="#mec13cd8182" x="379.389947" y="59.017114" style="fill: #ff0000; stroke: #ff0000"/>
     <use xlink:href="#mec13cd8182" x="380.663102" y="72.538996" style="fill: #ff0000; stroke: #ff0000"/>
     <use xlink:href="#mec13cd8182" x="381.936257" y="82.168216" style="fill: #ff0000; stroke: #ff0000"/>
     <use xlink:href="#mec13cd8182" x="383.209412" y="77.660921" style="fill: #ff0000; stroke: #ff0000"/>
     <use xlink:href="#mec13cd8182" x="384.482567" y="67.417071" style="fill: #ff0000; stroke: #ff0000"/>
     <use xlink:href="#mec13cd8182" x="385.755722" y="65.778055" style="fill: #ff0000; stroke: #ff0000"/>
     <use xlink:href="#mec13cd8182" x="387.028877" y="71.514611" style="fill: #ff0000; stroke: #ff0000"/>
     <use xlink:href="#mec13cd8182" x="388.302032" y="74.587766" style="fill: #ff0000; stroke: #ff0000"/>
     <use xlink:href="#mec13cd8182" x="389.575187" y="73.153627" style="fill: #ff0000; stroke: #ff0000"/>
     <use xlink:href="#mec13cd8182" x="390.848342" y="77.251167" style="fill: #ff0000; stroke: #ff0000"/>
     <use xlink:href="#mec13cd8182" x="392.121497" y="93.641328" style="fill: #ff0000; stroke: #ff0000"/>
     <use xlink:href="#mec13cd8182" x="393.394652" y="114.948537" style="fill: #ff0000; stroke: #ff0000"/>
     <use xlink:href="#mec13cd8182" x="394.667807" y="130.314312" style="fill: #ff0000; stroke: #ff0000"/>
     <use xlink:href="#mec13cd8182" x="395.940963" y="138.304516" style="fill: #ff0000; stroke: #ff0000"/>
     <use xlink:href="#mec13cd8182" x="397.214118" y="144.041072" style="fill: #ff0000; stroke: #ff0000"/>
     <use xlink:href="#mec13cd8182" x="398.487273" y="148.343489" style="fill: #ff0000; stroke: #ff0000"/>
    </g>
   </g>
   <g id="patch_3">
    <path d="M 57.6 307.584 
L 57.6 41.472 
" style="fill: none; stroke: #000000; stroke-width: 0.8; stroke-linejoin: miter; stroke-linecap: square"/>
   </g>
   <g id="patch_4">
    <path d="M 414.72 307.584 
L 414.72 41.472 
" style="fill: none; stroke: #000000; stroke-width: 0.8; stroke-linejoin: miter; stroke-linecap: square"/>
   </g>
   <g id="patch_5">
    <path d="M 57.6 307.584 
L 414.72 307.584 
" style="fill: none; stroke: #000000; stroke-width: 0.8; stroke-linejoin: miter; stroke-linecap: square"/>
   </g>
   <g id="patch_6">
    <path d="M 57.6 41.472 
L 414.72 41.472 
" style="fill: none; stroke: #000000; stroke-width: 0.8; stroke-linejoin: miter; stroke-linecap: square"/>
   </g>
   <g id="text_16">
    <!-- N = 256, L = 16, M = 8, MSE = 0.18 -->
    <g transform="translate(127.302188 35.472) scale(0.12 -0.12)">
     <defs>
      <path id="DejaVuSans-20" transform="scale(0.015625)"/>
      <path id="DejaVuSans-3d" d="M 678 2906 
L 4684 2906 
L 4684 2381 
L 678 2381 
L 678 2906 
z
M 678 1631 
L 4684 1631 
L 4684 1100 
L 678 1100 
L 678 1631 
z
" transform="scale(0.015625)"/>
      <path id="DejaVuSans-2c" d="M 750 794 
L 1409 794 
L 1409 256 
L 897 -744 
L 494 -744 
L 750 256 
L 750 794 
z
" transform="scale(0.015625)"/>
      <path id="DejaVuSans-4c" d="M 628 4666 
L 1259 4666 
L 1259 531 
L 3531 531 
L 3531 0 
L 628 0 
L 628 4666 
z
" transform="scale(0.015625)"/>
      <path id="DejaVuSans-4d" d="M 628 4666 
L 1569 4666 
L 2759 1491 
L 3956 4666 
L 4897 4666 
L 4897 0 
L 4281 0 
L 4281 4097 
L 3078 897 
L 2444 897 
L 1241 4097 
L 1241 0 
L 628 0 
L 628 4666 
z
" transform="scale(0.015625)"/>
      <path id="DejaVuSans-38" d="M 2034 2216 
Q 1584 2216 1326 1975 
Q 1069 1734 1069 1313 
Q 1069 891 1326 650 
Q 1584 409 2034 409 
Q 2484 409 2743 651 
Q 3003 894 3003 1313 
Q 3003 1734 2745 1975 
Q 2488 2216 2034 2216 
z
M 1403 2484 
Q 997 2584 770 2862 
Q 544 3141 544 3541 
Q 544 4100 942 4425 
Q 1341 4750 2034 4750 
Q 2731 4750 3128 4425 
Q 3525 4100 3525 3541 
Q 3525 3141 3298 2862 
Q 3072 2584 2669 2484 
Q 3125 2378 3379 2068 
Q 3634 1759 3634 1313 
Q 3634 634 3220 271 
Q 2806 -91 2034 -91 
Q 1263 -91 848 271 
Q 434 634 434 1313 
Q 434 1759 690 2068 
Q 947 2378 1403 2484 
z
M 1172 3481 
Q 1172 3119 1398 2916 
Q 1625 2713 2034 2713 
Q 2441 2713 2670 2916 
Q 2900 3119 2900 3481 
Q 2900 3844 2670 4047 
Q 2441 4250 2034 4250 
Q 1625 4250 1398 4047 
Q 1172 3844 1172 3481 
z
" transform="scale(0.015625)"/>
      <path id="DejaVuSans-53" d="M 3425 4513 
L 3425 3897 
Q 3066 4069 2747 4153 
Q 2428 4238 2131 4238 
Q 1616 4238 1336 4038 
Q 1056 3838 1056 3469 
Q 1056 3159 1242 3001 
Q 1428 2844 1947 2747 
L 2328 2669 
Q 3034 2534 3370 2195 
Q 3706 1856 3706 1288 
Q 3706 609 3251 259 
Q 2797 -91 1919 -91 
Q 1588 -91 1214 -16 
Q 841 59 441 206 
L 441 856 
Q 825 641 1194 531 
Q 1563 422 1919 422 
Q 2459 422 2753 634 
Q 3047 847 3047 1241 
Q 3047 1584 2836 1778 
Q 2625 1972 2144 2069 
L 1759 2144 
Q 1053 2284 737 2584 
Q 422 2884 422 3419 
Q 422 4038 858 4394 
Q 1294 4750 2059 4750 
Q 2388 4750 2728 4690 
Q 3069 4631 3425 4513 
z
" transform="scale(0.015625)"/>
      <path id="DejaVuSans-45" d="M 628 4666 
L 3578 4666 
L 3578 4134 
L 1259 4134 
L 1259 2753 
L 3481 2753 
L 3481 2222 
L 1259 2222 
L 1259 531 
L 3634 531 
L 3634 0 
L 628 0 
L 628 4666 
z
" transform="scale(0.015625)"/>
      <path id="DejaVuSans-2e" d="M 684 794 
L 1344 794 
L 1344 0 
L 684 0 
L 684 794 
z
" transform="scale(0.015625)"/>
     </defs>
     <use xlink:href="#DejaVuSans-4e"/>
     <use xlink:href="#DejaVuSans-20" x="74.804688"/>
     <use xlink:href="#DejaVuSans-3d" x="106.591797"/>
     <use xlink:href="#DejaVuSans-20" x="190.380859"/>
     <use xlink:href="#DejaVuSans-32" x="222.167969"/>
     <use xlink:href="#DejaVuSans-35" x="285.791016"/>
     <use xlink:href="#DejaVuSans-36" x="349.414062"/>
     <use xlink:href="#DejaVuSans-2c" x="413.037109"/>
     <use xlink:href="#DejaVuSans-20" x="444.824219"/>
     <use xlink:href="#DejaVuSans-4c" x="476.611328"/>
     <use xlink:href="#DejaVuSans-20" x="532.324219"/>
     <use xlink:href="#DejaVuSans-3d" x="564.111328"/>
     <use xlink:href="#DejaVuSans-20" x="647.900391"/>
     <use xlink:href="#DejaVuSans-31" x="679.6875"/>
     <use xlink:href="#DejaVuSans-36" x="743.310547"/>
     <use xlink:href="#DejaVuSans-2c" x="806.933594"/>
     <use xlink:href="#DejaVuSans-20" x="838.720703"/>
     <use xlink:href="#DejaVuSans-4d" x="870.507812"/>
     <use xlink:href="#DejaVuSans-20" x="956.787109"/>
     <use xlink:href="#DejaVuSans-3d" x="988.574219"/>
     <use xlink:href="#DejaVuSans-20" x="1072.363281"/>
     <use xlink:href="#DejaVuSans-38" x="1104.150391"/>
     <use xlink:href="#DejaVuSans-2c" x="1167.773438"/>
     <use xlink:href="#DejaVuSans-20" x="1199.560547"/>
     <use xlink:href="#DejaVuSans-4d" x="1231.347656"/>
     <use xlink:href="#DejaVuSans-53" x="1317.626953"/>
     <use xlink:href="#DejaVuSans-45" x="1381.103516"/>
     <use xlink:href="#DejaVuSans-20" x="1444.287109"/>
     <use xlink:href="#DejaVuSans-3d" x="1476.074219"/>
     <use xlink:href="#DejaVuSans-20" x="1559.863281"/>
     <use xlink:href="#DejaVuSans-30" x="1591.650391"/>
     <use xlink:href="#DejaVuSans-2e" x="1655.273438"/>
     <use xlink:href="#DejaVuSans-31" x="1687.060547"/>
     <use xlink:href="#DejaVuSans-38" x="1750.683594"/>
    </g>
   </g>
   <g id="legend_1">
    <g id="patch_7">
     <path d="M 269.795 302.584 
L 407.72 302.584 
Q 409.72 302.584 409.72 300.584 
L 409.72 272.22775 
Q 409.72 270.22775 407.72 270.22775 
L 269.795 270.22775 
Q 267.795 270.22775 267.795 272.22775 
L 267.795 300.584 
Q 267.795 302.584 269.795 302.584 
z
" style="fill: #ffffff; opacity: 0.8; stroke: #cccccc; stroke-linejoin: miter"/>
    </g>
    <g id="line2d_29">
     <path d="M 271.795 278.326187 
L 281.795 278.326187 
L 291.795 278.326187 
" style="fill: none; stroke: #0000ff; stroke-width: 1.5; stroke-linecap: square"/>
    </g>
    <g id="text_17">
     <!-- signal -->
     <g transform="translate(299.795 281.826187) scale(0.1 -0.1)">
      <defs>
       <path id="DejaVuSans-69" d="M 603 3500 
L 1178 3500 
L 1178 0 
L 603 0 
L 603 3500 
z
M 603 4863 
L 1178 4863 
L 1178 4134 
L 603 4134 
L 603 4863 
z
" transform="scale(0.015625)"/>
       <path id="DejaVuSans-67" d="M 2906 1791 
Q 2906 2416 2648 2759 
Q 2391 3103 1925 3103 
Q 1463 3103 1205 2759 
Q 947 2416 947 1791 
Q 947 1169 1205 825 
Q 1463 481 1925 481 
Q 2391 481 2648 825 
Q 2906 1169 2906 1791 
z
M 3481 434 
Q 3481 -459 3084 -895 
Q 2688 -1331 1869 -1331 
Q 1566 -1331 1297 -1286 
Q 1028 -1241 775 -1147 
L 775 -588 
Q 1028 -725 1275 -790 
Q 1522 -856 1778 -856 
Q 2344 -856 2625 -561 
Q 2906 -266 2906 331 
L 2906 616 
Q 2728 306 2450 153 
Q 2172 0 1784 0 
Q 1141 0 747 490 
Q 353 981 353 1791 
Q 353 2603 747 3093 
Q 1141 3584 1784 3584 
Q 2172 3584 2450 3431 
Q 2728 3278 2906 2969 
L 2906 3500 
L 3481 3500 
L 3481 434 
z
" transform="scale(0.015625)"/>
       <path id="DejaVuSans-6e" d="M 3513 2113 
L 3513 0 
L 2938 0 
L 2938 2094 
Q 2938 2591 2744 2837 
Q 2550 3084 2163 3084 
Q 1697 3084 1428 2787 
Q 1159 2491 1159 1978 
L 1159 0 
L 581 0 
L 581 3500 
L 1159 3500 
L 1159 2956 
Q 1366 3272 1645 3428 
Q 1925 3584 2291 3584 
Q 2894 3584 3203 3211 
Q 3513 2838 3513 2113 
z
" transform="scale(0.015625)"/>
      </defs>
      <use xlink:href="#DejaVuSans-73"/>
      <use xlink:href="#DejaVuSans-69" x="52.099609"/>
      <use xlink:href="#DejaVuSans-67" x="79.882812"/>
      <use xlink:href="#DejaVuSans-6e" x="143.359375"/>
      <use xlink:href="#DejaVuSans-61" x="206.738281"/>
      <use xlink:href="#DejaVuSans-6c" x="268.017578"/>
     </g>
    </g>
    <g id="line2d_30">
     <g>
      <use xlink:href="#mec13cd8182" x="281.795" y="293.004312" style="fill: #ff0000; stroke: #ff0000"/>
     </g>
    </g>
    <g id="text_18">
     <!-- decompressed signal -->
     <g transform="translate(299.795 296.504312) scale(0.1 -0.1)">
      <defs>
       <path id="DejaVuSans-64" d="M 2906 2969 
L 2906 4863 
L 3481 4863 
L 3481 0 
L 2906 0 
L 2906 525 
Q 2725 213 2448 61 
Q 2172 -91 1784 -91 
Q 1150 -91 751 415 
Q 353 922 353 1747 
Q 353 2572 751 3078 
Q 1150 3584 1784 3584 
Q 2172 3584 2448 3432 
Q 2725 3281 2906 2969 
z
M 947 1747 
Q 947 1113 1208 752 
Q 1469 391 1925 391 
Q 2381 391 2643 752 
Q 2906 1113 2906 1747 
Q 2906 2381 2643 2742 
Q 2381 3103 1925 3103 
Q 1469 3103 1208 2742 
Q 947 2381 947 1747 
z
" transform="scale(0.015625)"/>
       <path id="DejaVuSans-63" d="M 3122 3366 
L 3122 2828 
Q 2878 2963 2633 3030 
Q 2388 3097 2138 3097 
Q 1578 3097 1268 2742 
Q 959 2388 959 1747 
Q 959 1106 1268 751 
Q 1578 397 2138 397 
Q 2388 397 2633 464 
Q 2878 531 3122 666 
L 3122 134 
Q 2881 22 2623 -34 
Q 2366 -91 2075 -91 
Q 1284 -91 818 406 
Q 353 903 353 1747 
Q 353 2603 823 3093 
Q 1294 3584 2113 3584 
Q 2378 3584 2631 3529 
Q 2884 3475 3122 3366 
z
" transform="scale(0.015625)"/>
       <path id="DejaVuSans-6f" d="M 1959 3097 
Q 1497 3097 1228 2736 
Q 959 2375 959 1747 
Q 959 1119 1226 758 
Q 1494 397 1959 397 
Q 2419 397 2687 759 
Q 2956 1122 2956 1747 
Q 2956 2369 2687 2733 
Q 2419 3097 1959 3097 
z
M 1959 3584 
Q 2709 3584 3137 3096 
Q 3566 2609 3566 1747 
Q 3566 888 3137 398 
Q 2709 -91 1959 -91 
Q 1206 -91 779 398 
Q 353 888 353 1747 
Q 353 2609 779 3096 
Q 1206 3584 1959 3584 
z
" transform="scale(0.015625)"/>
       <path id="DejaVuSans-72" d="M 2631 2963 
Q 2534 3019 2420 3045 
Q 2306 3072 2169 3072 
Q 1681 3072 1420 2755 
Q 1159 2438 1159 1844 
L 1159 0 
L 581 0 
L 581 3500 
L 1159 3500 
L 1159 2956 
Q 1341 3275 1631 3429 
Q 1922 3584 2338 3584 
Q 2397 3584 2469 3576 
Q 2541 3569 2628 3553 
L 2631 2963 
z
" transform="scale(0.015625)"/>
      </defs>
      <use xlink:href="#DejaVuSans-64"/>
      <use xlink:href="#DejaVuSans-65" x="63.476562"/>
      <use xlink:href="#DejaVuSans-63" x="125"/>
      <use xlink:href="#DejaVuSans-6f" x="179.980469"/>
      <use xlink:href="#DejaVuSans-6d" x="241.162109"/>
      <use xlink:href="#DejaVuSans-70" x="338.574219"/>
      <use xlink:href="#DejaVuSans-72" x="402.050781"/>
      <use xlink:href="#DejaVuSans-65" x="440.914062"/>
      <use xlink:href="#DejaVuSans-73" x="502.4375"/>
      <use xlink:href="#DejaVuSans-73" x="554.537109"/>
      <use xlink:href="#DejaVuSans-65" x="606.636719"/>
      <use xlink:href="#DejaVuSans-64" x="668.160156"/>
      <use xlink:href="#DejaVuSans-20" x="731.636719"/>
      <use xlink:href="#DejaVuSans-73" x="763.423828"/>
      <use xlink:href="#DejaVuSans-69" x="815.523438"/>
      <use xlink:href="#DejaVuSans-67" x="843.306641"/>
      <use xlink:href="#DejaVuSans-6e" x="906.783203"/>
      <use xlink:href="#DejaVuSans-61" x="970.162109"/>
      <use xlink:href="#DejaVuSans-6c" x="1031.441406"/>
     </g>
    </g>
   </g>
  </g>
 </g>
 <defs>
  <clipPath id="p6c9c782d27">
   <rect x="57.6" y="41.472" width="357.12" height="266.112"/>
  </clipPath>
 </defs>
</svg>
