<?xml version="1.0" encoding="utf-8" standalone="no"?>
<!DOCTYPE svg PUBLIC "-//W3C//DTD SVG 1.1//EN"
  "http://www.w3.org/Graphics/SVG/1.1/DTD/svg11.dtd">
<svg xmlns:xlink="http://www.w3.org/1999/xlink" width="460.8pt" height="345.6pt" viewBox="0 0 460.8 345.6" xmlns="http://www.w3.org/2000/svg" version="1.1">
 <metadata>
  <rdf:RDF xmlns:dc="http://purl.org/dc/elements/1.1/" xmlns:cc="http://creativecommons.org/ns#" xmlns:rdf="http://www.w3.org/1999/02/22-rdf-syntax-ns#">
   <cc:Work>
    <dc:type rdf:resource="http://purl.org/dc/dcmitype/StillImage"/>
    <dc:date>2022-09-30T11:33:30.860397</dc:date>
    <dc:format>image/svg+xml</dc:format>
    <dc:creator>
     <cc:Agent>
      <dc:title>Matplotlib v3.6.0, https://matplotlib.org/</dc:title>
     </cc:Agent>
    </dc:creator>
   </cc:Work>
  </rdf:RDF>
 </metadata>
 <defs>
  <style type="text/css">*{stroke-linejoin: round; stroke-linecap: butt}</style>
 </defs>
 <g id="figure_1">
  <g id="patch_1">
   <path d="M 0 345.6 
L 460.8 345.6 
L 460.8 0 
L 0 0 
z
" style="fill: #ffffff"/>
  </g>
  <g id="axes_1">
   <g id="patch_2">
    <path d="M 57.6 307.584 
L 414.72 307.584 
L 414.72 41.472 
L 57.6 41.472 
z
" style="fill: #ffffff"/>
   </g>
   <g id="matplotlib.axis_1">
    <g id="xtick_1">
     <g id="line2d_1">
      <path d="M 73.832727 307.584 
L 73.832727 41.472 
" clip-path="url(#pa7e27734af)" style="fill: none; stroke: #b0b0b0; stroke-width: 0.8; stroke-linecap: square"/>
     </g>
     <g id="line2d_2">
      <defs>
       <path id="m04b73a7ea4" d="M 0 0 
L 0 3.5 
" style="stroke: #000000; stroke-width: 0.8"/>
      </defs>
      <g>
       <use xlink:href="#m04b73a7ea4" x="73.832727" y="307.584" style="stroke: #000000; stroke-width: 0.8"/>
      </g>
     </g>
     <g id="text_1">
      <!-- 0 -->
      <g transform="translate(70.651477 322.182437) scale(0.1 -0.1)">
       <defs>
        <path id="DejaVuSans-30" d="M 2034 4250 
Q 1547 4250 1301 3770 
Q 1056 3291 1056 2328 
Q 1056 1369 1301 889 
Q 1547 409 2034 409 
Q 2525 409 2770 889 
Q 3016 1369 3016 2328 
Q 3016 3291 2770 3770 
Q 2525 4250 2034 4250 
z
M 2034 4750 
Q 2819 4750 3233 4129 
Q 3647 3509 3647 2328 
Q 3647 1150 3233 529 
Q 2819 -91 2034 -91 
Q 1250 -91 836 529 
Q 422 1150 422 2328 
Q 422 3509 836 4129 
Q 1250 4750 2034 4750 
z
" transform="scale(0.015625)"/>
       </defs>
       <use xlink:href="#DejaVuSans-30"/>
      </g>
     </g>
    </g>
    <g id="xtick_2">
     <g id="line2d_3">
      <path d="M 137.365906 307.584 
L 137.365906 41.472 
" clip-path="url(#pa7e27734af)" style="fill: none; stroke: #b0b0b0; stroke-width: 0.8; stroke-linecap: square"/>
     </g>
     <g id="line2d_4">
      <g>
       <use xlink:href="#m04b73a7ea4" x="137.365906" y="307.584" style="stroke: #000000; stroke-width: 0.8"/>
      </g>
     </g>
     <g id="text_2">
      <!-- 100 -->
      <g transform="translate(127.822156 322.182437) scale(0.1 -0.1)">
       <defs>
        <path id="DejaVuSans-31" d="M 794 531 
L 1825 531 
L 1825 4091 
L 703 3866 
L 703 4441 
L 1819 4666 
L 2450 4666 
L 2450 531 
L 3481 531 
L 3481 0 
L 794 0 
L 794 531 
z
" transform="scale(0.015625)"/>
       </defs>
       <use xlink:href="#DejaVuSans-31"/>
       <use xlink:href="#DejaVuSans-30" x="63.623047"/>
       <use xlink:href="#DejaVuSans-30" x="127.246094"/>
      </g>
     </g>
    </g>
    <g id="xtick_3">
     <g id="line2d_5">
      <path d="M 200.899086 307.584 
L 200.899086 41.472 
" clip-path="url(#pa7e27734af)" style="fill: none; stroke: #b0b0b0; stroke-width: 0.8; stroke-linecap: square"/>
     </g>
     <g id="line2d_6">
      <g>
       <use xlink:href="#m04b73a7ea4" x="200.899086" y="307.584" style="stroke: #000000; stroke-width: 0.8"/>
      </g>
     </g>
     <g id="text_3">
      <!-- 200 -->
      <g transform="translate(191.355336 322.182437) scale(0.1 -0.1)">
       <defs>
        <path id="DejaVuSans-32" d="M 1228 531 
L 3431 531 
L 3431 0 
L 469 0 
L 469 531 
Q 828 903 1448 1529 
Q 2069 2156 2228 2338 
Q 2531 2678 2651 2914 
Q 2772 3150 2772 3378 
Q 2772 3750 2511 3984 
Q 2250 4219 1831 4219 
Q 1534 4219 1204 4116 
Q 875 4013 500 3803 
L 500 4441 
Q 881 4594 1212 4672 
Q 1544 4750 1819 4750 
Q 2544 4750 2975 4387 
Q 3406 4025 3406 3419 
Q 3406 3131 3298 2873 
Q 3191 2616 2906 2266 
Q 2828 2175 2409 1742 
Q 1991 1309 1228 531 
z
" transform="scale(0.015625)"/>
       </defs>
       <use xlink:href="#DejaVuSans-32"/>
       <use xlink:href="#DejaVuSans-30" x="63.623047"/>
       <use xlink:href="#DejaVuSans-30" x="127.246094"/>
      </g>
     </g>
    </g>
    <g id="xtick_4">
     <g id="line2d_7">
      <path d="M 264.432265 307.584 
L 264.432265 41.472 
" clip-path="url(#pa7e27734af)" style="fill: none; stroke: #b0b0b0; stroke-width: 0.8; stroke-linecap: square"/>
     </g>
     <g id="line2d_8">
      <g>
       <use xlink:href="#m04b73a7ea4" x="264.432265" y="307.584" style="stroke: #000000; stroke-width: 0.8"/>
      </g>
     </g>
     <g id="text_4">
      <!-- 300 -->
      <g transform="translate(254.888515 322.182437) scale(0.1 -0.1)">
       <defs>
        <path id="DejaVuSans-33" d="M 2597 2516 
Q 3050 2419 3304 2112 
Q 3559 1806 3559 1356 
Q 3559 666 3084 287 
Q 2609 -91 1734 -91 
Q 1441 -91 1130 -33 
Q 819 25 488 141 
L 488 750 
Q 750 597 1062 519 
Q 1375 441 1716 441 
Q 2309 441 2620 675 
Q 2931 909 2931 1356 
Q 2931 1769 2642 2001 
Q 2353 2234 1838 2234 
L 1294 2234 
L 1294 2753 
L 1863 2753 
Q 2328 2753 2575 2939 
Q 2822 3125 2822 3475 
Q 2822 3834 2567 4026 
Q 2313 4219 1838 4219 
Q 1578 4219 1281 4162 
Q 984 4106 628 3988 
L 628 4550 
Q 988 4650 1302 4700 
Q 1616 4750 1894 4750 
Q 2613 4750 3031 4423 
Q 3450 4097 3450 3541 
Q 3450 3153 3228 2886 
Q 3006 2619 2597 2516 
z
" transform="scale(0.015625)"/>
       </defs>
       <use xlink:href="#DejaVuSans-33"/>
       <use xlink:href="#DejaVuSans-30" x="63.623047"/>
       <use xlink:href="#DejaVuSans-30" x="127.246094"/>
      </g>
     </g>
    </g>
    <g id="xtick_5">
     <g id="line2d_9">
      <path d="M 327.965444 307.584 
L 327.965444 41.472 
" clip-path="url(#pa7e27734af)" style="fill: none; stroke: #b0b0b0; stroke-width: 0.8; stroke-linecap: square"/>
     </g>
     <g id="line2d_10">
      <g>
       <use xlink:href="#m04b73a7ea4" x="327.965444" y="307.584" style="stroke: #000000; stroke-width: 0.8"/>
      </g>
     </g>
     <g id="text_5">
      <!-- 400 -->
      <g transform="translate(318.421694 322.182437) scale(0.1 -0.1)">
       <defs>
        <path id="DejaVuSans-34" d="M 2419 4116 
L 825 1625 
L 2419 1625 
L 2419 4116 
z
M 2253 4666 
L 3047 4666 
L 3047 1625 
L 3713 1625 
L 3713 1100 
L 3047 1100 
L 3047 0 
L 2419 0 
L 2419 1100 
L 313 1100 
L 313 1709 
L 2253 4666 
z
" transform="scale(0.015625)"/>
       </defs>
       <use xlink:href="#DejaVuSans-34"/>
       <use xlink:href="#DejaVuSans-30" x="63.623047"/>
       <use xlink:href="#DejaVuSans-30" x="127.246094"/>
      </g>
     </g>
    </g>
    <g id="xtick_6">
     <g id="line2d_11">
      <path d="M 391.498623 307.584 
L 391.498623 41.472 
" clip-path="url(#pa7e27734af)" style="fill: none; stroke: #b0b0b0; stroke-width: 0.8; stroke-linecap: square"/>
     </g>
     <g id="line2d_12">
      <g>
       <use xlink:href="#m04b73a7ea4" x="391.498623" y="307.584" style="stroke: #000000; stroke-width: 0.8"/>
      </g>
     </g>
     <g id="text_6">
      <!-- 500 -->
      <g transform="translate(381.954873 322.182437) scale(0.1 -0.1)">
       <defs>
        <path id="DejaVuSans-35" d="M 691 4666 
L 3169 4666 
L 3169 4134 
L 1269 4134 
L 1269 2991 
Q 1406 3038 1543 3061 
Q 1681 3084 1819 3084 
Q 2600 3084 3056 2656 
Q 3513 2228 3513 1497 
Q 3513 744 3044 326 
Q 2575 -91 1722 -91 
Q 1428 -91 1123 -41 
Q 819 9 494 109 
L 494 744 
Q 775 591 1075 516 
Q 1375 441 1709 441 
Q 2250 441 2565 725 
Q 2881 1009 2881 1497 
Q 2881 1984 2565 2268 
Q 2250 2553 1709 2553 
Q 1456 2553 1204 2497 
Q 953 2441 691 2322 
L 691 4666 
z
" transform="scale(0.015625)"/>
       </defs>
       <use xlink:href="#DejaVuSans-35"/>
       <use xlink:href="#DejaVuSans-30" x="63.623047"/>
       <use xlink:href="#DejaVuSans-30" x="127.246094"/>
      </g>
     </g>
    </g>
    <g id="text_7">
     <!-- samples -->
     <g transform="translate(215.376406 335.860562) scale(0.1 -0.1)">
      <defs>
       <path id="DejaVuSans-73" d="M 2834 3397 
L 2834 2853 
Q 2591 2978 2328 3040 
Q 2066 3103 1784 3103 
Q 1356 3103 1142 2972 
Q 928 2841 928 2578 
Q 928 2378 1081 2264 
Q 1234 2150 1697 2047 
L 1894 2003 
Q 2506 1872 2764 1633 
Q 3022 1394 3022 966 
Q 3022 478 2636 193 
Q 2250 -91 1575 -91 
Q 1294 -91 989 -36 
Q 684 19 347 128 
L 347 722 
Q 666 556 975 473 
Q 1284 391 1588 391 
Q 1994 391 2212 530 
Q 2431 669 2431 922 
Q 2431 1156 2273 1281 
Q 2116 1406 1581 1522 
L 1381 1569 
Q 847 1681 609 1914 
Q 372 2147 372 2553 
Q 372 3047 722 3315 
Q 1072 3584 1716 3584 
Q 2034 3584 2315 3537 
Q 2597 3491 2834 3397 
z
" transform="scale(0.015625)"/>
       <path id="DejaVuSans-61" d="M 2194 1759 
Q 1497 1759 1228 1600 
Q 959 1441 959 1056 
Q 959 750 1161 570 
Q 1363 391 1709 391 
Q 2188 391 2477 730 
Q 2766 1069 2766 1631 
L 2766 1759 
L 2194 1759 
z
M 3341 1997 
L 3341 0 
L 2766 0 
L 2766 531 
Q 2569 213 2275 61 
Q 1981 -91 1556 -91 
Q 1019 -91 701 211 
Q 384 513 384 1019 
Q 384 1609 779 1909 
Q 1175 2209 1959 2209 
L 2766 2209 
L 2766 2266 
Q 2766 2663 2505 2880 
Q 2244 3097 1772 3097 
Q 1472 3097 1187 3025 
Q 903 2953 641 2809 
L 641 3341 
Q 956 3463 1253 3523 
Q 1550 3584 1831 3584 
Q 2591 3584 2966 3190 
Q 3341 2797 3341 1997 
z
" transform="scale(0.015625)"/>
       <path id="DejaVuSans-6d" d="M 3328 2828 
Q 3544 3216 3844 3400 
Q 4144 3584 4550 3584 
Q 5097 3584 5394 3201 
Q 5691 2819 5691 2113 
L 5691 0 
L 5113 0 
L 5113 2094 
Q 5113 2597 4934 2840 
Q 4756 3084 4391 3084 
Q 3944 3084 3684 2787 
Q 3425 2491 3425 1978 
L 3425 0 
L 2847 0 
L 2847 2094 
Q 2847 2600 2669 2842 
Q 2491 3084 2119 3084 
Q 1678 3084 1418 2786 
Q 1159 2488 1159 1978 
L 1159 0 
L 581 0 
L 581 3500 
L 1159 3500 
L 1159 2956 
Q 1356 3278 1631 3431 
Q 1906 3584 2284 3584 
Q 2666 3584 2933 3390 
Q 3200 3197 3328 2828 
z
" transform="scale(0.015625)"/>
       <path id="DejaVuSans-70" d="M 1159 525 
L 1159 -1331 
L 581 -1331 
L 581 3500 
L 1159 3500 
L 1159 2969 
Q 1341 3281 1617 3432 
Q 1894 3584 2278 3584 
Q 2916 3584 3314 3078 
Q 3713 2572 3713 1747 
Q 3713 922 3314 415 
Q 2916 -91 2278 -91 
Q 1894 -91 1617 61 
Q 1341 213 1159 525 
z
M 3116 1747 
Q 3116 2381 2855 2742 
Q 2594 3103 2138 3103 
Q 1681 3103 1420 2742 
Q 1159 2381 1159 1747 
Q 1159 1113 1420 752 
Q 1681 391 2138 391 
Q 2594 391 2855 752 
Q 3116 1113 3116 1747 
z
" transform="scale(0.015625)"/>
       <path id="DejaVuSans-6c" d="M 603 4863 
L 1178 4863 
L 1178 0 
L 603 0 
L 603 4863 
z
" transform="scale(0.015625)"/>
       <path id="DejaVuSans-65" d="M 3597 1894 
L 3597 1613 
L 953 1613 
Q 991 1019 1311 708 
Q 1631 397 2203 397 
Q 2534 397 2845 478 
Q 3156 559 3463 722 
L 3463 178 
Q 3153 47 2828 -22 
Q 2503 -91 2169 -91 
Q 1331 -91 842 396 
Q 353 884 353 1716 
Q 353 2575 817 3079 
Q 1281 3584 2069 3584 
Q 2775 3584 3186 3129 
Q 3597 2675 3597 1894 
z
M 3022 2063 
Q 3016 2534 2758 2815 
Q 2500 3097 2075 3097 
Q 1594 3097 1305 2825 
Q 1016 2553 972 2059 
L 3022 2063 
z
" transform="scale(0.015625)"/>
      </defs>
      <use xlink:href="#DejaVuSans-73"/>
      <use xlink:href="#DejaVuSans-61" x="52.099609"/>
      <use xlink:href="#DejaVuSans-6d" x="113.378906"/>
      <use xlink:href="#DejaVuSans-70" x="210.791016"/>
      <use xlink:href="#DejaVuSans-6c" x="274.267578"/>
      <use xlink:href="#DejaVuSans-65" x="302.050781"/>
      <use xlink:href="#DejaVuSans-73" x="363.574219"/>
     </g>
    </g>
   </g>
   <g id="matplotlib.axis_2">
    <g id="ytick_1">
     <g id="line2d_13">
      <path d="M 57.6 298.37389 
L 414.72 298.37389 
" clip-path="url(#pa7e27734af)" style="fill: none; stroke: #b0b0b0; stroke-width: 0.8; stroke-linecap: square"/>
     </g>
     <g id="line2d_14">
      <defs>
       <path id="m1b0f3053b1" d="M 0 0 
L -3.5 0 
" style="stroke: #000000; stroke-width: 0.8"/>
      </defs>
      <g>
       <use xlink:href="#m1b0f3053b1" x="57.6" y="298.37389" style="stroke: #000000; stroke-width: 0.8"/>
      </g>
     </g>
     <g id="text_8">
      <!-- −6 -->
      <g transform="translate(35.857813 302.173108) scale(0.1 -0.1)">
       <defs>
        <path id="DejaVuSans-2212" d="M 678 2272 
L 4684 2272 
L 4684 1741 
L 678 1741 
L 678 2272 
z
" transform="scale(0.015625)"/>
        <path id="DejaVuSans-36" d="M 2113 2584 
Q 1688 2584 1439 2293 
Q 1191 2003 1191 1497 
Q 1191 994 1439 701 
Q 1688 409 2113 409 
Q 2538 409 2786 701 
Q 3034 994 3034 1497 
Q 3034 2003 2786 2293 
Q 2538 2584 2113 2584 
z
M 3366 4563 
L 3366 3988 
Q 3128 4100 2886 4159 
Q 2644 4219 2406 4219 
Q 1781 4219 1451 3797 
Q 1122 3375 1075 2522 
Q 1259 2794 1537 2939 
Q 1816 3084 2150 3084 
Q 2853 3084 3261 2657 
Q 3669 2231 3669 1497 
Q 3669 778 3244 343 
Q 2819 -91 2113 -91 
Q 1303 -91 875 529 
Q 447 1150 447 2328 
Q 447 3434 972 4092 
Q 1497 4750 2381 4750 
Q 2619 4750 2861 4703 
Q 3103 4656 3366 4563 
z
" transform="scale(0.015625)"/>
       </defs>
       <use xlink:href="#DejaVuSans-2212"/>
       <use xlink:href="#DejaVuSans-36" x="83.789062"/>
      </g>
     </g>
    </g>
    <g id="ytick_2">
     <g id="line2d_15">
      <path d="M 57.6 257.146896 
L 414.72 257.146896 
" clip-path="url(#pa7e27734af)" style="fill: none; stroke: #b0b0b0; stroke-width: 0.8; stroke-linecap: square"/>
     </g>
     <g id="line2d_16">
      <g>
       <use xlink:href="#m1b0f3053b1" x="57.6" y="257.146896" style="stroke: #000000; stroke-width: 0.8"/>
      </g>
     </g>
     <g id="text_9">
      <!-- −4 -->
      <g transform="translate(35.857813 260.946114) scale(0.1 -0.1)">
       <use xlink:href="#DejaVuSans-2212"/>
       <use xlink:href="#DejaVuSans-34" x="83.789062"/>
      </g>
     </g>
    </g>
    <g id="ytick_3">
     <g id="line2d_17">
      <path d="M 57.6 215.919902 
L 414.72 215.919902 
" clip-path="url(#pa7e27734af)" style="fill: none; stroke: #b0b0b0; stroke-width: 0.8; stroke-linecap: square"/>
     </g>
     <g id="line2d_18">
      <g>
       <use xlink:href="#m1b0f3053b1" x="57.6" y="215.919902" style="stroke: #000000; stroke-width: 0.8"/>
      </g>
     </g>
     <g id="text_10">
      <!-- −2 -->
      <g transform="translate(35.857813 219.719121) scale(0.1 -0.1)">
       <use xlink:href="#DejaVuSans-2212"/>
       <use xlink:href="#DejaVuSans-32" x="83.789062"/>
      </g>
     </g>
    </g>
    <g id="ytick_4">
     <g id="line2d_19">
      <path d="M 57.6 174.692908 
L 414.72 174.692908 
" clip-path="url(#pa7e27734af)" style="fill: none; stroke: #b0b0b0; stroke-width: 0.8; stroke-linecap: square"/>
     </g>
     <g id="line2d_20">
      <g>
       <use xlink:href="#m1b0f3053b1" x="57.6" y="174.692908" style="stroke: #000000; stroke-width: 0.8"/>
      </g>
     </g>
     <g id="text_11">
      <!-- 0 -->
      <g transform="translate(44.2375 178.492127) scale(0.1 -0.1)">
       <use xlink:href="#DejaVuSans-30"/>
      </g>
     </g>
    </g>
    <g id="ytick_5">
     <g id="line2d_21">
      <path d="M 57.6 133.465914 
L 414.72 133.465914 
" clip-path="url(#pa7e27734af)" style="fill: none; stroke: #b0b0b0; stroke-width: 0.8; stroke-linecap: square"/>
     </g>
     <g id="line2d_22">
      <g>
       <use xlink:href="#m1b0f3053b1" x="57.6" y="133.465914" style="stroke: #000000; stroke-width: 0.8"/>
      </g>
     </g>
     <g id="text_12">
      <!-- 2 -->
      <g transform="translate(44.2375 137.265133) scale(0.1 -0.1)">
       <use xlink:href="#DejaVuSans-32"/>
      </g>
     </g>
    </g>
    <g id="ytick_6">
     <g id="line2d_23">
      <path d="M 57.6 92.23892 
L 414.72 92.23892 
" clip-path="url(#pa7e27734af)" style="fill: none; stroke: #b0b0b0; stroke-width: 0.8; stroke-linecap: square"/>
     </g>
     <g id="line2d_24">
      <g>
       <use xlink:href="#m1b0f3053b1" x="57.6" y="92.23892" style="stroke: #000000; stroke-width: 0.8"/>
      </g>
     </g>
     <g id="text_13">
      <!-- 4 -->
      <g transform="translate(44.2375 96.038139) scale(0.1 -0.1)">
       <use xlink:href="#DejaVuSans-34"/>
      </g>
     </g>
    </g>
    <g id="ytick_7">
     <g id="line2d_25">
      <path d="M 57.6 51.011926 
L 414.72 51.011926 
" clip-path="url(#pa7e27734af)" style="fill: none; stroke: #b0b0b0; stroke-width: 0.8; stroke-linecap: square"/>
     </g>
     <g id="line2d_26">
      <g>
       <use xlink:href="#m1b0f3053b1" x="57.6" y="51.011926" style="stroke: #000000; stroke-width: 0.8"/>
      </g>
     </g>
     <g id="text_14">
      <!-- 6 -->
      <g transform="translate(44.2375 54.811145) scale(0.1 -0.1)">
       <use xlink:href="#DejaVuSans-36"/>
      </g>
     </g>
    </g>
    <g id="text_15">
     <!-- N/A -->
     <g transform="translate(29.778125 183.373312) rotate(-90) scale(0.1 -0.1)">
      <defs>
       <path id="DejaVuSans-4e" d="M 628 4666 
L 1478 4666 
L 3547 763 
L 3547 4666 
L 4159 4666 
L 4159 0 
L 3309 0 
L 1241 3903 
L 1241 0 
L 628 0 
L 628 4666 
z
" transform="scale(0.015625)"/>
       <path id="DejaVuSans-2f" d="M 1625 4666 
L 2156 4666 
L 531 -594 
L 0 -594 
L 1625 4666 
z
" transform="scale(0.015625)"/>
       <path id="DejaVuSans-41" d="M 2188 4044 
L 1331 1722 
L 3047 1722 
L 2188 4044 
z
M 1831 4666 
L 2547 4666 
L 4325 0 
L 3669 0 
L 3244 1197 
L 1141 1197 
L 716 0 
L 50 0 
L 1831 4666 
z
" transform="scale(0.015625)"/>
      </defs>
      <use xlink:href="#DejaVuSans-4e"/>
      <use xlink:href="#DejaVuSans-2f" x="74.804688"/>
      <use xlink:href="#DejaVuSans-41" x="108.496094"/>
     </g>
    </g>
   </g>
   <g id="line2d_27">
    <path d="M 73.832727 72.738552 
L 74.468059 72.120147 
L 75.103391 67.296589 
L 75.738723 64.822969 
L 76.374054 63.441865 
L 77.009386 61.17438 
L 77.644718 62.802847 
L 78.915382 53.568 
L 79.550713 56.247755 
L 80.186045 54.701742 
L 80.821377 62.184442 
L 81.456709 64.410699 
L 82.092041 63.544933 
L 82.727372 67.296589 
L 83.362704 74.428859 
L 83.998036 78.015607 
L 84.633368 80.736589 
L 85.2687 87.703951 
L 85.904031 96.629595 
L 87.174695 107.554748 
L 87.810027 116.212417 
L 88.445358 121.942969 
L 89.08069 122.685055 
L 89.716022 127.879656 
L 90.351354 138.887264 
L 90.986686 137.588613 
L 91.622017 144.988859 
L 92.257349 155.048245 
L 92.892681 157.954748 
L 93.528013 155.914012 
L 94.163345 160.490209 
L 94.798676 158.944196 
L 95.434008 170.879411 
L 96.06934 169.704442 
L 96.704672 172.714012 
L 97.340004 170.69389 
L 97.975335 171.023706 
L 98.610667 176.17708 
L 99.245999 176.960393 
L 99.881331 173.64162 
L 100.516663 180.237939 
L 101.151994 175.744196 
L 101.787326 181.371681 
L 102.422658 179.145423 
L 103.05799 180.712049 
L 103.693321 182.876466 
L 104.328653 185.824196 
L 104.963985 187.122847 
L 106.234649 195.98665 
L 106.86998 198.625178 
L 111.317303 240.553031 
L 111.952635 244.552049 
L 112.587967 253.024196 
L 113.223298 259.867877 
L 113.85863 264.36162 
L 115.764626 281.120393 
L 116.399957 283.449718 
L 117.035289 285.284319 
L 117.670621 288.520638 
L 118.305953 290.190331 
L 118.941284 290.808736 
L 119.576616 293.715239 
L 120.211948 290.973644 
L 120.84728 292.643337 
L 121.482612 290.520147 
L 122.117943 285.634748 
L 122.753275 288.376344 
L 123.388607 283.75892 
L 124.023939 277.430577 
L 125.294602 273.431558 
L 125.929934 276.276221 
L 126.565266 269.143951 
L 127.200598 268.236957 
L 127.83593 262.547632 
L 128.471261 262.176589 
L 129.106593 254.570209 
L 129.741925 252.859288 
L 130.377257 252.034748 
L 131.012589 249.190086 
L 131.64792 248.365546 
L 132.283252 245.91254 
L 132.918584 247.437939 
L 133.553916 241.831067 
L 134.189247 250.468123 
L 134.824579 249.190086 
L 135.459911 243.541988 
L 136.095243 246.38665 
L 136.730575 244.428368 
L 137.365906 246.489718 
L 138.001238 245.582724 
L 138.63657 249.416834 
L 139.271902 249.231313 
L 139.907234 250.488736 
L 140.542565 247.273031 
L 141.177897 246.056834 
L 141.813229 243.253399 
L 142.448561 239.501742 
L 143.083893 241.130209 
L 143.719224 235.379043 
L 144.354556 231.483092 
L 144.989888 226.144196 
L 145.62522 226.845055 
L 146.895883 212.972172 
L 148.166547 197.98616 
L 148.801879 187.885546 
L 150.072542 177.640638 
L 150.707874 171.291681 
L 151.343206 166.756712 
L 151.978538 153.687755 
L 152.613869 149.173399 
L 153.249201 146.741006 
L 153.884533 137.423706 
L 154.519865 126.457325 
L 155.155197 126.787141 
L 155.790528 122.746896 
L 156.42586 115.861988 
L 157.061192 113.326528 
L 157.696524 109.925301 
L 158.331856 105.575853 
L 158.967187 102.586896 
L 159.602519 103.55573 
L 160.237851 102.195239 
L 160.873183 99.412417 
L 161.508514 99.494871 
L 162.143846 102.009718 
L 162.779178 102.607509 
L 163.41451 104.174135 
L 164.049842 105.142969 
L 164.685173 99.762847 
L 165.320505 105.081129 
L 165.955837 101.721129 
L 166.591169 101.886037 
L 167.226501 99.350577 
L 167.861832 103.596957 
L 168.497164 101.411926 
L 169.132496 101.84481 
L 169.767828 97.907632 
L 170.40316 100.092663 
L 171.038491 92.939779 
L 171.673823 89.847755 
L 172.309155 88.734626 
L 172.944487 84.797448 
L 173.579819 82.92162 
L 174.21515 77.067387 
L 174.850482 77.706405 
L 175.485814 71.563583 
L 176.121146 68.760147 
L 176.756477 65.090945 
L 177.391809 67.214135 
L 178.027141 61.607264 
L 178.662473 61.566037 
L 179.297805 61.071313 
L 180.568468 54.639902 
L 181.2038 56.165301 
L 181.839132 59.422233 
L 182.474464 59.133644 
L 183.745127 65.956712 
L 184.380459 64.88481 
L 185.651123 75.274012 
L 186.286454 85.786896 
L 186.921786 86.240393 
L 187.557118 93.599411 
L 188.19245 94.856834 
L 189.463113 114.645791 
L 190.098445 115.882601 
L 190.733777 124.684564 
L 191.369109 127.797202 
L 192.00444 134.537816 
L 192.639772 138.557448 
L 193.275104 144.803337 
L 193.910436 152.30665 
L 194.545768 153.151804 
L 195.181099 153.048736 
L 195.816431 160.820025 
L 196.451763 163.273031 
L 197.087095 168.714994 
L 197.722427 170.425914 
L 198.357758 169.683828 
L 198.99309 175.744196 
L 199.628422 170.446528 
L 200.263754 174.136344 
L 200.899086 175.991558 
L 201.534417 170.879411 
L 202.805081 177.784933 
L 203.440413 179.908123 
L 204.075745 179.743215 
L 204.711076 179.846282 
L 205.346408 183.680393 
L 205.98174 185.700515 
L 206.617072 189.514012 
L 207.252403 188.751313 
L 207.887735 195.388859 
L 208.523067 196.501988 
L 209.158399 204.376344 
L 210.429062 209.467877 
L 211.064394 221.382479 
L 211.699726 221.959656 
L 212.335058 233.791804 
L 212.97039 237.852663 
L 213.605721 243.129718 
L 214.241053 250.529963 
L 214.876385 253.436466 
L 215.511717 258.11573 
L 216.147049 263.94935 
L 216.78238 272.689472 
L 217.417712 276.523583 
L 218.053044 279.120883 
L 218.688376 287.139534 
L 219.323708 285.572908 
L 219.959039 286.273767 
L 220.594371 291.179779 
L 221.229703 292.54027 
L 221.865035 290.973644 
L 222.500366 288.046528 
L 223.135698 293.076221 
L 224.406362 286.397448 
L 225.041694 286.747877 
L 225.677025 281.120393 
L 226.312357 283.326037 
L 226.947689 274.049963 
L 228.218353 270.25708 
L 228.853684 269.514994 
L 229.489016 264.073031 
L 230.124348 260.17708 
L 230.75968 258.301252 
L 232.030343 250.09708 
L 232.665675 250.406282 
L 233.301007 249.499288 
L 233.936339 247.932663 
L 234.571671 249.375607 
L 235.207002 244.696344 
L 235.842334 245.50027 
L 236.477666 246.901988 
L 237.112998 246.489718 
L 237.748329 248.489227 
L 238.383661 244.861252 
L 239.018993 243.624442 
L 239.654325 246.221742 
L 240.289657 246.510331 
L 241.56032 249.045791 
L 242.195652 245.747632 
L 243.466316 245.850699 
L 244.101647 243.129718 
L 244.736979 240.90346 
L 245.372311 239.089472 
L 246.007643 234.430822 
L 246.642975 228.679656 
L 247.278306 227.360393 
L 247.913638 222.289472 
L 248.54897 213.734871 
L 249.184302 207.65389 
L 250.454965 192.750331 
L 251.090297 187.720638 
L 251.725629 179.434012 
L 252.996292 164.839656 
L 253.631624 162.654626 
L 254.266956 151.214135 
L 254.902288 147.668613 
L 255.53762 141.443337 
L 256.172951 131.466405 
L 256.808283 131.404564 
L 257.443615 120.500025 
L 258.078947 117.201865 
L 258.714279 115.903215 
L 259.34961 106.235485 
L 259.984942 108.770945 
L 260.620274 108.62665 
L 261.255606 102.154012 
L 261.890938 103.164074 
L 262.526269 100.814135 
L 263.161601 101.288245 
L 263.796933 97.062479 
L 264.432265 101.02027 
L 265.067597 102.834258 
L 265.702928 99.268123 
L 266.33826 101.989104 
L 266.973592 102.73119 
L 267.608924 103.90616 
L 268.244255 101.473767 
L 268.879587 105.905669 
L 269.514919 103.328982 
L 270.150251 104.359656 
L 270.785583 102.050945 
L 271.420914 97.887018 
L 272.056246 94.609472 
L 272.691578 95.021742 
L 273.32691 96.217325 
L 273.962242 91.847264 
L 274.597573 88.87892 
L 275.232905 84.818061 
L 275.868237 76.820025 
L 276.503569 78.757693 
L 277.138901 74.284564 
L 277.774232 68.038675 
L 278.409564 66.966773 
L 279.044896 62.143215 
L 279.680228 63.421252 
L 280.31556 61.730945 
L 280.950891 58.886282 
L 281.586223 57.092908 
L 282.221555 55.670577 
L 282.856887 56.886773 
L 283.492218 58.350331 
L 284.12755 55.876712 
L 284.762882 60.205546 
L 285.398214 62.514258 
L 286.033546 68.492172 
L 286.668877 71.542969 
L 287.304209 76.077939 
L 287.939541 82.736098 
L 288.574873 86.549595 
L 289.210205 92.280147 
L 289.845536 95.021742 
L 290.480868 98.89708 
L 291.1162 108.729718 
L 291.751532 110.152049 
L 292.386864 120.932908 
L 293.022195 128.662969 
L 293.657527 132.806282 
L 294.292859 141.031067 
L 294.928191 144.514748 
L 295.563523 149.503215 
L 296.198854 148.225178 
L 296.834186 154.30616 
L 297.469518 161.520883 
L 298.10485 165.561129 
L 298.740181 165.499288 
L 299.375513 169.745669 
L 300.010845 168.797448 
L 300.646177 170.446528 
L 301.281509 172.981988 
L 301.91684 172.796466 
L 302.552172 173.682847 
L 303.187504 175.167018 
L 303.822836 175.496834 
L 304.458168 176.527509 
L 305.093499 177.929227 
L 305.728831 174.816589 
L 306.364163 182.13438 
L 306.999495 180.83573 
L 307.634827 180.402847 
L 308.270158 185.226405 
L 308.90549 188.277202 
L 309.540822 192.049472 
L 310.176154 198.501497 
L 310.811486 203.11892 
L 311.446817 204.953521 
L 312.082149 207.901252 
L 312.717481 217.342233 
L 313.352813 218.743951 
L 313.988144 227.607755 
L 314.623476 234.142233 
L 315.258808 238.017571 
L 315.89414 249.664196 
L 317.164803 258.795975 
L 317.800135 263.392785 
L 318.435467 266.340515 
L 319.706131 278.316957 
L 320.341462 283.181742 
L 320.976794 283.429104 
L 321.612126 285.758429 
L 322.247458 293.199902 
L 322.88279 290.664442 
L 323.518121 293.756466 
L 324.153453 290.025423 
L 324.788785 288.170209 
L 325.424117 290.252172 
L 326.059448 291.839411 
L 327.330112 286.026405 
L 327.965444 281.656344 
L 328.600776 280.39892 
L 329.236107 272.586405 
L 329.871439 271.700025 
L 330.506771 269.02027 
L 331.142103 264.237939 
L 331.777435 260.981006 
L 332.412766 259.187632 
L 333.048098 256.528491 
L 333.68343 259.146405 
L 334.318762 252.879902 
L 334.954094 252.199656 
L 335.589425 248.097571 
L 336.224757 246.943215 
L 336.860089 248.324319 
L 337.495421 247.912049 
L 338.130753 247.025669 
L 338.766084 246.345423 
L 339.401416 249.33438 
L 340.036748 245.314748 
L 340.67208 246.015607 
L 341.307411 250.736098 
L 341.942743 247.705914 
L 342.578075 245.665178 
L 343.213407 245.046773 
L 343.848739 245.232294 
L 344.48407 247.087509 
L 345.119402 246.675239 
L 345.754734 247.14935 
L 346.390066 243.294626 
L 347.025398 243.212172 
L 347.660729 233.379534 
L 348.296061 235.008 
L 348.931393 230.699779 
L 349.566725 221.423706 
L 350.202057 217.259779 
L 350.837388 209.220515 
L 351.47272 206.149104 
L 352.743384 192.193767 
L 353.378716 190.09119 
L 354.014047 176.919166 
L 354.649379 170.405301 
L 355.284711 165.148859 
L 356.555374 150.18346 
L 357.826038 138.619288 
L 358.46137 135.218061 
L 359.096702 123.488982 
L 359.732033 124.787632 
L 360.367365 116.975117 
L 361.002697 117.243092 
L 361.638029 109.677939 
L 362.273361 109.306896 
L 362.908692 102.25708 
L 363.544024 102.834258 
L 364.179356 99.165055 
L 364.814688 98.54665 
L 365.45002 100.010209 
L 366.085351 102.999166 
L 366.720683 102.050945 
L 367.356015 102.236466 
L 367.991347 106.09119 
L 368.626679 103.617571 
L 369.26201 103.473276 
L 369.897342 104.297816 
L 370.532674 104.38027 
L 371.168006 106.297325 
L 371.803337 97.72211 
L 372.438669 99.247509 
L 373.074001 95.248491 
L 373.709333 98.670331 
L 374.344665 99.103215 
L 374.979996 98.422969 
L 375.615328 92.280147 
L 376.25066 90.46616 
L 376.885992 82.859779 
L 378.791987 80.118184 
L 380.062651 70.697816 
L 380.697983 60.391067 
L 381.333314 62.782233 
L 381.968646 61.359902 
L 382.603978 62.431804 
L 383.23931 59.40162 
L 383.874642 58.391558 
L 384.509973 58.185423 
L 385.145305 59.092417 
L 385.780637 60.267387 
L 386.415969 59.648982 
L 387.0513 61.916466 
L 387.686632 61.091926 
L 389.592628 77.397202 
L 390.227959 79.602847 
L 390.863291 83.601865 
L 391.498623 93.784933 
L 392.133955 98.278675 
L 392.769287 105.142969 
L 393.404618 108.049472 
L 394.03995 113.22346 
L 395.310614 129.528736 
L 396.581277 142.288491 
L 397.216609 145.256834 
L 397.851941 151.234748 
L 398.487273 154.347387 
L 398.487273 154.347387 
" clip-path="url(#pa7e27734af)" style="fill: none; stroke: #1f77b4; stroke-width: 1.5; stroke-linecap: square"/>
   </g>
   <g id="line2d_28">
    <path d="M 73.832727 58.63892 
L 74.468059 59.669595 
L 75.103391 61.52481 
L 77.644718 71.007018 
L 78.28005 72.037693 
L 78.915382 64.204564 
L 80.821377 64.822969 
L 81.456709 65.235239 
L 82.092041 65.441374 
L 82.727372 65.853644 
L 83.362704 65.853644 
L 83.998036 81.313767 
L 84.633368 84.405791 
L 85.2687 89.971436 
L 87.810027 118.624196 
L 88.445358 121.716221 
L 89.08069 134.496589 
L 89.716022 136.145669 
L 90.351354 139.237693 
L 92.892681 154.368 
L 93.528013 155.996466 
L 94.163345 173.482896 
L 95.434008 173.754994 
L 97.975335 174.641168 
L 98.610667 174.736609 
L 99.245999 169.621988 
L 100.516663 169.745669 
L 103.05799 170.178552 
L 103.693321 170.219779 
L 104.328653 190.85389 
L 104.963985 192.441129 
L 105.599317 195.306405 
L 107.505312 207.262233 
L 108.140644 210.148123 
L 108.775976 211.797202 
L 109.411308 234.059779 
L 110.046639 235.708859 
L 110.681971 238.800883 
L 112.587967 251.375117 
L 113.223298 254.467141 
L 113.85863 256.116221 
L 114.493962 280.646282 
L 115.129294 280.646282 
L 115.764626 281.058552 
L 116.399957 281.264687 
L 117.670621 282.089227 
L 118.941284 282.501497 
L 119.576616 282.089227 
L 120.211948 283.119902 
L 120.84728 284.975117 
L 123.388607 294.457325 
L 124.023939 295.488 
L 124.659271 260.23892 
L 125.294602 261.269595 
L 125.929934 263.12481 
L 128.471261 272.607018 
L 129.106593 273.637693 
L 129.741925 245.809472 
L 130.377257 246.634012 
L 131.64792 250.962847 
L 132.918584 256.116221 
L 133.553916 257.971436 
L 134.189247 259.00211 
L 134.824579 244.984933 
L 137.365906 244.984933 
L 138.001238 245.191067 
L 139.271902 245.191067 
L 139.907234 238.388613 
L 140.542565 239.419288 
L 141.177897 241.274503 
L 143.719224 250.756712 
L 144.354556 251.581252 
L 144.989888 235.502724 
L 145.62522 231.380025 
L 146.260552 223.753031 
L 148.801879 185.865423 
L 149.43721 181.783951 
L 150.072542 186.31892 
L 150.707874 182.216834 
L 151.343206 174.672088 
L 153.884533 136.764074 
L 154.519865 132.641374 
L 155.155197 132.641374 
L 155.790528 130.167755 
L 156.42586 125.42665 
L 158.967187 101.721129 
L 159.602519 99.247509 
L 160.237851 101.721129 
L 162.143846 101.721129 
L 162.779178 101.927264 
L 164.685173 101.927264 
L 165.320505 95.12481 
L 165.955837 96.155485 
L 166.591169 98.010699 
L 169.132496 107.492908 
L 169.767828 108.317448 
L 170.40316 80.489227 
L 171.038491 81.519902 
L 171.673823 83.375117 
L 174.21515 92.857325 
L 174.850482 93.888 
L 175.485814 58.63892 
L 176.121146 59.669595 
L 176.756477 61.52481 
L 178.662473 68.945669 
L 179.297805 70.800883 
L 179.933136 71.831558 
L 180.568468 64.410699 
L 181.2038 64.410699 
L 183.109795 65.029104 
L 183.745127 65.441374 
L 184.380459 65.441374 
L 185.015791 65.647509 
L 185.651123 90.383706 
L 186.286454 92.032785 
L 186.921786 95.12481 
L 189.463113 110.584933 
L 190.098445 112.234012 
L 190.733777 134.496589 
L 191.369109 136.145669 
L 192.00444 139.031558 
L 194.545768 154.079411 
L 195.181099 155.66665 
L 195.816431 173.583902 
L 197.087095 173.82508 
L 199.628422 174.610454 
L 200.263754 174.695011 
L 200.899086 169.477693 
L 202.169749 169.663215 
L 204.711076 170.302233 
L 205.346408 170.364074 
L 205.98174 191.101252 
L 206.617072 192.667877 
L 207.252403 195.51254 
L 209.793731 209.941988 
L 210.429062 211.591067 
L 211.064394 226.845055 
L 211.699726 228.494135 
L 212.335058 231.58616 
L 214.876385 247.046282 
L 215.511717 248.695362 
L 216.147049 271.370209 
L 216.78238 272.813153 
L 217.417712 275.699043 
L 219.959039 290.128491 
L 220.594371 291.777571 
L 221.229703 282.089227 
L 221.865035 283.119902 
L 222.500366 284.975117 
L 225.041694 294.457325 
L 225.677025 295.488 
L 226.312357 260.23892 
L 226.947689 261.269595 
L 227.583021 263.12481 
L 230.124348 272.607018 
L 230.75968 273.431558 
L 231.395012 245.809472 
L 232.030343 246.634012 
L 233.301007 250.962847 
L 234.571671 256.116221 
L 235.207002 257.971436 
L 235.842334 259.00211 
L 236.477666 238.388613 
L 237.112998 239.419288 
L 237.748329 241.274503 
L 240.289657 250.756712 
L 240.924988 251.581252 
L 241.56032 238.388613 
L 242.195652 239.419288 
L 242.830984 241.274503 
L 245.372311 250.756712 
L 246.007643 251.581252 
L 246.642975 225.40211 
L 247.278306 222.722356 
L 247.913638 218.187387 
L 250.454965 194.440638 
L 251.090297 191.884564 
L 251.725629 186.586896 
L 252.360961 182.505423 
L 252.996292 174.956761 
L 255.53762 136.970209 
L 256.172951 132.847509 
L 256.808283 132.847509 
L 257.443615 130.37389 
L 258.078947 125.632785 
L 260.620274 101.927264 
L 261.255606 99.453644 
L 261.890938 95.12481 
L 262.526269 96.155485 
L 263.161601 98.010699 
L 265.067597 105.431558 
L 265.702928 107.286773 
L 266.33826 108.317448 
L 266.973592 101.927264 
L 267.608924 102.751804 
L 268.244255 104.607018 
L 270.785583 114.089227 
L 271.420914 115.119902 
L 272.056246 87.291681 
L 272.691578 88.322356 
L 273.32691 90.177571 
L 275.232905 97.598429 
L 275.868237 99.453644 
L 276.503569 100.484319 
L 277.138901 58.63892 
L 277.774232 59.669595 
L 278.409564 61.52481 
L 280.31556 68.945669 
L 280.950891 70.800883 
L 281.586223 71.831558 
L 282.221555 64.204564 
L 286.668877 65.647509 
L 287.304209 83.787387 
L 287.939541 85.436466 
L 288.574873 88.528491 
L 289.845536 96.567755 
L 290.480868 100.484319 
L 291.1162 103.370209 
L 291.751532 105.019288 
L 292.386864 134.496589 
L 293.022195 136.145669 
L 293.657527 139.031558 
L 295.563523 150.987387 
L 296.198854 153.873276 
L 296.834186 155.522356 
L 297.469518 173.58184 
L 298.740181 173.792098 
L 301.281509 174.476466 
L 301.91684 174.551293 
L 302.552172 169.621988 
L 304.458168 169.848736 
L 306.364163 170.178552 
L 306.999495 170.219779 
L 307.634827 183.639166 
L 308.270158 185.226405 
L 308.90549 188.153521 
L 311.446817 202.933399 
L 312.082149 204.376344 
L 312.717481 217.568982 
L 313.352813 220.661006 
L 313.988144 226.22665 
L 316.529472 254.879411 
L 317.164803 257.971436 
L 317.800135 271.164074 
L 318.435467 272.607018 
L 319.070799 275.699043 
L 321.612126 290.334626 
L 322.247458 291.983706 
L 322.88279 282.089227 
L 323.518121 283.119902 
L 324.153453 284.975117 
L 326.69478 294.457325 
L 327.330112 295.488 
L 327.965444 290.953031 
L 328.600776 288.479411 
L 329.236107 283.738307 
L 331.777435 260.032785 
L 332.412766 257.559166 
L 333.048098 245.809472 
L 333.68343 246.634012 
L 334.954094 250.962847 
L 336.224757 256.116221 
L 336.860089 257.971436 
L 337.495421 259.00211 
L 338.130753 244.984933 
L 342.578075 244.984933 
L 343.213407 238.388613 
L 343.848739 239.419288 
L 344.48407 241.274503 
L 347.025398 250.756712 
L 347.660729 251.581252 
L 348.296061 232.616834 
L 348.931393 230.143215 
L 349.566725 225.40211 
L 352.108052 201.696589 
L 352.743384 199.222969 
L 353.378716 193.677939 
L 354.014047 189.575853 
L 354.649379 182.031313 
L 357.190706 143.978798 
L 357.826038 140.062233 
L 358.46137 139.856098 
L 359.096702 137.176344 
L 359.732033 132.435239 
L 362.273361 108.935853 
L 362.908692 106.256098 
L 363.544024 101.514994 
L 364.179356 101.721129 
L 365.45002 101.721129 
L 366.085351 101.927264 
L 367.991347 101.927264 
L 368.626679 95.12481 
L 369.26201 96.155485 
L 369.897342 98.010699 
L 372.438669 107.492908 
L 373.074001 108.523583 
L 373.709333 87.497816 
L 374.344665 88.528491 
L 374.979996 90.383706 
L 376.885992 97.804564 
L 377.521324 99.659779 
L 378.156655 100.690454 
L 378.791987 65.441374 
L 379.427319 66.472049 
L 380.062651 68.327264 
L 381.968646 75.748123 
L 382.603978 77.603337 
L 383.23931 78.634012 
L 383.874642 64.616834 
L 384.509973 64.616834 
L 385.145305 64.822969 
L 385.780637 64.822969 
L 386.415969 65.029104 
L 387.0513 65.029104 
L 387.686632 65.235239 
L 388.321964 65.235239 
L 388.957296 83.168982 
L 389.592628 84.818061 
L 390.227959 87.910086 
L 392.769287 103.164074 
L 393.404618 104.813153 
L 394.03995 127.281865 
L 394.675282 128.930945 
L 395.310614 131.816834 
L 397.216609 144.184933 
L 397.851941 147.276957 
L 398.487273 148.926037 
L 398.487273 148.926037 
" clip-path="url(#pa7e27734af)" style="fill: none; stroke: #ff7f0e; stroke-width: 1.5; stroke-linecap: square"/>
   </g>
   <g id="patch_3">
    <path d="M 57.6 307.584 
L 57.6 41.472 
" style="fill: none; stroke: #000000; stroke-width: 0.8; stroke-linejoin: miter; stroke-linecap: square"/>
   </g>
   <g id="patch_4">
    <path d="M 414.72 307.584 
L 414.72 41.472 
" style="fill: none; stroke: #000000; stroke-width: 0.8; stroke-linejoin: miter; stroke-linecap: square"/>
   </g>
   <g id="patch_5">
    <path d="M 57.6 307.584 
L 414.72 307.584 
" style="fill: none; stroke: #000000; stroke-width: 0.8; stroke-linejoin: miter; stroke-linecap: square"/>
   </g>
   <g id="patch_6">
    <path d="M 57.6 41.472 
L 414.72 41.472 
" style="fill: none; stroke: #000000; stroke-width: 0.8; stroke-linejoin: miter; stroke-linecap: square"/>
   </g>
   <g id="text_16">
    <!-- N = 512, L = 8, M = 2, TAE = 143.74, MTAE = 0.28 -->
    <g transform="translate(82.879687 35.472) scale(0.12 -0.12)">
     <defs>
      <path id="DejaVuSans-20" transform="scale(0.015625)"/>
      <path id="DejaVuSans-3d" d="M 678 2906 
L 4684 2906 
L 4684 2381 
L 678 2381 
L 678 2906 
z
M 678 1631 
L 4684 1631 
L 4684 1100 
L 678 1100 
L 678 1631 
z
" transform="scale(0.015625)"/>
      <path id="DejaVuSans-2c" d="M 750 794 
L 1409 794 
L 1409 256 
L 897 -744 
L 494 -744 
L 750 256 
L 750 794 
z
" transform="scale(0.015625)"/>
      <path id="DejaVuSans-4c" d="M 628 4666 
L 1259 4666 
L 1259 531 
L 3531 531 
L 3531 0 
L 628 0 
L 628 4666 
z
" transform="scale(0.015625)"/>
      <path id="DejaVuSans-38" d="M 2034 2216 
Q 1584 2216 1326 1975 
Q 1069 1734 1069 1313 
Q 1069 891 1326 650 
Q 1584 409 2034 409 
Q 2484 409 2743 651 
Q 3003 894 3003 1313 
Q 3003 1734 2745 1975 
Q 2488 2216 2034 2216 
z
M 1403 2484 
Q 997 2584 770 2862 
Q 544 3141 544 3541 
Q 544 4100 942 4425 
Q 1341 4750 2034 4750 
Q 2731 4750 3128 4425 
Q 3525 4100 3525 3541 
Q 3525 3141 3298 2862 
Q 3072 2584 2669 2484 
Q 3125 2378 3379 2068 
Q 3634 1759 3634 1313 
Q 3634 634 3220 271 
Q 2806 -91 2034 -91 
Q 1263 -91 848 271 
Q 434 634 434 1313 
Q 434 1759 690 2068 
Q 947 2378 1403 2484 
z
M 1172 3481 
Q 1172 3119 1398 2916 
Q 1625 2713 2034 2713 
Q 2441 2713 2670 2916 
Q 2900 3119 2900 3481 
Q 2900 3844 2670 4047 
Q 2441 4250 2034 4250 
Q 1625 4250 1398 4047 
Q 1172 3844 1172 3481 
z
" transform="scale(0.015625)"/>
      <path id="DejaVuSans-4d" d="M 628 4666 
L 1569 4666 
L 2759 1491 
L 3956 4666 
L 4897 4666 
L 4897 0 
L 4281 0 
L 4281 4097 
L 3078 897 
L 2444 897 
L 1241 4097 
L 1241 0 
L 628 0 
L 628 4666 
z
" transform="scale(0.015625)"/>
      <path id="DejaVuSans-54" d="M -19 4666 
L 3928 4666 
L 3928 4134 
L 2272 4134 
L 2272 0 
L 1638 0 
L 1638 4134 
L -19 4134 
L -19 4666 
z
" transform="scale(0.015625)"/>
      <path id="DejaVuSans-45" d="M 628 4666 
L 3578 4666 
L 3578 4134 
L 1259 4134 
L 1259 2753 
L 3481 2753 
L 3481 2222 
L 1259 2222 
L 1259 531 
L 3634 531 
L 3634 0 
L 628 0 
L 628 4666 
z
" transform="scale(0.015625)"/>
      <path id="DejaVuSans-2e" d="M 684 794 
L 1344 794 
L 1344 0 
L 684 0 
L 684 794 
z
" transform="scale(0.015625)"/>
      <path id="DejaVuSans-37" d="M 525 4666 
L 3525 4666 
L 3525 4397 
L 1831 0 
L 1172 0 
L 2766 4134 
L 525 4134 
L 525 4666 
z
" transform="scale(0.015625)"/>
     </defs>
     <use xlink:href="#DejaVuSans-4e"/>
     <use xlink:href="#DejaVuSans-20" x="74.804688"/>
     <use xlink:href="#DejaVuSans-3d" x="106.591797"/>
     <use xlink:href="#DejaVuSans-20" x="190.380859"/>
     <use xlink:href="#DejaVuSans-35" x="222.167969"/>
     <use xlink:href="#DejaVuSans-31" x="285.791016"/>
     <use xlink:href="#DejaVuSans-32" x="349.414062"/>
     <use xlink:href="#DejaVuSans-2c" x="413.037109"/>
     <use xlink:href="#DejaVuSans-20" x="444.824219"/>
     <use xlink:href="#DejaVuSans-4c" x="476.611328"/>
     <use xlink:href="#DejaVuSans-20" x="532.324219"/>
     <use xlink:href="#DejaVuSans-3d" x="564.111328"/>
     <use xlink:href="#DejaVuSans-20" x="647.900391"/>
     <use xlink:href="#DejaVuSans-38" x="679.6875"/>
     <use xlink:href="#DejaVuSans-2c" x="743.310547"/>
     <use xlink:href="#DejaVuSans-20" x="775.097656"/>
     <use xlink:href="#DejaVuSans-4d" x="806.884766"/>
     <use xlink:href="#DejaVuSans-20" x="893.164062"/>
     <use xlink:href="#DejaVuSans-3d" x="924.951172"/>
     <use xlink:href="#DejaVuSans-20" x="1008.740234"/>
     <use xlink:href="#DejaVuSans-32" x="1040.527344"/>
     <use xlink:href="#DejaVuSans-2c" x="1104.150391"/>
     <use xlink:href="#DejaVuSans-20" x="1135.9375"/>
     <use xlink:href="#DejaVuSans-54" x="1167.724609"/>
     <use xlink:href="#DejaVuSans-41" x="1221.058594"/>
     <use xlink:href="#DejaVuSans-45" x="1289.466797"/>
     <use xlink:href="#DejaVuSans-20" x="1352.650391"/>
     <use xlink:href="#DejaVuSans-3d" x="1384.4375"/>
     <use xlink:href="#DejaVuSans-20" x="1468.226562"/>
     <use xlink:href="#DejaVuSans-31" x="1500.013672"/>
     <use xlink:href="#DejaVuSans-34" x="1563.636719"/>
     <use xlink:href="#DejaVuSans-33" x="1627.259766"/>
     <use xlink:href="#DejaVuSans-2e" x="1690.882812"/>
     <use xlink:href="#DejaVuSans-37" x="1722.669922"/>
     <use xlink:href="#DejaVuSans-34" x="1786.292969"/>
     <use xlink:href="#DejaVuSans-2c" x="1849.916016"/>
     <use xlink:href="#DejaVuSans-20" x="1881.703125"/>
     <use xlink:href="#DejaVuSans-4d" x="1913.490234"/>
     <use xlink:href="#DejaVuSans-54" x="1999.769531"/>
     <use xlink:href="#DejaVuSans-41" x="2053.103516"/>
     <use xlink:href="#DejaVuSans-45" x="2121.511719"/>
     <use xlink:href="#DejaVuSans-20" x="2184.695312"/>
     <use xlink:href="#DejaVuSans-3d" x="2216.482422"/>
     <use xlink:href="#DejaVuSans-20" x="2300.271484"/>
     <use xlink:href="#DejaVuSans-30" x="2332.058594"/>
     <use xlink:href="#DejaVuSans-2e" x="2395.681641"/>
     <use xlink:href="#DejaVuSans-32" x="2427.46875"/>
     <use xlink:href="#DejaVuSans-38" x="2491.091797"/>
    </g>
   </g>
   <g id="legend_1">
    <g id="patch_7">
     <path d="M 269.795 302.584 
L 407.72 302.584 
Q 409.72 302.584 409.72 300.584 
L 409.72 272.22775 
Q 409.72 270.22775 407.72 270.22775 
L 269.795 270.22775 
Q 267.795 270.22775 267.795 272.22775 
L 267.795 300.584 
Q 267.795 302.584 269.795 302.584 
z
" style="fill: #ffffff; opacity: 0.8; stroke: #cccccc; stroke-linejoin: miter"/>
    </g>
    <g id="line2d_29">
     <path d="M 271.795 278.326187 
L 281.795 278.326187 
L 291.795 278.326187 
" style="fill: none; stroke: #1f77b4; stroke-width: 1.5; stroke-linecap: square"/>
    </g>
    <g id="text_17">
     <!-- signal -->
     <g transform="translate(299.795 281.826187) scale(0.1 -0.1)">
      <defs>
       <path id="DejaVuSans-69" d="M 603 3500 
L 1178 3500 
L 1178 0 
L 603 0 
L 603 3500 
z
M 603 4863 
L 1178 4863 
L 1178 4134 
L 603 4134 
L 603 4863 
z
" transform="scale(0.015625)"/>
       <path id="DejaVuSans-67" d="M 2906 1791 
Q 2906 2416 2648 2759 
Q 2391 3103 1925 3103 
Q 1463 3103 1205 2759 
Q 947 2416 947 1791 
Q 947 1169 1205 825 
Q 1463 481 1925 481 
Q 2391 481 2648 825 
Q 2906 1169 2906 1791 
z
M 3481 434 
Q 3481 -459 3084 -895 
Q 2688 -1331 1869 -1331 
Q 1566 -1331 1297 -1286 
Q 1028 -1241 775 -1147 
L 775 -588 
Q 1028 -725 1275 -790 
Q 1522 -856 1778 -856 
Q 2344 -856 2625 -561 
Q 2906 -266 2906 331 
L 2906 616 
Q 2728 306 2450 153 
Q 2172 0 1784 0 
Q 1141 0 747 490 
Q 353 981 353 1791 
Q 353 2603 747 3093 
Q 1141 3584 1784 3584 
Q 2172 3584 2450 3431 
Q 2728 3278 2906 2969 
L 2906 3500 
L 3481 3500 
L 3481 434 
z
" transform="scale(0.015625)"/>
       <path id="DejaVuSans-6e" d="M 3513 2113 
L 3513 0 
L 2938 0 
L 2938 2094 
Q 2938 2591 2744 2837 
Q 2550 3084 2163 3084 
Q 1697 3084 1428 2787 
Q 1159 2491 1159 1978 
L 1159 0 
L 581 0 
L 581 3500 
L 1159 3500 
L 1159 2956 
Q 1366 3272 1645 3428 
Q 1925 3584 2291 3584 
Q 2894 3584 3203 3211 
Q 3513 2838 3513 2113 
z
" transform="scale(0.015625)"/>
      </defs>
      <use xlink:href="#DejaVuSans-73"/>
      <use xlink:href="#DejaVuSans-69" x="52.099609"/>
      <use xlink:href="#DejaVuSans-67" x="79.882812"/>
      <use xlink:href="#DejaVuSans-6e" x="143.359375"/>
      <use xlink:href="#DejaVuSans-61" x="206.738281"/>
      <use xlink:href="#DejaVuSans-6c" x="268.017578"/>
     </g>
    </g>
    <g id="line2d_30">
     <path d="M 271.795 293.004312 
L 281.795 293.004312 
L 291.795 293.004312 
" style="fill: none; stroke: #ff7f0e; stroke-width: 1.5; stroke-linecap: square"/>
    </g>
    <g id="text_18">
     <!-- decompressed signal -->
     <g transform="translate(299.795 296.504312) scale(0.1 -0.1)">
      <defs>
       <path id="DejaVuSans-64" d="M 2906 2969 
L 2906 4863 
L 3481 4863 
L 3481 0 
L 2906 0 
L 2906 525 
Q 2725 213 2448 61 
Q 2172 -91 1784 -91 
Q 1150 -91 751 415 
Q 353 922 353 1747 
Q 353 2572 751 3078 
Q 1150 3584 1784 3584 
Q 2172 3584 2448 3432 
Q 2725 3281 2906 2969 
z
M 947 1747 
Q 947 1113 1208 752 
Q 1469 391 1925 391 
Q 2381 391 2643 752 
Q 2906 1113 2906 1747 
Q 2906 2381 2643 2742 
Q 2381 3103 1925 3103 
Q 1469 3103 1208 2742 
Q 947 2381 947 1747 
z
" transform="scale(0.015625)"/>
       <path id="DejaVuSans-63" d="M 3122 3366 
L 3122 2828 
Q 2878 2963 2633 3030 
Q 2388 3097 2138 3097 
Q 1578 3097 1268 2742 
Q 959 2388 959 1747 
Q 959 1106 1268 751 
Q 1578 397 2138 397 
Q 2388 397 2633 464 
Q 2878 531 3122 666 
L 3122 134 
Q 2881 22 2623 -34 
Q 2366 -91 2075 -91 
Q 1284 -91 818 406 
Q 353 903 353 1747 
Q 353 2603 823 3093 
Q 1294 3584 2113 3584 
Q 2378 3584 2631 3529 
Q 2884 3475 3122 3366 
z
" transform="scale(0.015625)"/>
       <path id="DejaVuSans-6f" d="M 1959 3097 
Q 1497 3097 1228 2736 
Q 959 2375 959 1747 
Q 959 1119 1226 758 
Q 1494 397 1959 397 
Q 2419 397 2687 759 
Q 2956 1122 2956 1747 
Q 2956 2369 2687 2733 
Q 2419 3097 1959 3097 
z
M 1959 3584 
Q 2709 3584 3137 3096 
Q 3566 2609 3566 1747 
Q 3566 888 3137 398 
Q 2709 -91 1959 -91 
Q 1206 -91 779 398 
Q 353 888 353 1747 
Q 353 2609 779 3096 
Q 1206 3584 1959 3584 
z
" transform="scale(0.015625)"/>
       <path id="DejaVuSans-72" d="M 2631 2963 
Q 2534 3019 2420 3045 
Q 2306 3072 2169 3072 
Q 1681 3072 1420 2755 
Q 1159 2438 1159 1844 
L 1159 0 
L 581 0 
L 581 3500 
L 1159 3500 
L 1159 2956 
Q 1341 3275 1631 3429 
Q 1922 3584 2338 3584 
Q 2397 3584 2469 3576 
Q 2541 3569 2628 3553 
L 2631 2963 
z
" transform="scale(0.015625)"/>
      </defs>
      <use xlink:href="#DejaVuSans-64"/>
      <use xlink:href="#DejaVuSans-65" x="63.476562"/>
      <use xlink:href="#DejaVuSans-63" x="125"/>
      <use xlink:href="#DejaVuSans-6f" x="179.980469"/>
      <use xlink:href="#DejaVuSans-6d" x="241.162109"/>
      <use xlink:href="#DejaVuSans-70" x="338.574219"/>
      <use xlink:href="#DejaVuSans-72" x="402.050781"/>
      <use xlink:href="#DejaVuSans-65" x="440.914062"/>
      <use xlink:href="#DejaVuSans-73" x="502.4375"/>
      <use xlink:href="#DejaVuSans-73" x="554.537109"/>
      <use xlink:href="#DejaVuSans-65" x="606.636719"/>
      <use xlink:href="#DejaVuSans-64" x="668.160156"/>
      <use xlink:href="#DejaVuSans-20" x="731.636719"/>
      <use xlink:href="#DejaVuSans-73" x="763.423828"/>
      <use xlink:href="#DejaVuSans-69" x="815.523438"/>
      <use xlink:href="#DejaVuSans-67" x="843.306641"/>
      <use xlink:href="#DejaVuSans-6e" x="906.783203"/>
      <use xlink:href="#DejaVuSans-61" x="970.162109"/>
      <use xlink:href="#DejaVuSans-6c" x="1031.441406"/>
     </g>
    </g>
   </g>
  </g>
 </g>
 <defs>
  <clipPath id="pa7e27734af">
   <rect x="57.6" y="41.472" width="357.12" height="266.112"/>
  </clipPath>
 </defs>
</svg>
