<?xml version="1.0" encoding="utf-8" standalone="no"?>
<!DOCTYPE svg PUBLIC "-//W3C//DTD SVG 1.1//EN"
  "http://www.w3.org/Graphics/SVG/1.1/DTD/svg11.dtd">
<svg xmlns:xlink="http://www.w3.org/1999/xlink" width="460.8pt" height="345.6pt" viewBox="0 0 460.8 345.6" xmlns="http://www.w3.org/2000/svg" version="1.1">
 <metadata>
  <rdf:RDF xmlns:dc="http://purl.org/dc/elements/1.1/" xmlns:cc="http://creativecommons.org/ns#" xmlns:rdf="http://www.w3.org/1999/02/22-rdf-syntax-ns#">
   <cc:Work>
    <dc:type rdf:resource="http://purl.org/dc/dcmitype/StillImage"/>
    <dc:date>2022-09-30T11:33:30.358826</dc:date>
    <dc:format>image/svg+xml</dc:format>
    <dc:creator>
     <cc:Agent>
      <dc:title>Matplotlib v3.6.0, https://matplotlib.org/</dc:title>
     </cc:Agent>
    </dc:creator>
   </cc:Work>
  </rdf:RDF>
 </metadata>
 <defs>
  <style type="text/css">*{stroke-linejoin: round; stroke-linecap: butt}</style>
 </defs>
 <g id="figure_1">
  <g id="patch_1">
   <path d="M 0 345.6 
L 460.8 345.6 
L 460.8 0 
L 0 0 
z
" style="fill: #ffffff"/>
  </g>
  <g id="axes_1">
   <g id="patch_2">
    <path d="M 57.6 307.584 
L 414.72 307.584 
L 414.72 41.472 
L 57.6 41.472 
z
" style="fill: #ffffff"/>
   </g>
   <g id="matplotlib.axis_1">
    <g id="xtick_1">
     <g id="line2d_1">
      <path d="M 73.832727 307.584 
L 73.832727 41.472 
" clip-path="url(#pc67fdd7df3)" style="fill: none; stroke: #b0b0b0; stroke-width: 0.8; stroke-linecap: square"/>
     </g>
     <g id="line2d_2">
      <defs>
       <path id="m8a22315a8a" d="M 0 0 
L 0 3.5 
" style="stroke: #000000; stroke-width: 0.8"/>
      </defs>
      <g>
       <use xlink:href="#m8a22315a8a" x="73.832727" y="307.584" style="stroke: #000000; stroke-width: 0.8"/>
      </g>
     </g>
     <g id="text_1">
      <!-- 0 -->
      <g transform="translate(70.651477 322.182437) scale(0.1 -0.1)">
       <defs>
        <path id="DejaVuSans-30" d="M 2034 4250 
Q 1547 4250 1301 3770 
Q 1056 3291 1056 2328 
Q 1056 1369 1301 889 
Q 1547 409 2034 409 
Q 2525 409 2770 889 
Q 3016 1369 3016 2328 
Q 3016 3291 2770 3770 
Q 2525 4250 2034 4250 
z
M 2034 4750 
Q 2819 4750 3233 4129 
Q 3647 3509 3647 2328 
Q 3647 1150 3233 529 
Q 2819 -91 2034 -91 
Q 1250 -91 836 529 
Q 422 1150 422 2328 
Q 422 3509 836 4129 
Q 1250 4750 2034 4750 
z
" transform="scale(0.015625)"/>
       </defs>
       <use xlink:href="#DejaVuSans-30"/>
      </g>
     </g>
    </g>
    <g id="xtick_2">
     <g id="line2d_3">
      <path d="M 137.365906 307.584 
L 137.365906 41.472 
" clip-path="url(#pc67fdd7df3)" style="fill: none; stroke: #b0b0b0; stroke-width: 0.8; stroke-linecap: square"/>
     </g>
     <g id="line2d_4">
      <g>
       <use xlink:href="#m8a22315a8a" x="137.365906" y="307.584" style="stroke: #000000; stroke-width: 0.8"/>
      </g>
     </g>
     <g id="text_2">
      <!-- 100 -->
      <g transform="translate(127.822156 322.182437) scale(0.1 -0.1)">
       <defs>
        <path id="DejaVuSans-31" d="M 794 531 
L 1825 531 
L 1825 4091 
L 703 3866 
L 703 4441 
L 1819 4666 
L 2450 4666 
L 2450 531 
L 3481 531 
L 3481 0 
L 794 0 
L 794 531 
z
" transform="scale(0.015625)"/>
       </defs>
       <use xlink:href="#DejaVuSans-31"/>
       <use xlink:href="#DejaVuSans-30" x="63.623047"/>
       <use xlink:href="#DejaVuSans-30" x="127.246094"/>
      </g>
     </g>
    </g>
    <g id="xtick_3">
     <g id="line2d_5">
      <path d="M 200.899086 307.584 
L 200.899086 41.472 
" clip-path="url(#pc67fdd7df3)" style="fill: none; stroke: #b0b0b0; stroke-width: 0.8; stroke-linecap: square"/>
     </g>
     <g id="line2d_6">
      <g>
       <use xlink:href="#m8a22315a8a" x="200.899086" y="307.584" style="stroke: #000000; stroke-width: 0.8"/>
      </g>
     </g>
     <g id="text_3">
      <!-- 200 -->
      <g transform="translate(191.355336 322.182437) scale(0.1 -0.1)">
       <defs>
        <path id="DejaVuSans-32" d="M 1228 531 
L 3431 531 
L 3431 0 
L 469 0 
L 469 531 
Q 828 903 1448 1529 
Q 2069 2156 2228 2338 
Q 2531 2678 2651 2914 
Q 2772 3150 2772 3378 
Q 2772 3750 2511 3984 
Q 2250 4219 1831 4219 
Q 1534 4219 1204 4116 
Q 875 4013 500 3803 
L 500 4441 
Q 881 4594 1212 4672 
Q 1544 4750 1819 4750 
Q 2544 4750 2975 4387 
Q 3406 4025 3406 3419 
Q 3406 3131 3298 2873 
Q 3191 2616 2906 2266 
Q 2828 2175 2409 1742 
Q 1991 1309 1228 531 
z
" transform="scale(0.015625)"/>
       </defs>
       <use xlink:href="#DejaVuSans-32"/>
       <use xlink:href="#DejaVuSans-30" x="63.623047"/>
       <use xlink:href="#DejaVuSans-30" x="127.246094"/>
      </g>
     </g>
    </g>
    <g id="xtick_4">
     <g id="line2d_7">
      <path d="M 264.432265 307.584 
L 264.432265 41.472 
" clip-path="url(#pc67fdd7df3)" style="fill: none; stroke: #b0b0b0; stroke-width: 0.8; stroke-linecap: square"/>
     </g>
     <g id="line2d_8">
      <g>
       <use xlink:href="#m8a22315a8a" x="264.432265" y="307.584" style="stroke: #000000; stroke-width: 0.8"/>
      </g>
     </g>
     <g id="text_4">
      <!-- 300 -->
      <g transform="translate(254.888515 322.182437) scale(0.1 -0.1)">
       <defs>
        <path id="DejaVuSans-33" d="M 2597 2516 
Q 3050 2419 3304 2112 
Q 3559 1806 3559 1356 
Q 3559 666 3084 287 
Q 2609 -91 1734 -91 
Q 1441 -91 1130 -33 
Q 819 25 488 141 
L 488 750 
Q 750 597 1062 519 
Q 1375 441 1716 441 
Q 2309 441 2620 675 
Q 2931 909 2931 1356 
Q 2931 1769 2642 2001 
Q 2353 2234 1838 2234 
L 1294 2234 
L 1294 2753 
L 1863 2753 
Q 2328 2753 2575 2939 
Q 2822 3125 2822 3475 
Q 2822 3834 2567 4026 
Q 2313 4219 1838 4219 
Q 1578 4219 1281 4162 
Q 984 4106 628 3988 
L 628 4550 
Q 988 4650 1302 4700 
Q 1616 4750 1894 4750 
Q 2613 4750 3031 4423 
Q 3450 4097 3450 3541 
Q 3450 3153 3228 2886 
Q 3006 2619 2597 2516 
z
" transform="scale(0.015625)"/>
       </defs>
       <use xlink:href="#DejaVuSans-33"/>
       <use xlink:href="#DejaVuSans-30" x="63.623047"/>
       <use xlink:href="#DejaVuSans-30" x="127.246094"/>
      </g>
     </g>
    </g>
    <g id="xtick_5">
     <g id="line2d_9">
      <path d="M 327.965444 307.584 
L 327.965444 41.472 
" clip-path="url(#pc67fdd7df3)" style="fill: none; stroke: #b0b0b0; stroke-width: 0.8; stroke-linecap: square"/>
     </g>
     <g id="line2d_10">
      <g>
       <use xlink:href="#m8a22315a8a" x="327.965444" y="307.584" style="stroke: #000000; stroke-width: 0.8"/>
      </g>
     </g>
     <g id="text_5">
      <!-- 400 -->
      <g transform="translate(318.421694 322.182437) scale(0.1 -0.1)">
       <defs>
        <path id="DejaVuSans-34" d="M 2419 4116 
L 825 1625 
L 2419 1625 
L 2419 4116 
z
M 2253 4666 
L 3047 4666 
L 3047 1625 
L 3713 1625 
L 3713 1100 
L 3047 1100 
L 3047 0 
L 2419 0 
L 2419 1100 
L 313 1100 
L 313 1709 
L 2253 4666 
z
" transform="scale(0.015625)"/>
       </defs>
       <use xlink:href="#DejaVuSans-34"/>
       <use xlink:href="#DejaVuSans-30" x="63.623047"/>
       <use xlink:href="#DejaVuSans-30" x="127.246094"/>
      </g>
     </g>
    </g>
    <g id="xtick_6">
     <g id="line2d_11">
      <path d="M 391.498623 307.584 
L 391.498623 41.472 
" clip-path="url(#pc67fdd7df3)" style="fill: none; stroke: #b0b0b0; stroke-width: 0.8; stroke-linecap: square"/>
     </g>
     <g id="line2d_12">
      <g>
       <use xlink:href="#m8a22315a8a" x="391.498623" y="307.584" style="stroke: #000000; stroke-width: 0.8"/>
      </g>
     </g>
     <g id="text_6">
      <!-- 500 -->
      <g transform="translate(381.954873 322.182437) scale(0.1 -0.1)">
       <defs>
        <path id="DejaVuSans-35" d="M 691 4666 
L 3169 4666 
L 3169 4134 
L 1269 4134 
L 1269 2991 
Q 1406 3038 1543 3061 
Q 1681 3084 1819 3084 
Q 2600 3084 3056 2656 
Q 3513 2228 3513 1497 
Q 3513 744 3044 326 
Q 2575 -91 1722 -91 
Q 1428 -91 1123 -41 
Q 819 9 494 109 
L 494 744 
Q 775 591 1075 516 
Q 1375 441 1709 441 
Q 2250 441 2565 725 
Q 2881 1009 2881 1497 
Q 2881 1984 2565 2268 
Q 2250 2553 1709 2553 
Q 1456 2553 1204 2497 
Q 953 2441 691 2322 
L 691 4666 
z
" transform="scale(0.015625)"/>
       </defs>
       <use xlink:href="#DejaVuSans-35"/>
       <use xlink:href="#DejaVuSans-30" x="63.623047"/>
       <use xlink:href="#DejaVuSans-30" x="127.246094"/>
      </g>
     </g>
    </g>
    <g id="text_7">
     <!-- samples -->
     <g transform="translate(215.376406 335.860562) scale(0.1 -0.1)">
      <defs>
       <path id="DejaVuSans-73" d="M 2834 3397 
L 2834 2853 
Q 2591 2978 2328 3040 
Q 2066 3103 1784 3103 
Q 1356 3103 1142 2972 
Q 928 2841 928 2578 
Q 928 2378 1081 2264 
Q 1234 2150 1697 2047 
L 1894 2003 
Q 2506 1872 2764 1633 
Q 3022 1394 3022 966 
Q 3022 478 2636 193 
Q 2250 -91 1575 -91 
Q 1294 -91 989 -36 
Q 684 19 347 128 
L 347 722 
Q 666 556 975 473 
Q 1284 391 1588 391 
Q 1994 391 2212 530 
Q 2431 669 2431 922 
Q 2431 1156 2273 1281 
Q 2116 1406 1581 1522 
L 1381 1569 
Q 847 1681 609 1914 
Q 372 2147 372 2553 
Q 372 3047 722 3315 
Q 1072 3584 1716 3584 
Q 2034 3584 2315 3537 
Q 2597 3491 2834 3397 
z
" transform="scale(0.015625)"/>
       <path id="DejaVuSans-61" d="M 2194 1759 
Q 1497 1759 1228 1600 
Q 959 1441 959 1056 
Q 959 750 1161 570 
Q 1363 391 1709 391 
Q 2188 391 2477 730 
Q 2766 1069 2766 1631 
L 2766 1759 
L 2194 1759 
z
M 3341 1997 
L 3341 0 
L 2766 0 
L 2766 531 
Q 2569 213 2275 61 
Q 1981 -91 1556 -91 
Q 1019 -91 701 211 
Q 384 513 384 1019 
Q 384 1609 779 1909 
Q 1175 2209 1959 2209 
L 2766 2209 
L 2766 2266 
Q 2766 2663 2505 2880 
Q 2244 3097 1772 3097 
Q 1472 3097 1187 3025 
Q 903 2953 641 2809 
L 641 3341 
Q 956 3463 1253 3523 
Q 1550 3584 1831 3584 
Q 2591 3584 2966 3190 
Q 3341 2797 3341 1997 
z
" transform="scale(0.015625)"/>
       <path id="DejaVuSans-6d" d="M 3328 2828 
Q 3544 3216 3844 3400 
Q 4144 3584 4550 3584 
Q 5097 3584 5394 3201 
Q 5691 2819 5691 2113 
L 5691 0 
L 5113 0 
L 5113 2094 
Q 5113 2597 4934 2840 
Q 4756 3084 4391 3084 
Q 3944 3084 3684 2787 
Q 3425 2491 3425 1978 
L 3425 0 
L 2847 0 
L 2847 2094 
Q 2847 2600 2669 2842 
Q 2491 3084 2119 3084 
Q 1678 3084 1418 2786 
Q 1159 2488 1159 1978 
L 1159 0 
L 581 0 
L 581 3500 
L 1159 3500 
L 1159 2956 
Q 1356 3278 1631 3431 
Q 1906 3584 2284 3584 
Q 2666 3584 2933 3390 
Q 3200 3197 3328 2828 
z
" transform="scale(0.015625)"/>
       <path id="DejaVuSans-70" d="M 1159 525 
L 1159 -1331 
L 581 -1331 
L 581 3500 
L 1159 3500 
L 1159 2969 
Q 1341 3281 1617 3432 
Q 1894 3584 2278 3584 
Q 2916 3584 3314 3078 
Q 3713 2572 3713 1747 
Q 3713 922 3314 415 
Q 2916 -91 2278 -91 
Q 1894 -91 1617 61 
Q 1341 213 1159 525 
z
M 3116 1747 
Q 3116 2381 2855 2742 
Q 2594 3103 2138 3103 
Q 1681 3103 1420 2742 
Q 1159 2381 1159 1747 
Q 1159 1113 1420 752 
Q 1681 391 2138 391 
Q 2594 391 2855 752 
Q 3116 1113 3116 1747 
z
" transform="scale(0.015625)"/>
       <path id="DejaVuSans-6c" d="M 603 4863 
L 1178 4863 
L 1178 0 
L 603 0 
L 603 4863 
z
" transform="scale(0.015625)"/>
       <path id="DejaVuSans-65" d="M 3597 1894 
L 3597 1613 
L 953 1613 
Q 991 1019 1311 708 
Q 1631 397 2203 397 
Q 2534 397 2845 478 
Q 3156 559 3463 722 
L 3463 178 
Q 3153 47 2828 -22 
Q 2503 -91 2169 -91 
Q 1331 -91 842 396 
Q 353 884 353 1716 
Q 353 2575 817 3079 
Q 1281 3584 2069 3584 
Q 2775 3584 3186 3129 
Q 3597 2675 3597 1894 
z
M 3022 2063 
Q 3016 2534 2758 2815 
Q 2500 3097 2075 3097 
Q 1594 3097 1305 2825 
Q 1016 2553 972 2059 
L 3022 2063 
z
" transform="scale(0.015625)"/>
      </defs>
      <use xlink:href="#DejaVuSans-73"/>
      <use xlink:href="#DejaVuSans-61" x="52.099609"/>
      <use xlink:href="#DejaVuSans-6d" x="113.378906"/>
      <use xlink:href="#DejaVuSans-70" x="210.791016"/>
      <use xlink:href="#DejaVuSans-6c" x="274.267578"/>
      <use xlink:href="#DejaVuSans-65" x="302.050781"/>
      <use xlink:href="#DejaVuSans-73" x="363.574219"/>
     </g>
    </g>
   </g>
   <g id="matplotlib.axis_2">
    <g id="ytick_1">
     <g id="line2d_13">
      <path d="M 57.6 289.870663 
L 414.72 289.870663 
" clip-path="url(#pc67fdd7df3)" style="fill: none; stroke: #b0b0b0; stroke-width: 0.8; stroke-linecap: square"/>
     </g>
     <g id="line2d_14">
      <defs>
       <path id="me1a825bbac" d="M 0 0 
L -3.5 0 
" style="stroke: #000000; stroke-width: 0.8"/>
      </defs>
      <g>
       <use xlink:href="#me1a825bbac" x="57.6" y="289.870663" style="stroke: #000000; stroke-width: 0.8"/>
      </g>
     </g>
     <g id="text_8">
      <!-- −6 -->
      <g transform="translate(35.857813 293.669881) scale(0.1 -0.1)">
       <defs>
        <path id="DejaVuSans-2212" d="M 678 2272 
L 4684 2272 
L 4684 1741 
L 678 1741 
L 678 2272 
z
" transform="scale(0.015625)"/>
        <path id="DejaVuSans-36" d="M 2113 2584 
Q 1688 2584 1439 2293 
Q 1191 2003 1191 1497 
Q 1191 994 1439 701 
Q 1688 409 2113 409 
Q 2538 409 2786 701 
Q 3034 994 3034 1497 
Q 3034 2003 2786 2293 
Q 2538 2584 2113 2584 
z
M 3366 4563 
L 3366 3988 
Q 3128 4100 2886 4159 
Q 2644 4219 2406 4219 
Q 1781 4219 1451 3797 
Q 1122 3375 1075 2522 
Q 1259 2794 1537 2939 
Q 1816 3084 2150 3084 
Q 2853 3084 3261 2657 
Q 3669 2231 3669 1497 
Q 3669 778 3244 343 
Q 2819 -91 2113 -91 
Q 1303 -91 875 529 
Q 447 1150 447 2328 
Q 447 3434 972 4092 
Q 1497 4750 2381 4750 
Q 2619 4750 2861 4703 
Q 3103 4656 3366 4563 
z
" transform="scale(0.015625)"/>
       </defs>
       <use xlink:href="#DejaVuSans-2212"/>
       <use xlink:href="#DejaVuSans-36" x="83.789062"/>
      </g>
     </g>
    </g>
    <g id="ytick_2">
     <g id="line2d_15">
      <path d="M 57.6 252.421746 
L 414.72 252.421746 
" clip-path="url(#pc67fdd7df3)" style="fill: none; stroke: #b0b0b0; stroke-width: 0.8; stroke-linecap: square"/>
     </g>
     <g id="line2d_16">
      <g>
       <use xlink:href="#me1a825bbac" x="57.6" y="252.421746" style="stroke: #000000; stroke-width: 0.8"/>
      </g>
     </g>
     <g id="text_9">
      <!-- −4 -->
      <g transform="translate(35.857813 256.220965) scale(0.1 -0.1)">
       <use xlink:href="#DejaVuSans-2212"/>
       <use xlink:href="#DejaVuSans-34" x="83.789062"/>
      </g>
     </g>
    </g>
    <g id="ytick_3">
     <g id="line2d_17">
      <path d="M 57.6 214.97283 
L 414.72 214.97283 
" clip-path="url(#pc67fdd7df3)" style="fill: none; stroke: #b0b0b0; stroke-width: 0.8; stroke-linecap: square"/>
     </g>
     <g id="line2d_18">
      <g>
       <use xlink:href="#me1a825bbac" x="57.6" y="214.97283" style="stroke: #000000; stroke-width: 0.8"/>
      </g>
     </g>
     <g id="text_10">
      <!-- −2 -->
      <g transform="translate(35.857813 218.772048) scale(0.1 -0.1)">
       <use xlink:href="#DejaVuSans-2212"/>
       <use xlink:href="#DejaVuSans-32" x="83.789062"/>
      </g>
     </g>
    </g>
    <g id="ytick_4">
     <g id="line2d_19">
      <path d="M 57.6 177.523913 
L 414.72 177.523913 
" clip-path="url(#pc67fdd7df3)" style="fill: none; stroke: #b0b0b0; stroke-width: 0.8; stroke-linecap: square"/>
     </g>
     <g id="line2d_20">
      <g>
       <use xlink:href="#me1a825bbac" x="57.6" y="177.523913" style="stroke: #000000; stroke-width: 0.8"/>
      </g>
     </g>
     <g id="text_11">
      <!-- 0 -->
      <g transform="translate(44.2375 181.323132) scale(0.1 -0.1)">
       <use xlink:href="#DejaVuSans-30"/>
      </g>
     </g>
    </g>
    <g id="ytick_5">
     <g id="line2d_21">
      <path d="M 57.6 140.074997 
L 414.72 140.074997 
" clip-path="url(#pc67fdd7df3)" style="fill: none; stroke: #b0b0b0; stroke-width: 0.8; stroke-linecap: square"/>
     </g>
     <g id="line2d_22">
      <g>
       <use xlink:href="#me1a825bbac" x="57.6" y="140.074997" style="stroke: #000000; stroke-width: 0.8"/>
      </g>
     </g>
     <g id="text_12">
      <!-- 2 -->
      <g transform="translate(44.2375 143.874216) scale(0.1 -0.1)">
       <use xlink:href="#DejaVuSans-32"/>
      </g>
     </g>
    </g>
    <g id="ytick_6">
     <g id="line2d_23">
      <path d="M 57.6 102.62608 
L 414.72 102.62608 
" clip-path="url(#pc67fdd7df3)" style="fill: none; stroke: #b0b0b0; stroke-width: 0.8; stroke-linecap: square"/>
     </g>
     <g id="line2d_24">
      <g>
       <use xlink:href="#me1a825bbac" x="57.6" y="102.62608" style="stroke: #000000; stroke-width: 0.8"/>
      </g>
     </g>
     <g id="text_13">
      <!-- 4 -->
      <g transform="translate(44.2375 106.425299) scale(0.1 -0.1)">
       <use xlink:href="#DejaVuSans-34"/>
      </g>
     </g>
    </g>
    <g id="ytick_7">
     <g id="line2d_25">
      <path d="M 57.6 65.177164 
L 414.72 65.177164 
" clip-path="url(#pc67fdd7df3)" style="fill: none; stroke: #b0b0b0; stroke-width: 0.8; stroke-linecap: square"/>
     </g>
     <g id="line2d_26">
      <g>
       <use xlink:href="#me1a825bbac" x="57.6" y="65.177164" style="stroke: #000000; stroke-width: 0.8"/>
      </g>
     </g>
     <g id="text_14">
      <!-- 6 -->
      <g transform="translate(44.2375 68.976383) scale(0.1 -0.1)">
       <use xlink:href="#DejaVuSans-36"/>
      </g>
     </g>
    </g>
    <g id="text_15">
     <!-- N/A -->
     <g transform="translate(29.778125 183.373312) rotate(-90) scale(0.1 -0.1)">
      <defs>
       <path id="DejaVuSans-4e" d="M 628 4666 
L 1478 4666 
L 3547 763 
L 3547 4666 
L 4159 4666 
L 4159 0 
L 3309 0 
L 1241 3903 
L 1241 0 
L 628 0 
L 628 4666 
z
" transform="scale(0.015625)"/>
       <path id="DejaVuSans-2f" d="M 1625 4666 
L 2156 4666 
L 531 -594 
L 0 -594 
L 1625 4666 
z
" transform="scale(0.015625)"/>
       <path id="DejaVuSans-41" d="M 2188 4044 
L 1331 1722 
L 3047 1722 
L 2188 4044 
z
M 1831 4666 
L 2547 4666 
L 4325 0 
L 3669 0 
L 3244 1197 
L 1141 1197 
L 716 0 
L 50 0 
L 1831 4666 
z
" transform="scale(0.015625)"/>
      </defs>
      <use xlink:href="#DejaVuSans-4e"/>
      <use xlink:href="#DejaVuSans-2f" x="74.804688"/>
      <use xlink:href="#DejaVuSans-41" x="108.496094"/>
     </g>
    </g>
   </g>
   <g id="line2d_27">
    <path d="M 73.832727 84.912743 
L 74.468059 84.351009 
L 75.103391 79.969486 
L 75.738723 77.722551 
L 76.374054 76.468012 
L 77.009386 74.408322 
L 77.644718 75.887554 
L 78.915382 67.498997 
L 79.550713 69.933176 
L 80.186045 68.528842 
L 80.821377 75.32582 
L 81.456709 77.348062 
L 82.092041 76.561635 
L 82.727372 79.969486 
L 83.362704 86.448149 
L 83.998036 89.706204 
L 84.633368 92.177833 
L 85.2687 98.5067 
L 85.904031 106.61439 
L 87.174695 116.538353 
L 87.810027 124.402625 
L 88.445358 129.608025 
L 89.08069 130.282105 
L 89.716022 135.000669 
L 90.351354 144.999529 
L 90.986686 143.819889 
L 91.622017 150.541969 
L 92.257349 159.679505 
L 92.892681 162.319653 
L 93.528013 160.465932 
L 94.163345 164.622762 
L 94.798676 163.218427 
L 95.434008 174.059889 
L 96.06934 172.992594 
L 96.704672 175.726365 
L 97.340004 173.891368 
L 97.975335 174.19096 
L 98.610667 178.872074 
L 99.245999 179.583604 
L 99.881331 176.568966 
L 100.516663 182.560793 
L 101.151994 178.478861 
L 101.787326 183.590638 
L 102.422658 181.568396 
L 103.05799 182.991455 
L 103.693321 184.957523 
L 104.328653 187.635121 
L 104.963985 188.814762 
L 106.234649 196.866279 
L 106.86998 199.263009 
L 111.317303 237.348557 
L 111.952635 240.981102 
L 112.587967 248.676854 
L 113.223298 254.893375 
L 113.85863 258.975307 
L 115.764626 274.198291 
L 116.399957 276.314155 
L 117.035289 277.980632 
L 117.670621 280.920372 
L 118.305953 282.437053 
L 118.941284 282.998786 
L 119.576616 285.638935 
L 120.211948 283.148582 
L 120.84728 284.665263 
L 121.482612 282.736644 
L 122.117943 278.298947 
L 122.753275 280.7893 
L 123.388607 276.595022 
L 124.023939 270.846613 
L 125.294602 267.214068 
L 125.929934 269.798043 
L 126.565266 263.319381 
L 127.200598 262.495505 
L 127.83593 257.327554 
L 128.471261 256.990514 
L 129.106593 250.081189 
L 129.741925 248.527059 
L 130.377257 247.77808 
L 131.012589 245.194105 
L 131.64792 244.445127 
L 132.283252 242.216916 
L 132.918584 243.602526 
L 133.553916 238.509474 
L 134.189247 246.355022 
L 134.824579 245.194105 
L 135.459911 240.063604 
L 136.095243 242.647579 
L 136.730575 240.868755 
L 137.365906 242.741201 
L 138.001238 241.917325 
L 138.63657 245.400074 
L 139.271902 245.231554 
L 139.907234 246.373746 
L 140.542565 243.452731 
L 141.177897 242.347988 
L 141.813229 239.801461 
L 142.448561 236.39361 
L 143.083893 237.872842 
L 143.719224 232.648718 
L 144.354556 229.109796 
L 144.989888 224.260161 
L 145.62522 224.896793 
L 146.895883 212.295232 
L 148.166547 198.682551 
L 148.801879 189.507567 
L 150.072542 180.201511 
L 150.707874 174.434378 
L 151.343206 170.314997 
L 151.978538 158.44369 
L 152.613869 154.343034 
L 153.249201 152.133548 
L 153.884533 143.670093 
L 154.519865 133.708681 
L 155.155197 134.008272 
L 155.790528 130.338279 
L 156.42586 124.08431 
L 157.061192 121.781201 
L 157.696524 118.691666 
L 158.331856 114.740805 
L 158.967187 112.025759 
L 159.602519 112.905808 
L 160.237851 111.669994 
L 160.873183 109.142192 
L 161.508514 109.21709 
L 162.143846 111.501474 
L 162.779178 112.044483 
L 163.41451 113.467542 
L 164.049842 114.347591 
L 164.685173 109.460508 
L 165.320505 114.291418 
L 165.955837 111.239331 
L 166.591169 111.389127 
L 167.226501 109.086019 
L 167.861832 112.943257 
L 168.497164 110.958464 
L 169.132496 111.351678 
L 169.767828 107.775307 
L 170.40316 109.760099 
L 171.038491 103.262712 
L 171.673823 100.454043 
L 172.309155 99.442923 
L 172.944487 95.866551 
L 173.579819 94.162625 
L 174.21515 88.844879 
L 174.850482 89.425337 
L 175.485814 83.845449 
L 176.121146 81.298923 
L 176.756477 77.965969 
L 177.391809 79.894588 
L 178.027141 74.801536 
L 178.662473 74.764087 
L 179.297805 74.3147 
L 180.568468 68.472669 
L 181.2038 69.858279 
L 181.839132 72.816743 
L 182.474464 72.554601 
L 183.745127 78.752396 
L 184.380459 77.778724 
L 185.651123 87.215851 
L 186.286454 96.765325 
L 186.921786 97.177263 
L 187.557118 103.861895 
L 188.19245 105.004087 
L 189.463113 122.979567 
L 190.098445 124.103034 
L 190.733777 132.098378 
L 191.369109 134.925771 
L 192.00444 141.048669 
L 192.639772 144.699938 
L 193.275104 150.373449 
L 193.910436 157.189152 
L 194.545768 157.956854 
L 195.181099 157.863232 
L 195.816431 164.922353 
L 196.451763 167.150563 
L 197.087095 172.09382 
L 197.722427 173.64795 
L 198.357758 172.97387 
L 198.99309 178.478861 
L 199.628422 173.666675 
L 200.263754 177.018353 
L 200.899086 178.703554 
L 201.534417 174.059889 
L 202.805081 180.332582 
L 203.440413 182.261201 
L 204.075745 182.111406 
L 204.711076 182.205028 
L 205.346408 185.687777 
L 205.98174 187.522774 
L 206.617072 190.986799 
L 207.252403 190.293994 
L 207.887735 196.323269 
L 208.523067 197.33439 
L 209.158399 204.487133 
L 210.429062 209.112074 
L 211.064394 219.934811 
L 211.699726 220.459096 
L 212.335058 231.206935 
L 212.97039 234.895653 
L 213.605721 239.689115 
L 214.241053 246.411195 
L 214.876385 249.051344 
L 215.511717 253.301796 
L 216.147049 258.600817 
L 216.78238 266.539988 
L 217.417712 270.022737 
L 218.053044 272.382019 
L 218.688376 279.665833 
L 219.323708 278.242774 
L 219.959039 278.879406 
L 220.594371 283.335827 
L 221.229703 284.571641 
L 221.865035 283.148582 
L 222.500366 280.489709 
L 223.135698 285.058477 
L 224.406362 278.991752 
L 225.041694 279.310068 
L 225.677025 274.198291 
L 226.312357 276.201808 
L 226.947689 267.775802 
L 228.218353 264.330502 
L 228.853684 263.656421 
L 229.489016 258.713164 
L 230.124348 255.174241 
L 230.75968 253.470316 
L 232.030343 246.017981 
L 232.665675 246.298848 
L 233.301007 245.474972 
L 233.936339 244.051913 
L 234.571671 245.362625 
L 235.207002 241.112173 
L 235.842334 241.842427 
L 236.477666 243.11569 
L 237.112998 242.741201 
L 237.748329 244.557474 
L 238.383661 241.261969 
L 239.018993 240.138502 
L 239.654325 242.497783 
L 240.289657 242.759926 
L 241.56032 245.063034 
L 242.195652 242.067121 
L 243.466316 242.160743 
L 244.101647 239.689115 
L 244.736979 237.666873 
L 245.372311 236.019121 
L 246.007643 231.787393 
L 246.642975 226.563269 
L 247.278306 225.364904 
L 247.913638 220.758687 
L 248.54897 212.988037 
L 249.184302 207.464322 
L 250.454965 193.926539 
L 251.090297 189.357771 
L 251.725629 181.830539 
L 252.996292 168.573622 
L 253.631624 166.58883 
L 254.266956 156.196755 
L 254.902288 152.976149 
L 255.53762 147.321362 
L 256.172951 138.258724 
L 256.808283 138.202551 
L 257.443615 128.297313 
L 258.078947 125.301399 
L 258.714279 124.121759 
L 259.34961 115.339988 
L 259.984942 117.643096 
L 260.620274 117.512025 
L 261.255606 111.632545 
L 261.890938 112.550043 
L 262.526269 110.415455 
L 263.161601 110.846118 
L 263.796933 107.007604 
L 264.432265 110.6027 
L 265.067597 112.250452 
L 265.702928 109.011121 
L 266.33826 111.482749 
L 266.973592 112.15683 
L 267.608924 113.224124 
L 268.244255 111.014638 
L 268.879587 115.040396 
L 269.514919 112.699839 
L 270.150251 113.636062 
L 270.785583 111.538923 
L 271.420914 107.756582 
L 272.056246 104.779393 
L 272.691578 105.153882 
L 273.32691 106.239901 
L 273.962242 102.270316 
L 274.597573 99.573994 
L 275.232905 95.885276 
L 275.868237 88.620186 
L 276.503569 90.380285 
L 277.138901 86.317077 
L 277.774232 80.643567 
L 278.409564 79.669895 
L 279.044896 75.288372 
L 279.680228 76.449288 
L 280.31556 74.913882 
L 280.950891 72.329907 
L 281.586223 70.700879 
L 282.221555 69.408892 
L 282.856887 70.513635 
L 283.492218 71.843071 
L 284.12755 69.596136 
L 284.762882 73.528272 
L 285.398214 75.625412 
L 286.033546 81.055505 
L 286.668877 83.826724 
L 287.304209 87.946105 
L 287.939541 93.994105 
L 288.574873 97.45813 
L 289.210205 102.663529 
L 289.845536 105.153882 
L 290.480868 108.67408 
L 291.1162 117.605647 
L 291.751532 118.897635 
L 292.386864 128.690526 
L 293.022195 135.712198 
L 293.657527 139.475814 
L 294.292859 146.946873 
L 294.928191 150.111307 
L 295.563523 154.642625 
L 296.198854 153.481709 
L 296.834186 159.005424 
L 297.469518 165.558985 
L 298.10485 169.228978 
L 298.740181 169.172805 
L 299.375513 173.030043 
L 300.010845 172.168718 
L 300.646177 173.666675 
L 301.281509 175.969783 
L 301.91684 175.801263 
L 302.552172 176.606415 
L 303.187504 177.954576 
L 303.822836 178.254167 
L 304.458168 179.19039 
L 305.093499 180.463653 
L 305.728831 177.63626 
L 306.364163 184.283443 
L 306.999495 183.103802 
L 307.634827 182.710588 
L 308.270158 187.092111 
L 308.90549 189.863331 
L 309.540822 193.289907 
L 310.176154 199.150663 
L 310.811486 203.344941 
L 311.446817 205.011418 
L 312.082149 207.689015 
L 312.717481 216.264817 
L 313.352813 217.53808 
L 313.988144 225.589598 
L 314.623476 231.525251 
L 315.258808 235.045449 
L 315.89414 245.624768 
L 317.164803 253.919703 
L 317.800135 258.095257 
L 318.435467 260.772854 
L 319.706131 271.651765 
L 320.341462 276.070737 
L 320.976794 276.29543 
L 321.612126 278.411294 
L 322.247458 285.170824 
L 322.88279 282.867715 
L 323.518121 285.676384 
L 324.153453 282.287257 
L 324.788785 280.602056 
L 325.424117 282.493226 
L 326.059448 283.935009 
L 327.330112 278.654712 
L 327.965444 274.685127 
L 328.600776 273.542935 
L 329.236107 266.446365 
L 329.871439 265.641214 
L 330.506771 263.207034 
L 331.142103 258.86296 
L 331.777435 255.904495 
L 332.412766 254.275467 
L 333.048098 251.860012 
L 333.68343 254.238019 
L 334.318762 248.545783 
L 334.954094 247.927876 
L 335.589425 244.201709 
L 336.224757 243.153139 
L 336.860089 244.407678 
L 337.495421 244.033189 
L 338.130753 243.228037 
L 338.766084 242.61013 
L 339.401416 245.325176 
L 340.036748 241.673907 
L 340.67208 242.310539 
L 341.307411 246.59844 
L 341.942743 243.845944 
L 342.578075 241.992223 
L 343.213407 241.430489 
L 343.848739 241.599009 
L 344.48407 243.284211 
L 345.119402 242.909721 
L 345.754734 243.340384 
L 346.390066 239.83891 
L 347.025398 239.764012 
L 347.660729 230.832446 
L 348.296061 232.311678 
L 348.931393 228.398266 
L 349.566725 219.97226 
L 350.202057 216.18992 
L 350.837388 208.887381 
L 351.47272 206.097437 
L 352.743384 193.420978 
L 353.378716 191.511084 
L 354.014047 179.546155 
L 354.649379 173.629226 
L 355.284711 168.854489 
L 356.555374 155.260533 
L 357.826038 144.756111 
L 358.46137 141.666576 
L 359.096702 131.012359 
L 359.732033 132.192 
L 360.367365 125.09543 
L 361.002697 125.338848 
L 361.638029 118.466972 
L 362.273361 118.129932 
L 362.908692 111.726167 
L 363.544024 112.250452 
L 364.179356 108.917498 
L 364.814688 108.355765 
L 365.45002 109.685201 
L 366.085351 112.400248 
L 366.720683 111.538923 
L 367.356015 111.707443 
L 367.991347 115.208916 
L 368.626679 112.961981 
L 369.26201 112.83091 
L 369.897342 113.579889 
L 370.532674 113.654786 
L 371.168006 115.396161 
L 371.803337 107.606786 
L 372.438669 108.992396 
L 373.074001 105.359851 
L 373.709333 108.468111 
L 374.344665 108.861325 
L 374.979996 108.243418 
L 375.615328 102.663529 
L 376.25066 101.015777 
L 376.885992 94.106452 
L 378.791987 91.616099 
L 380.062651 83.059022 
L 380.697983 73.696793 
L 381.333314 75.86883 
L 381.968646 74.576842 
L 382.603978 75.550514 
L 383.23931 72.798019 
L 383.874642 71.88052 
L 384.509973 71.693276 
L 385.145305 72.517152 
L 385.780637 73.584446 
L 386.415969 73.022712 
L 387.0513 75.082402 
L 387.686632 74.333424 
L 389.592628 89.144471 
L 390.227959 91.147988 
L 390.863291 94.780533 
L 391.498623 104.030415 
L 392.133955 108.112347 
L 392.769287 114.347591 
L 393.404618 116.98774 
L 394.03995 121.687579 
L 395.310614 136.498625 
L 396.581277 148.089065 
L 397.216609 150.785387 
L 397.851941 156.21548 
L 398.487273 159.042873 
L 398.487273 159.042873 
" clip-path="url(#pc67fdd7df3)" style="fill: none; stroke: #1f77b4; stroke-width: 1.5; stroke-linecap: square"/>
   </g>
   <g id="line2d_28">
    <path d="M 73.832727 58.06187 
L 74.468059 78.09704 
L 75.103391 82.029176 
L 75.738723 80.905709 
L 76.374054 86.710291 
L 77.009386 79.220508 
L 77.644718 73.790415 
L 78.28005 87.08478 
L 78.915382 67.04961 
L 79.550713 79.407752 
L 80.186045 84.276111 
L 80.821377 79.033263 
L 81.456709 79.407752 
L 82.092041 85.02509 
L 82.727372 80.53122 
L 83.362704 68.734811 
L 83.998036 79.033263 
L 84.633368 103.562303 
L 85.2687 106.183728 
L 85.904031 103.749548 
L 86.539363 120.97605 
L 87.174695 129.214811 
L 87.810027 122.661251 
L 88.445358 123.03574 
L 89.08069 137.266328 
L 89.716022 148.688248 
L 90.351354 144.381622 
L 90.986686 143.632644 
L 91.622017 157.675988 
L 92.257349 157.675988 
L 92.892681 153.182118 
L 93.528013 163.64909 
L 94.163345 168.31148 
L 94.798676 186.829969 
L 95.434008 180.089164 
L 96.06934 167.749746 
L 96.704672 177.956448 
L 97.340004 182.729313 
L 97.975335 175.673937 
L 98.610667 176.606415 
L 99.245999 162.881387 
L 99.881331 174.977387 
L 100.516663 179.752124 
L 101.151994 174.471827 
L 101.787326 174.565449 
L 102.422658 179.995542 
L 103.05799 175.389325 
L 103.693321 163.48057 
L 104.328653 178.667978 
L 104.963985 201.678464 
L 105.599317 201.865709 
L 106.234649 196.136025 
L 106.86998 209.917226 
L 107.505312 214.785585 
L 108.140644 205.797845 
L 108.775976 204.674378 
L 109.411308 225.458526 
L 110.046639 230.701375 
L 111.317303 245.119207 
L 111.952635 248.864099 
L 112.587967 249.238588 
L 113.85863 245.868186 
L 114.493962 273.393139 
L 115.129294 273.767628 
L 115.764626 274.329362 
L 117.035289 274.703851 
L 117.670621 275.078341 
L 118.305953 275.265585 
L 118.941284 275.265585 
L 119.576616 266.46509 
L 120.211948 283.317102 
L 120.84728 282.755368 
L 121.482612 278.261498 
L 122.117943 284.06608 
L 122.753275 279.9467 
L 123.388607 279.010477 
L 124.023939 295.488 
L 124.659271 246.617164 
L 125.294602 263.469176 
L 125.929934 262.907443 
L 126.565266 258.413573 
L 127.200598 264.218155 
L 127.83593 260.098774 
L 128.471261 259.162551 
L 129.106593 275.640074 
L 129.741925 231.824842 
L 130.377257 245.119207 
L 131.012589 251.298279 
L 131.64792 248.115121 
L 132.283252 250.736545 
L 132.918584 258.039084 
L 133.553916 255.04317 
L 134.189247 244.182985 
L 134.824579 222.837102 
L 135.459911 250.5493 
L 136.095243 252.796235 
L 136.730575 240.999827 
L 137.365906 244.557474 
L 138.001238 243.434006 
L 138.63657 236.318712 
L 139.271902 240.063604 
L 139.907234 226.769238 
L 140.542565 243.621251 
L 141.177897 242.872272 
L 141.813229 238.565647 
L 142.448561 244.370229 
L 143.083893 240.063604 
L 143.719224 239.314625 
L 144.354556 255.792149 
L 144.989888 227.330972 
L 145.62522 230.326885 
L 146.260552 228.267195 
L 146.895883 216.658031 
L 147.531215 200.367752 
L 148.166547 188.664966 
L 148.801879 186.361858 
L 149.43721 188.852211 
L 150.072542 179.386997 
L 150.707874 191.754502 
L 151.343206 182.504619 
L 151.978538 166.682452 
L 152.613869 160.37231 
L 153.249201 145.317845 
L 153.884533 135.955616 
L 154.519865 147.56478 
L 155.155197 124.346452 
L 155.790528 140.262241 
L 156.42586 145.50509 
L 157.696524 119.103604 
L 158.331856 116.294935 
L 158.967187 112.175554 
L 159.602519 104.124037 
L 160.237851 102.62608 
L 160.873183 118.354625 
L 161.508514 116.10769 
L 162.143846 109.55413 
L 162.779178 113.111777 
L 163.41451 106.558217 
L 164.049842 104.124037 
L 164.685173 119.852582 
L 165.320505 96.821498 
L 165.955837 113.486266 
L 166.591169 112.737288 
L 167.226501 108.430663 
L 167.861832 114.235245 
L 168.497164 109.928619 
L 169.132496 109.179641 
L 169.767828 125.844409 
L 170.40316 73.415926 
L 171.038491 102.064347 
L 171.673823 106.183728 
L 172.309155 96.447009 
L 172.944487 102.251591 
L 173.579819 103.375059 
L 174.21515 97.944966 
L 174.850482 102.62608 
L 175.485814 53.568 
L 176.121146 82.216421 
L 176.756477 86.148557 
L 177.391809 76.599084 
L 178.027141 82.403666 
L 178.662473 83.339889 
L 179.297805 77.909796 
L 179.933136 82.59091 
L 180.568468 71.54348 
L 181.2038 75.101127 
L 181.839132 79.969486 
L 182.474464 83.339889 
L 183.109795 83.714378 
L 183.745127 80.53122 
L 184.380459 75.850105 
L 185.015791 72.854192 
L 185.651123 91.57865 
L 186.286454 106.183728 
L 186.921786 106.745461 
L 187.557118 109.366885 
L 188.19245 123.410229 
L 188.827782 119.852582 
L 189.463113 111.052087 
L 190.098445 118.54187 
L 190.733777 135.768372 
L 192.00444 151.309672 
L 192.639772 152.245895 
L 193.275104 149.249981 
L 193.910436 150.186204 
L 195.181099 165.109598 
L 195.816431 176.235671 
L 197.087095 176.904134 
L 198.99309 177.354644 
L 200.263754 177.37599 
L 200.899086 154.305585 
L 201.534417 182.055232 
L 202.169749 184.470687 
L 202.805081 172.749176 
L 203.440413 176.291844 
L 204.075745 175.276978 
L 204.711076 168.31148 
L 205.346408 172.09382 
L 205.98174 186.736347 
L 206.617072 191.529808 
L 207.887735 205.610601 
L 208.523067 209.168248 
L 209.158399 209.355492 
L 210.429062 205.236111 
L 211.064394 217.03252 
L 211.699726 236.693201 
L 212.335058 232.57382 
L 212.97039 223.58608 
L 213.605721 237.629424 
L 214.241053 245.868186 
L 214.876385 241.374316 
L 215.511717 243.808495 
L 216.147049 264.779889 
L 216.78238 266.839579 
L 217.417712 269.461003 
L 219.323708 279.759455 
L 220.594371 283.878836 
L 221.229703 262.158464 
L 221.865035 287.623728 
L 222.500366 287.061994 
L 223.135698 274.142118 
L 223.77103 279.9467 
L 224.406362 284.06608 
L 225.041694 283.317102 
L 225.677025 291.181375 
L 226.312357 236.693201 
L 226.947689 265.341622 
L 227.583021 269.461003 
L 228.218353 259.724285 
L 228.853684 265.528867 
L 229.489016 266.652334 
L 230.124348 261.222241 
L 230.75968 265.716111 
L 231.395012 229.203418 
L 232.030343 254.481437 
L 232.665675 253.732458 
L 233.301007 240.812582 
L 233.936339 246.617164 
L 234.571671 250.923789 
L 235.207002 250.362056 
L 235.842334 258.226328 
L 236.477666 226.207505 
L 237.112998 240.063604 
L 237.748329 239.314625 
L 238.383661 240.812582 
L 239.018993 253.357969 
L 239.654325 248.302365 
L 240.289657 238.191158 
L 240.924988 245.119207 
L 241.56032 222.462613 
L 242.195652 247.927876 
L 242.830984 247.178898 
L 243.466316 234.259022 
L 244.101647 240.063604 
L 244.736979 244.370229 
L 245.372311 243.621251 
L 246.007643 251.485523 
L 246.642975 218.155988 
L 247.278306 222.462613 
L 247.913638 223.024347 
L 248.54897 214.785585 
L 249.184302 202.052954 
L 249.819634 193.814192 
L 250.454965 194.22613 
L 251.090297 198.120817 
L 251.725629 179.770848 
L 252.360961 191.829399 
L 252.996292 182.616966 
L 253.631624 167.131839 
L 254.266956 160.821697 
L 254.902288 145.317845 
L 255.53762 136.142861 
L 256.172951 147.939269 
L 256.808283 120.97605 
L 257.443615 146.441313 
L 258.078947 144.381622 
L 258.714279 126.967876 
L 259.34961 124.346452 
L 259.984942 117.605647 
L 260.620274 106.183728 
L 261.255606 107.681684 
L 261.890938 94.387319 
L 263.161601 116.10769 
L 263.796933 119.103604 
L 265.067597 111.052087 
L 265.702928 112.737288 
L 266.33826 116.669424 
L 266.973592 102.62608 
L 267.608924 119.478093 
L 268.244255 118.916359 
L 268.879587 114.609734 
L 269.514919 120.414316 
L 270.150251 116.10769 
L 270.785583 115.171467 
L 271.420914 131.648991 
L 272.056246 93.451096 
L 272.691578 103.375059 
L 273.32691 105.247505 
L 273.962242 98.693944 
L 274.597573 101.315368 
L 275.232905 111.98831 
L 275.868237 113.299022 
L 276.503569 105.621994 
L 277.138901 53.568 
L 277.774232 82.216421 
L 278.409564 86.148557 
L 279.044896 76.599084 
L 279.680228 82.403666 
L 280.31556 83.339889 
L 280.950891 77.909796 
L 281.586223 82.59091 
L 282.221555 71.356235 
L 282.856887 75.101127 
L 283.492218 79.969486 
L 284.12755 83.339889 
L 284.762882 83.527133 
L 285.398214 80.53122 
L 286.033546 76.03735 
L 286.668877 72.854192 
L 287.939541 100.191901 
L 288.574873 100.56639 
L 289.210205 103.375059 
L 289.845536 117.231158 
L 290.480868 113.486266 
L 291.1162 104.498526 
L 291.751532 112.175554 
L 292.386864 136.142861 
L 293.022195 146.815802 
L 293.657527 149.624471 
L 294.292859 144.568867 
L 294.928191 148.313759 
L 295.563523 160.297412 
L 296.198854 162.750316 
L 296.834186 155.616297 
L 297.469518 172.97387 
L 298.10485 182.598241 
L 298.740181 175.614019 
L 299.375513 171.850402 
L 300.010845 182.148854 
L 300.646177 178.366514 
L 301.281509 171.288669 
L 301.91684 180.800693 
L 302.552172 159.417362 
L 303.187504 180.987938 
L 303.822836 178.611804 
L 304.458168 169.416223 
L 305.093499 179.621053 
L 305.728831 181.137734 
L 306.364163 169.378774 
L 306.999495 166.944594 
L 307.634827 185.519257 
L 308.270158 187.204458 
L 308.90549 189.807158 
L 310.176154 196.99735 
L 310.811486 200.554997 
L 311.446817 202.989176 
L 312.082149 204.487133 
L 312.717481 207.295802 
L 313.352813 223.024347 
L 313.988144 225.645771 
L 314.623476 231.824842 
L 315.258808 249.238588 
L 315.89414 248.676854 
L 316.529472 242.123294 
L 317.800135 260.473263 
L 318.435467 270.95896 
L 319.070799 273.767628 
L 319.706131 268.52478 
L 320.341462 272.269672 
L 320.976794 284.06608 
L 321.612126 286.687505 
L 322.247458 279.759455 
L 322.88279 269.835492 
L 324.153453 283.878836 
L 324.788785 283.129858 
L 325.424117 279.010477 
L 326.059448 278.635988 
L 327.330112 292.117598 
L 327.965444 267.963046 
L 328.600776 284.06608 
L 329.236107 289.308929 
L 330.506771 262.907443 
L 331.142103 259.911529 
L 331.777435 255.792149 
L 332.412766 247.927876 
L 333.048098 236.318712 
L 333.68343 240.625337 
L 334.954094 252.608991 
L 335.589425 254.855926 
L 336.224757 253.732458 
L 336.860089 250.736545 
L 337.495421 248.48961 
L 338.130753 232.761065 
L 338.766084 248.676854 
L 339.401416 246.42992 
L 340.036748 239.689115 
L 340.67208 243.059517 
L 341.307411 236.693201 
L 341.942743 234.259022 
L 342.578075 249.800322 
L 343.213407 226.581994 
L 343.848739 243.434006 
L 344.48407 243.059517 
L 345.119402 238.752892 
L 345.754734 244.557474 
L 346.390066 240.250848 
L 347.025398 239.314625 
L 347.660729 255.604904 
L 348.296061 215.909053 
L 348.931393 232.761065 
L 349.566725 230.701375 
L 350.202057 221.900879 
L 350.837388 219.279455 
L 351.47272 203.925399 
L 352.108052 192.559653 
L 352.743384 202.614687 
L 353.378716 176.248778 
L 354.014047 200.180508 
L 354.649379 195.686638 
L 355.284711 174.86504 
L 355.920043 168.554898 
L 356.555374 158.424966 
L 357.190706 144.568867 
L 357.826038 144.568867 
L 358.46137 127.342365 
L 359.096702 152.620384 
L 359.732033 150.747938 
L 360.367365 133.334192 
L 361.002697 130.525523 
L 361.638029 123.784718 
L 362.273361 112.550043 
L 362.908692 113.860755 
L 363.544024 96.07252 
L 364.179356 114.422489 
L 364.814688 123.971963 
L 365.45002 115.920446 
L 366.085351 109.366885 
L 366.720683 112.175554 
L 367.356015 112.175554 
L 367.991347 106.558217 
L 368.626679 95.698031 
L 369.26201 111.61382 
L 369.897342 118.354625 
L 370.532674 109.366885 
L 371.168006 105.06026 
L 371.803337 113.111777 
L 372.438669 119.478093 
L 373.074001 117.792892 
L 373.709333 98.132211 
L 374.344665 99.255678 
L 375.615328 103.187814 
L 376.885992 107.681684 
L 377.521324 109.366885 
L 378.156655 110.490353 
L 378.791987 67.424099 
L 380.062651 89.331715 
L 380.697983 92.140384 
L 381.333314 87.646514 
L 381.968646 84.088867 
L 382.603978 85.961313 
L 383.23931 89.706204 
L 383.874642 67.424099 
L 384.509973 79.594997 
L 385.145305 84.463356 
L 385.780637 79.033263 
L 386.415969 79.220508 
L 387.0513 84.463356 
L 387.686632 79.969486 
L 388.321964 68.173077 
L 388.957296 88.582737 
L 389.592628 93.638341 
L 390.863291 107.868929 
L 391.498623 111.98831 
L 392.133955 112.175554 
L 393.404618 108.430663 
L 394.03995 133.895926 
L 394.675282 135.955616 
L 395.310614 138.951529 
L 397.851941 152.620384 
L 398.487273 154.118341 
L 398.487273 154.118341 
" clip-path="url(#pc67fdd7df3)" style="fill: none; stroke: #ff7f0e; stroke-width: 1.5; stroke-linecap: square"/>
   </g>
   <g id="patch_3">
    <path d="M 57.6 307.584 
L 57.6 41.472 
" style="fill: none; stroke: #000000; stroke-width: 0.8; stroke-linejoin: miter; stroke-linecap: square"/>
   </g>
   <g id="patch_4">
    <path d="M 414.72 307.584 
L 414.72 41.472 
" style="fill: none; stroke: #000000; stroke-width: 0.8; stroke-linejoin: miter; stroke-linecap: square"/>
   </g>
   <g id="patch_5">
    <path d="M 57.6 307.584 
L 414.72 307.584 
" style="fill: none; stroke: #000000; stroke-width: 0.8; stroke-linejoin: miter; stroke-linecap: square"/>
   </g>
   <g id="patch_6">
    <path d="M 57.6 41.472 
L 414.72 41.472 
" style="fill: none; stroke: #000000; stroke-width: 0.8; stroke-linejoin: miter; stroke-linecap: square"/>
   </g>
   <g id="text_16">
    <!-- N = 512, L = 8, M = 6, TAE = 203.82, MTAE = 0.40 -->
    <g transform="translate(82.879687 35.472) scale(0.12 -0.12)">
     <defs>
      <path id="DejaVuSans-20" transform="scale(0.015625)"/>
      <path id="DejaVuSans-3d" d="M 678 2906 
L 4684 2906 
L 4684 2381 
L 678 2381 
L 678 2906 
z
M 678 1631 
L 4684 1631 
L 4684 1100 
L 678 1100 
L 678 1631 
z
" transform="scale(0.015625)"/>
      <path id="DejaVuSans-2c" d="M 750 794 
L 1409 794 
L 1409 256 
L 897 -744 
L 494 -744 
L 750 256 
L 750 794 
z
" transform="scale(0.015625)"/>
      <path id="DejaVuSans-4c" d="M 628 4666 
L 1259 4666 
L 1259 531 
L 3531 531 
L 3531 0 
L 628 0 
L 628 4666 
z
" transform="scale(0.015625)"/>
      <path id="DejaVuSans-38" d="M 2034 2216 
Q 1584 2216 1326 1975 
Q 1069 1734 1069 1313 
Q 1069 891 1326 650 
Q 1584 409 2034 409 
Q 2484 409 2743 651 
Q 3003 894 3003 1313 
Q 3003 1734 2745 1975 
Q 2488 2216 2034 2216 
z
M 1403 2484 
Q 997 2584 770 2862 
Q 544 3141 544 3541 
Q 544 4100 942 4425 
Q 1341 4750 2034 4750 
Q 2731 4750 3128 4425 
Q 3525 4100 3525 3541 
Q 3525 3141 3298 2862 
Q 3072 2584 2669 2484 
Q 3125 2378 3379 2068 
Q 3634 1759 3634 1313 
Q 3634 634 3220 271 
Q 2806 -91 2034 -91 
Q 1263 -91 848 271 
Q 434 634 434 1313 
Q 434 1759 690 2068 
Q 947 2378 1403 2484 
z
M 1172 3481 
Q 1172 3119 1398 2916 
Q 1625 2713 2034 2713 
Q 2441 2713 2670 2916 
Q 2900 3119 2900 3481 
Q 2900 3844 2670 4047 
Q 2441 4250 2034 4250 
Q 1625 4250 1398 4047 
Q 1172 3844 1172 3481 
z
" transform="scale(0.015625)"/>
      <path id="DejaVuSans-4d" d="M 628 4666 
L 1569 4666 
L 2759 1491 
L 3956 4666 
L 4897 4666 
L 4897 0 
L 4281 0 
L 4281 4097 
L 3078 897 
L 2444 897 
L 1241 4097 
L 1241 0 
L 628 0 
L 628 4666 
z
" transform="scale(0.015625)"/>
      <path id="DejaVuSans-54" d="M -19 4666 
L 3928 4666 
L 3928 4134 
L 2272 4134 
L 2272 0 
L 1638 0 
L 1638 4134 
L -19 4134 
L -19 4666 
z
" transform="scale(0.015625)"/>
      <path id="DejaVuSans-45" d="M 628 4666 
L 3578 4666 
L 3578 4134 
L 1259 4134 
L 1259 2753 
L 3481 2753 
L 3481 2222 
L 1259 2222 
L 1259 531 
L 3634 531 
L 3634 0 
L 628 0 
L 628 4666 
z
" transform="scale(0.015625)"/>
      <path id="DejaVuSans-2e" d="M 684 794 
L 1344 794 
L 1344 0 
L 684 0 
L 684 794 
z
" transform="scale(0.015625)"/>
     </defs>
     <use xlink:href="#DejaVuSans-4e"/>
     <use xlink:href="#DejaVuSans-20" x="74.804688"/>
     <use xlink:href="#DejaVuSans-3d" x="106.591797"/>
     <use xlink:href="#DejaVuSans-20" x="190.380859"/>
     <use xlink:href="#DejaVuSans-35" x="222.167969"/>
     <use xlink:href="#DejaVuSans-31" x="285.791016"/>
     <use xlink:href="#DejaVuSans-32" x="349.414062"/>
     <use xlink:href="#DejaVuSans-2c" x="413.037109"/>
     <use xlink:href="#DejaVuSans-20" x="444.824219"/>
     <use xlink:href="#DejaVuSans-4c" x="476.611328"/>
     <use xlink:href="#DejaVuSans-20" x="532.324219"/>
     <use xlink:href="#DejaVuSans-3d" x="564.111328"/>
     <use xlink:href="#DejaVuSans-20" x="647.900391"/>
     <use xlink:href="#DejaVuSans-38" x="679.6875"/>
     <use xlink:href="#DejaVuSans-2c" x="743.310547"/>
     <use xlink:href="#DejaVuSans-20" x="775.097656"/>
     <use xlink:href="#DejaVuSans-4d" x="806.884766"/>
     <use xlink:href="#DejaVuSans-20" x="893.164062"/>
     <use xlink:href="#DejaVuSans-3d" x="924.951172"/>
     <use xlink:href="#DejaVuSans-20" x="1008.740234"/>
     <use xlink:href="#DejaVuSans-36" x="1040.527344"/>
     <use xlink:href="#DejaVuSans-2c" x="1104.150391"/>
     <use xlink:href="#DejaVuSans-20" x="1135.9375"/>
     <use xlink:href="#DejaVuSans-54" x="1167.724609"/>
     <use xlink:href="#DejaVuSans-41" x="1221.058594"/>
     <use xlink:href="#DejaVuSans-45" x="1289.466797"/>
     <use xlink:href="#DejaVuSans-20" x="1352.650391"/>
     <use xlink:href="#DejaVuSans-3d" x="1384.4375"/>
     <use xlink:href="#DejaVuSans-20" x="1468.226562"/>
     <use xlink:href="#DejaVuSans-32" x="1500.013672"/>
     <use xlink:href="#DejaVuSans-30" x="1563.636719"/>
     <use xlink:href="#DejaVuSans-33" x="1627.259766"/>
     <use xlink:href="#DejaVuSans-2e" x="1690.882812"/>
     <use xlink:href="#DejaVuSans-38" x="1722.669922"/>
     <use xlink:href="#DejaVuSans-32" x="1786.292969"/>
     <use xlink:href="#DejaVuSans-2c" x="1849.916016"/>
     <use xlink:href="#DejaVuSans-20" x="1881.703125"/>
     <use xlink:href="#DejaVuSans-4d" x="1913.490234"/>
     <use xlink:href="#DejaVuSans-54" x="1999.769531"/>
     <use xlink:href="#DejaVuSans-41" x="2053.103516"/>
     <use xlink:href="#DejaVuSans-45" x="2121.511719"/>
     <use xlink:href="#DejaVuSans-20" x="2184.695312"/>
     <use xlink:href="#DejaVuSans-3d" x="2216.482422"/>
     <use xlink:href="#DejaVuSans-20" x="2300.271484"/>
     <use xlink:href="#DejaVuSans-30" x="2332.058594"/>
     <use xlink:href="#DejaVuSans-2e" x="2395.681641"/>
     <use xlink:href="#DejaVuSans-34" x="2427.46875"/>
     <use xlink:href="#DejaVuSans-30" x="2491.091797"/>
    </g>
   </g>
   <g id="legend_1">
    <g id="patch_7">
     <path d="M 269.795 302.584 
L 407.72 302.584 
Q 409.72 302.584 409.72 300.584 
L 409.72 272.22775 
Q 409.72 270.22775 407.72 270.22775 
L 269.795 270.22775 
Q 267.795 270.22775 267.795 272.22775 
L 267.795 300.584 
Q 267.795 302.584 269.795 302.584 
z
" style="fill: #ffffff; opacity: 0.8; stroke: #cccccc; stroke-linejoin: miter"/>
    </g>
    <g id="line2d_29">
     <path d="M 271.795 278.326187 
L 281.795 278.326187 
L 291.795 278.326187 
" style="fill: none; stroke: #1f77b4; stroke-width: 1.5; stroke-linecap: square"/>
    </g>
    <g id="text_17">
     <!-- signal -->
     <g transform="translate(299.795 281.826187) scale(0.1 -0.1)">
      <defs>
       <path id="DejaVuSans-69" d="M 603 3500 
L 1178 3500 
L 1178 0 
L 603 0 
L 603 3500 
z
M 603 4863 
L 1178 4863 
L 1178 4134 
L 603 4134 
L 603 4863 
z
" transform="scale(0.015625)"/>
       <path id="DejaVuSans-67" d="M 2906 1791 
Q 2906 2416 2648 2759 
Q 2391 3103 1925 3103 
Q 1463 3103 1205 2759 
Q 947 2416 947 1791 
Q 947 1169 1205 825 
Q 1463 481 1925 481 
Q 2391 481 2648 825 
Q 2906 1169 2906 1791 
z
M 3481 434 
Q 3481 -459 3084 -895 
Q 2688 -1331 1869 -1331 
Q 1566 -1331 1297 -1286 
Q 1028 -1241 775 -1147 
L 775 -588 
Q 1028 -725 1275 -790 
Q 1522 -856 1778 -856 
Q 2344 -856 2625 -561 
Q 2906 -266 2906 331 
L 2906 616 
Q 2728 306 2450 153 
Q 2172 0 1784 0 
Q 1141 0 747 490 
Q 353 981 353 1791 
Q 353 2603 747 3093 
Q 1141 3584 1784 3584 
Q 2172 3584 2450 3431 
Q 2728 3278 2906 2969 
L 2906 3500 
L 3481 3500 
L 3481 434 
z
" transform="scale(0.015625)"/>
       <path id="DejaVuSans-6e" d="M 3513 2113 
L 3513 0 
L 2938 0 
L 2938 2094 
Q 2938 2591 2744 2837 
Q 2550 3084 2163 3084 
Q 1697 3084 1428 2787 
Q 1159 2491 1159 1978 
L 1159 0 
L 581 0 
L 581 3500 
L 1159 3500 
L 1159 2956 
Q 1366 3272 1645 3428 
Q 1925 3584 2291 3584 
Q 2894 3584 3203 3211 
Q 3513 2838 3513 2113 
z
" transform="scale(0.015625)"/>
      </defs>
      <use xlink:href="#DejaVuSans-73"/>
      <use xlink:href="#DejaVuSans-69" x="52.099609"/>
      <use xlink:href="#DejaVuSans-67" x="79.882812"/>
      <use xlink:href="#DejaVuSans-6e" x="143.359375"/>
      <use xlink:href="#DejaVuSans-61" x="206.738281"/>
      <use xlink:href="#DejaVuSans-6c" x="268.017578"/>
     </g>
    </g>
    <g id="line2d_30">
     <path d="M 271.795 293.004312 
L 281.795 293.004312 
L 291.795 293.004312 
" style="fill: none; stroke: #ff7f0e; stroke-width: 1.5; stroke-linecap: square"/>
    </g>
    <g id="text_18">
     <!-- decompressed signal -->
     <g transform="translate(299.795 296.504312) scale(0.1 -0.1)">
      <defs>
       <path id="DejaVuSans-64" d="M 2906 2969 
L 2906 4863 
L 3481 4863 
L 3481 0 
L 2906 0 
L 2906 525 
Q 2725 213 2448 61 
Q 2172 -91 1784 -91 
Q 1150 -91 751 415 
Q 353 922 353 1747 
Q 353 2572 751 3078 
Q 1150 3584 1784 3584 
Q 2172 3584 2448 3432 
Q 2725 3281 2906 2969 
z
M 947 1747 
Q 947 1113 1208 752 
Q 1469 391 1925 391 
Q 2381 391 2643 752 
Q 2906 1113 2906 1747 
Q 2906 2381 2643 2742 
Q 2381 3103 1925 3103 
Q 1469 3103 1208 2742 
Q 947 2381 947 1747 
z
" transform="scale(0.015625)"/>
       <path id="DejaVuSans-63" d="M 3122 3366 
L 3122 2828 
Q 2878 2963 2633 3030 
Q 2388 3097 2138 3097 
Q 1578 3097 1268 2742 
Q 959 2388 959 1747 
Q 959 1106 1268 751 
Q 1578 397 2138 397 
Q 2388 397 2633 464 
Q 2878 531 3122 666 
L 3122 134 
Q 2881 22 2623 -34 
Q 2366 -91 2075 -91 
Q 1284 -91 818 406 
Q 353 903 353 1747 
Q 353 2603 823 3093 
Q 1294 3584 2113 3584 
Q 2378 3584 2631 3529 
Q 2884 3475 3122 3366 
z
" transform="scale(0.015625)"/>
       <path id="DejaVuSans-6f" d="M 1959 3097 
Q 1497 3097 1228 2736 
Q 959 2375 959 1747 
Q 959 1119 1226 758 
Q 1494 397 1959 397 
Q 2419 397 2687 759 
Q 2956 1122 2956 1747 
Q 2956 2369 2687 2733 
Q 2419 3097 1959 3097 
z
M 1959 3584 
Q 2709 3584 3137 3096 
Q 3566 2609 3566 1747 
Q 3566 888 3137 398 
Q 2709 -91 1959 -91 
Q 1206 -91 779 398 
Q 353 888 353 1747 
Q 353 2609 779 3096 
Q 1206 3584 1959 3584 
z
" transform="scale(0.015625)"/>
       <path id="DejaVuSans-72" d="M 2631 2963 
Q 2534 3019 2420 3045 
Q 2306 3072 2169 3072 
Q 1681 3072 1420 2755 
Q 1159 2438 1159 1844 
L 1159 0 
L 581 0 
L 581 3500 
L 1159 3500 
L 1159 2956 
Q 1341 3275 1631 3429 
Q 1922 3584 2338 3584 
Q 2397 3584 2469 3576 
Q 2541 3569 2628 3553 
L 2631 2963 
z
" transform="scale(0.015625)"/>
      </defs>
      <use xlink:href="#DejaVuSans-64"/>
      <use xlink:href="#DejaVuSans-65" x="63.476562"/>
      <use xlink:href="#DejaVuSans-63" x="125"/>
      <use xlink:href="#DejaVuSans-6f" x="179.980469"/>
      <use xlink:href="#DejaVuSans-6d" x="241.162109"/>
      <use xlink:href="#DejaVuSans-70" x="338.574219"/>
      <use xlink:href="#DejaVuSans-72" x="402.050781"/>
      <use xlink:href="#DejaVuSans-65" x="440.914062"/>
      <use xlink:href="#DejaVuSans-73" x="502.4375"/>
      <use xlink:href="#DejaVuSans-73" x="554.537109"/>
      <use xlink:href="#DejaVuSans-65" x="606.636719"/>
      <use xlink:href="#DejaVuSans-64" x="668.160156"/>
      <use xlink:href="#DejaVuSans-20" x="731.636719"/>
      <use xlink:href="#DejaVuSans-73" x="763.423828"/>
      <use xlink:href="#DejaVuSans-69" x="815.523438"/>
      <use xlink:href="#DejaVuSans-67" x="843.306641"/>
      <use xlink:href="#DejaVuSans-6e" x="906.783203"/>
      <use xlink:href="#DejaVuSans-61" x="970.162109"/>
      <use xlink:href="#DejaVuSans-6c" x="1031.441406"/>
     </g>
    </g>
   </g>
  </g>
 </g>
 <defs>
  <clipPath id="pc67fdd7df3">
   <rect x="57.6" y="41.472" width="357.12" height="266.112"/>
  </clipPath>
 </defs>
</svg>
